<?xml version='1.0' encoding='utf-8'?>
<svg width="158.092913mm" height="227.388099mm" viewBox="-26.831881 -38.592814 53.663761 77.185627" version="1.1" xmlns="http://www.w3.org/2000/svg">
  <g transform="scale(1,-1)" stroke-linecap="round">
    <g fill="none" stroke="rgb(0,0,0)" stroke-width="0.13577777777777778" id="Visible">
      <line x1="-26.763992" y1="-29.16934" x2="-26.763992" y2="10.920642" />
      <path d="M -26.763992,-29.16934 A 6.0,3.4641016151377544 59.99999999999999 0,1 -25.521351,-31.916003" />
      <path d="M -25.521351,-31.916003 A 6.0,3.4641016151377544 59.99999999999999 0,1 -22.521351,-31.61883" />
      <path d="M -26.763992,10.920642 A 6.0,3.4641016151377544 -120.00000000000001 0,0 -22.521351,18.269111" />
      <line x1="-22.521351" y1="-31.61883" x2="11.561196" y2="-11.941262" />
      <line x1="-22.521351" y1="18.269111" x2="11.561196" y2="37.946679" />
      <path d="M 15.803837,-4.592793 A 6.0,3.4641016151377544 -120.00000000000001 0,0 11.561196,-11.941262" />
      <path d="M 15.803837,35.497189 A 6.0,3.4641016151377544 59.99999999999999 0,1 14.561196,38.243852" />
      <path d="M 14.561196,38.243852 A 6.0,3.4641016151377544 59.99999999999999 0,1 11.561196,37.946679" />
      <line x1="15.803837" y1="-4.592793" x2="15.803837" y2="35.497189" />
      <path d="M -14.561196,-38.243852 A 6.0,3.4641016151377544 59.99999999999999 0,1 -11.561196,-37.946679" />
      <line x1="-11.561196" y1="-37.946679" x2="22.521351" y2="-18.269111" />
      <path d="M 26.763992,-10.920642 A 6.0,3.4641016151377544 -120.00000000000001 0,0 22.521351,-18.269111" />
      <path d="M 26.763992,29.16934 A 6.0,3.4641016151377544 59.99999999999999 0,1 25.521351,31.916003" />
      <line x1="26.763992" y1="-10.920642" x2="26.763992" y2="29.16934" />
      <line x1="-11.561196" y1="-37.946679" x2="-22.521351" y2="-31.61883" />
      <line x1="22.521351" y1="-18.269111" x2="11.561196" y2="-11.941262" />
      <line x1="26.763992" y1="-10.920642" x2="15.803837" y2="-4.592793" />
      <line x1="26.763992" y1="29.16934" x2="15.803837" y2="35.497189" />
      <line x1="-14.561196" y1="-38.243852" x2="-25.521351" y2="-31.916003" />
      <line x1="25.521351" y1="31.916003" x2="14.561196" y2="38.243852" />
    </g>
    <g fill="none" stroke="rgb(140,140,140)" stroke-width="0.08486111111111111" id="Hidden" stroke-dasharray="1.018333 0.254583">
      <line x1="-15.803837" y1="-35.497189" x2="-15.803837" y2="4.592793" />
      <path d="M -15.803837,-35.497189 A 6.0,3.4641016151377544 59.99999999999999 0,1 -14.561196,-38.243852" />
      <path d="M -15.803837,4.592793 A 6.0,3.4641016151377544 -120.00000000000001 0,0 -11.561196,11.941262" />
      <line x1="-11.561196" y1="11.941262" x2="22.521351" y2="31.61883" />
      <path d="M 25.521351,31.916003 A 6.0,3.4641016151377544 59.99999999999999 0,1 22.521351,31.61883" />
      <line x1="-15.803837" y1="-35.497189" x2="-26.763992" y2="-29.16934" />
      <line x1="-15.803837" y1="4.592793" x2="-26.763992" y2="10.920642" />
      <line x1="-11.561196" y1="11.941262" x2="-22.521351" y2="18.269111" />
      <line x1="22.521351" y1="31.61883" x2="11.561196" y2="37.946679" />
    </g>
  </g>
</svg>