<?xml version='1.0' encoding='utf-8'?>
<svg width="154.58193mm" height="153.894855mm" viewBox="-87.496825 -79.661395 185.841832 185.015815" version="1.1" xmlns="http://www.w3.org/2000/svg">
  <g transform="scale(1,-1)" stroke-linecap="round">
    <g fill="none" stroke="rgb(0,0,0)" stroke-width="0.48088888911111116" id="Visible">
      <path d="M 82.789565,-51.876588 L 82.698373,-50.830099 L 82.572183,-49.81072 L 82.411248,-48.820518 L 82.215897,-47.861499 L 81.986525,-46.935608 L 81.723596,-46.044723 L 81.427644,-45.19065 L 81.09927,-44.37512 L 80.739138,-43.599787 L 80.347979,-42.866224 L 79.926587,-42.175916 L 79.475815,-41.530265 L 78.996577,-40.930578 L 78.489846,-40.378072" />
      <path d="M -13.953327,23.2595 L -14.088696,23.47257" />
      <path d="M -14.734356,24.488833 L -15.492203,25.681679" />
      <path d="M -16.135658,26.694474 L -16.780722,27.7098" />
      <path d="M -17.42208,28.719292 L -18.057362,29.719222" />
      <path d="M -18.695687,30.72394 L -19.293277,31.664543" />
      <path d="M -19.9297,32.666269 L -20.620391,33.753412" />
      <path d="M -21.254655,34.751738 L -22.087771,36.063057" />
      <path d="M -22.719732,37.057759 L -23.371925,38.084306" />
      <path d="M -24.002024,39.076078 L -24.563108,39.95922" />
      <path d="M -25.191602,40.948466 L -25.70866,41.76231" />
      <path d="M -26.336004,42.749746 L -26.745399,43.394131" />
      <path d="M -27.371105,44.378988 L -27.84041,45.117669" />
      <path d="M -28.464762,46.100396 L -28.878902,46.752249" />
      <path d="M -29.502111,47.733176 L -30.038882,48.57805" />
      <path d="M -30.660704,49.556794 L -31.146404,50.321281" />
      <path d="M -31.766858,51.297871 L -32.168125,51.929463" />
      <path d="M -32.786951,52.903491 L -33.005208,53.247026" />
      <path d="M -33.622742,54.21902 L -33.896703,54.650232" />
      <path d="M 82.866412,-54.137478 L -25.639124,63.019971" />
      <path d="M 49.616442,-81.001717 L 37.099395,-60.472422" />
      <path d="M 26.693806,-43.406143 L 25.719627,-41.808386" />
      <path d="M 25.088625,-40.773475 L 24.114641,-39.176037" />
      <path d="M 23.483466,-38.140844 L 22.509684,-36.543737" />
      <path d="M 21.878331,-35.50825 L 21.143661,-34.303313" />
      <path d="M 20.512574,-33.268262 L 19.585003,-31.746946" />
      <path d="M 18.954037,-30.712095 L 18.020476,-29.180955" />
      <path d="M 17.388302,-28.144123 L 16.515136,-26.712037" />
      <path d="M 15.883102,-25.675433 L 14.875773,-24.023307" />
      <path d="M 14.243912,-22.986987 L 13.276528,-21.400373" />
      <path d="M 12.644862,-20.364374 L 11.835297,-19.0366" />
      <path d="M 11.203846,-18.000954 L 10.301227,-16.520561" />
      <path d="M 9.670034,-15.485338 L 8.979276,-14.352421" />
      <path d="M 8.348354,-13.317642 L 7.636786,-12.150594" />
      <path d="M 7.006162,-11.116303 L 6.12833,-9.676565" />
      <path d="M 5.498119,-8.642952 L 4.857615,-7.592456" />
      <path d="M 4.227811,-6.559511 L 3.279036,-5.003417" />
      <path d="M 2.649807,-3.971415 L 1.78531,-2.553548" />
      <path d="M 1.156792,-1.522711 L -0.015525,0.400014" />
      <path d="M -0.642967,1.429086 L -1.772349,3.281393" />
      <path d="M -2.398546,4.308424 L -3.26209,5.724727" />
      <path d="M -3.886853,6.749406 L -4.665388,8.026286" />
      <path d="M -5.288578,9.048385 L -6.045527,10.289862" />
      <path d="M -6.666947,11.309058 L -7.228075,12.229367" />
      <path d="M -7.847591,13.245441 L -8.399073,14.149929" />
      <path d="M -9.016539,15.162639 L -9.403766,15.797733" />
      <path d="M -10.019415,16.807464 L -10.469262,17.545261" />
      <path d="M -11.082866,18.551637 L -11.689092,19.545913" />
      <path d="M -12.300509,20.548701 L -12.933381,21.586679" />
      <path d="M -13.542622,22.5859 L -14.080673,23.468361" />
      <path d="M -14.688066,24.464549 L -15.401201,25.634168" />
      <path d="M -16.006606,26.627097 L -16.613883,27.623095" />
      <path d="M -17.217395,28.61292 L -17.815944,29.594604" />
      <path d="M -18.416719,30.57994 L -18.979772,31.503406" />
      <path d="M -19.578831,32.485928 L -20.229847,33.553663" />
      <path d="M -20.826956,34.532986 L -21.612409,35.821213" />
      <path d="M -22.20744,36.797126 L -22.822587,37.806034" />
      <path d="M -23.415936,38.77919 L -23.945333,39.647458" />
      <path d="M -24.537232,40.618236 L -25.025008,41.41824" />
      <path d="M -25.615868,42.387313 L -26.002735,43.021816" />
      <path d="M -26.592114,43.988461 L -27.035321,44.715369" />
      <path d="M -27.623478,45.680009 L -28.014654,46.321578" />
      <path d="M -28.601776,47.284522 L -29.108833,48.116149" />
      <path d="M -29.694702,49.077037 L -30.153761,49.829944" />
      <path d="M -30.738393,50.788803 L -31.118313,51.411912" />
      <path d="M 87.144408,-58.851878 L -21.052084,57.330909" />
      <line x1="-30.625283" y1="51.837802" x2="-30.400253" y2="51.966925" />
      <line x1="-29.772648" y1="52.327045" x2="-29.48572" y2="52.491684" />
      <line x1="-28.857413" y1="52.852207" x2="-28.415329" y2="53.105875" />
      <line x1="-27.784984" y1="53.467567" x2="-27.202043" y2="53.802059" />
      <line x1="-26.566866" y1="54.166524" x2="-21.052084" y2="57.330909" />
      <path d="M 87.144408,-56.496781 L -20.641824,57.857098" />
      <path d="M 83.020773,-60.988578 C 83.025365,-58.549717 82.133676,-56.632589 80.476093,-55.517529" />
      <path d="M 51.341485,-72.338403 C 49.957401,-74.869995 49.103107,-77.346065 48.867002,-79.510394 C 48.626388,-81.67701 49.004373,-83.528168 49.961844,-84.872314 C 50.915096,-86.220166 52.446193,-87.058696 54.396702,-87.301133 C 56.344164,-87.54792 58.707693,-87.198195 61.242714,-86.288146 C 63.7765,-85.382179 66.477429,-83.917447 69.066014,-82.045519 C 71.655434,-80.176549 74.128066,-77.903592 76.228048,-75.46185 C 78.33076,-73.021324 80.057214,-70.416203 81.22876,-67.916059 C 82.40436,-65.415135 83.023037,-63.02348 83.020773,-60.988578" />
      <path d="M -73.962773,12.411092 C -73.962459,13.322167 -74.104345,14.150865 -74.379596,14.845594 C -74.654259,15.540914 -75.06212,16.101841 -75.577786,16.493453" />
      <path d="M -75.577786,16.493453 C -76.175967,16.949376 -76.919626,17.17555 -77.746701,17.153098 C -78.573286,17.132113 -79.482373,16.862528 -80.398094,16.36684 C -81.313779,15.872484 -82.235087,15.152572 -83.085129,14.267185 C -83.935594,13.382771 -84.713854,12.333859 -85.35496,11.207987 C -85.996877,10.082565 -86.500931,8.881426 -86.825055,7.704811 C -87.150242,6.528047 -87.295141,5.377108 -87.24766,4.348044 C -87.201313,3.318258 -86.962638,2.411485 -86.551553,1.7034 C -86.141484,0.994141 -85.559458,0.484353 -84.854049,0.216579" />
      <path d="M -84.854049,0.216579 C -83.890121,-0.153436 -82.694404,-0.062711 -81.450025,0.47486 C -80.206142,1.00765 -78.918391,1.985223 -77.783995,3.257862 C -76.647931,4.527364 -75.669596,6.087033 -74.998824,7.698003 C -74.324741,9.308456 -73.960811,10.964002 -73.962773,12.411092" />
      <line x1="44.57658" y1="-95.758391" x2="44.57658" y2="-72.735804" />
      <path d="M 44.57658,-95.758391 A 6.0,3.4641016151377553 60.00000000000001 0,1 45.81922,-98.505054" />
      <path d="M 45.81922,-98.505054 A 6.0,3.4641016151377553 60.00000000000001 0,1 48.81922,-98.207881" />
      <line x1="48.81922" y1="-98.207881" x2="82.901767" y2="-78.530313" />
      <line x1="72.723578" y1="-34.518753" x2="82.901767" y2="-28.642372" />
      <path d="M 87.144408,-71.181844 A 6.0,3.4641016151377553 -120.00000000000001 0,0 82.901767,-78.530313" />
      <path d="M 87.144408,-31.091862 A 6.0,3.4641016151377553 60.00000000000001 0,1 85.901767,-28.345199" />
      <path d="M 85.901767,-28.345199 A 6.0,3.4641016151377553 60.00000000000001 0,1 82.901767,-28.642372" />
      <line x1="87.144408" y1="-71.181844" x2="87.144408" y2="-31.091862" />
      <path d="M 56.779375,-104.832902 A 6.0,3.4641016151377553 60.00000000000001 0,1 59.779375,-104.535729" />
      <line x1="59.779375" y1="-104.535729" x2="93.861922" y2="-84.858162" />
      <path d="M 98.104563,-77.509692 A 6.0,3.4641016151377553 -120.00000000000001 0,0 93.861922,-84.858162" />
      <path d="M 98.104563,-37.41971 A 6.0,3.4641016151377553 60.00000000000001 0,1 96.861922,-34.673048" />
      <line x1="98.104563" y1="-77.509692" x2="98.104563" y2="-37.41971" />
      <line x1="93.839856" y1="-36.71662" x2="91.902384" y2="-35.59802" />
      <line x1="91.902384" y1="-35.59802" x2="90.768846" y2="-32.385499" />
      <line x1="92.706318" y1="-33.504099" x2="90.768846" y2="-32.385499" />
      <line x1="93.839856" y1="-36.71662" x2="92.706318" y2="-33.504099" />
      <line x1="87.144408" y1="-43.199119" x2="93.839856" y2="-36.71662" />
      <line x1="87.144408" y1="-40.204668" x2="91.902384" y2="-35.59802" />
      <line x1="87.144408" y1="-35.894661" x2="90.768846" y2="-32.385499" />
      <line x1="90.286496" y1="-30.098152" x2="88.349024" y2="-28.979552" />
      <line x1="88.349024" y1="-28.979552" x2="86.270889" y2="-26.876566" />
      <line x1="88.208362" y1="-27.995166" x2="86.270889" y2="-26.876566" />
      <line x1="90.286496" y1="-30.098152" x2="88.208362" y2="-27.995166" />
      <line x1="88.87812" y1="-32.092821" x2="90.286496" y2="-30.098152" />
      <line x1="87.130619" y1="-30.705166" x2="88.349024" y2="-28.979552" />
      <line x1="85.382456" y1="-28.134844" x2="86.270889" y2="-26.876566" />
      <line x1="84.545741" y1="-26.056994" x2="82.608269" y2="-24.938394" />
      <line x1="82.608269" y1="-24.938394" x2="79.715673" y2="-24.260986" />
      <line x1="83.518204" y1="-28.338459" x2="84.545741" y2="-26.056994" />
      <line x1="80.250695" y1="-30.172969" x2="82.608269" y2="-24.938394" />
      <line x1="75.929317" y1="-32.667918" x2="79.715673" y2="-24.260986" />
      <line x1="40.376227" y1="-65.846776" x2="39.920705" y2="-68.086591" />
      <line x1="41.858178" y1="-69.205192" x2="39.920705" y2="-68.086591" />
      <line x1="42.343912" y1="-69.073991" x2="41.858178" y2="-69.205192" />
      <line x1="41.484361" y1="-67.664235" x2="39.920705" y2="-68.086591" />
      <path d="M -70.808545,13.953101 A 0.3,0.17310689504901564 61.03255528925787 0,1 -70.873115,14.091799" />
      <path d="M -70.873115,14.091799 A 0.3,0.17310689504901564 61.03255528925787 0,1 -71.163702,13.566862" />
      <path d="M -71.163702,13.566862 A 0.3,0.17310689504901564 61.03255528925787 0,1 -70.808545,13.953101" />
      <path d="M -70.805756,15.715123 A 0.3,0.17301265511288252 61.02332547537546 0,1 -70.870244,15.853775" />
      <path d="M -70.870244,15.853775 A 0.3,0.17301265511288252 61.02332547537546 0,1 -71.160916,15.328885" />
      <path d="M -71.160916,15.328885 A 0.3,0.17301265511288252 61.02332547537546 0,1 -70.805756,15.715123" />
      <path d="M -70.842587,17.190567 A 0.3,0.17296140410209498 61.037052901500175 0,1 -70.907076,17.329219" />
      <path d="M -70.907076,17.329219 A 0.3,0.17296140410209498 61.037052901500175 0,1 -71.197623,16.80426" />
      <path d="M -71.197623,16.80426 A 0.3,0.17296140410209498 61.037052901500175 0,1 -70.842587,17.190567" />
      <path d="M -70.82142,18.859512 A 0.3,0.1729082606551596 61.04335749392725 0,1 -70.885892,18.998154" />
      <path d="M -70.885892,18.998154 A 0.3,0.1729082606551596 61.04335749392725 0,1 -71.176381,18.473163" />
      <path d="M -71.176381,18.473163 A 0.3,0.1729082606551596 61.04335749392725 0,1 -70.82142,18.859512" />
      <path d="M -70.634087,20.582757 A 0.3,0.17261363439154728 60.981008045477864 0,1 -70.698223,20.721212" />
      <path d="M -70.698223,20.721212 A 0.3,0.17261363439154728 60.981008045477864 0,1 -70.989283,20.196537" />
      <path d="M -70.989283,20.196537 A 0.3,0.17261363439154728 60.981008045477864 0,1 -70.634087,20.582757" />
      <path d="M -70.292609,22.012881 A 0.3,0.17255128688696478 60.98818944712184 0,1 -70.356724,22.151324" />
      <path d="M -70.356724,22.151324 A 0.30000007957498814,0.1725513326561868 60.98818944712184 0,1 -70.647718,21.626612" />
      <path d="M -70.647718,21.626612 A 0.3,0.17255128688696478 60.98818944712184 0,1 -70.292609,22.012881" />
      <path d="M -69.910128,23.563035 A 0.3,0.17248055874553456 60.99709618012045 0,1 -69.97422,23.701466" />
      <path d="M -69.97422,23.701466 A 0.3,0.17248055874553456 60.99709618012045 0,1 -70.265132,23.176709" />
      <path d="M -70.265132,23.176709 A 0.3,0.17248055874553456 60.99709618012045 0,1 -69.910128,23.563035" />
      <path d="M -69.42017,25.008681 A 0.3,0.17240705169955317 61.00716911929098 0,1 -69.484241,25.147098" />
      <path d="M -69.484241,25.147098 A 0.3,0.17240705169955317 61.00716911929098 0,1 -69.775061,24.62229" />
      <path d="M -69.775061,24.62229 A 0.3,0.17240705169955317 61.00716911929098 0,1 -69.42017,25.008681" />
      <path d="M -68.777479,26.19713 A 0.3,0.1723347324101919 61.01828400962286 0,1 -68.841532,26.335537" />
      <path d="M -68.841532,26.335537 A 0.3,0.1723347324101919 61.01828400962286 0,1 -69.13225,25.810673" />
      <path d="M -69.13225,25.810673 A 0.3,0.1723347324101919 61.01828400962286 0,1 -68.777479,26.19713" />
      <path d="M -67.99479,27.405998 A 0.3,0.1722551359266902 61.03163029438582 0,1 -68.058825,27.544394" />
      <path d="M -68.058825,27.544394 A 0.30000009209793665,0.1722551888078322 61.03163029438582 0,1 -68.349422,27.019462" />
      <path d="M -68.349422,27.019462 A 0.3,0.1722551359266902 61.03163029438582 0,1 -67.99479,27.405998" />
      <path d="M -67.177452,28.365424 A 0.3,0.17218052507648807 61.045635554309165 0,1 -67.241474,28.503813" />
      <path d="M -67.241474,28.503813 A 0.3,0.17218052507648807 61.045635554309165 0,1 -67.531942,27.97881" />
      <path d="M -67.531942,27.97881 A 0.3,0.17218052507648807 61.045635554309165 0,1 -67.177452,28.365424" />
      <path d="M -66.232134,29.275457 A 0.3,0.17209896850806553 61.06101821418061 0,1 -66.296143,29.413838" />
      <path d="M -66.296143,29.413838 A 0.3,0.17209896850806553 61.06101821418061 0,1 -66.58647,28.888757" />
      <path d="M -66.58647,28.888757 A 0.3,0.17209896850806553 61.06101821418061 0,1 -66.232134,29.275457" />
      <path d="M -64.956622,30.175297 A 0.3,0.17199944015769436 61.082450120123184 0,1 -65.020621,30.313671" />
      <path d="M -65.020621,30.313671 A 0.3,0.17199944015769436 61.082450120123184 0,1 -65.310751,29.788481" />
      <path d="M -65.310751,29.788481 A 0.3,0.17199944015769436 61.082450120123184 0,1 -64.956622,30.175297" />
      <path d="M -63.683227,30.820796 A 0.3,0.1719050145933403 61.10358944243163 0,1 -63.747218,30.959165" />
      <path d="M -63.747218,30.959165 A 0.3,0.1719050145933403 61.10358944243163 0,1 -64.037155,30.433869" />
      <path d="M -64.037155,30.433869 A 0.3,0.1719050145933403 61.10358944243163 0,1 -63.683227,30.820796" />
      <path d="M -61.950251,31.537352 A 0.3,0.17177946099552593 61.13351641112354 0,1 -62.014237,31.675717" />
      <path d="M -62.014237,31.675717 A 0.3,0.17177946099552593 61.13351641112354 1,1 -62.303899,31.150269" />
      <path d="M -62.303899,31.150269 A 0.3,0.17177946099552593 61.13351641112354 0,1 -61.950251,31.537352" />
      <path d="M -59.882838,31.971821 A 0.3,0.17164111234835744 61.17055846384968 0,1 -59.946826,32.110187" />
      <path d="M -59.946826,32.110187 A 0.300000417843532,0.1716413514121195 61.17055846384968 0,1 -60.236149,31.584551" />
      <path d="M -60.236149,31.584551 A 0.3,0.17164111234835744 61.17055846384968 0,1 -59.882838,31.971821" />
      <path d="M -56.931618,32.236503 A 0.3,0.17144514886019305 61.226823321480346 0,1 -56.995621,32.374873" />
      <path d="M -56.995621,32.374873 A 0.3,0.17144514886019305 61.226823321480346 0,1 -57.284427,31.848954" />
      <path d="M -57.284427,31.848954 A 0.3,0.17144514886019305 61.226823321480346 0,1 -56.931618,32.236503" />
      <path d="M -53.892048,32.406083 A 0.3,0.17122095151908903 61.29220469208304 0,1 -53.956069,32.544461" />
      <path d="M -53.956069,32.544461 A 0.3,0.17122095151908903 61.29220469208304 0,1 -54.244274,32.018213" />
      <path d="M -54.244274,32.018213 A 0.3,0.17122095151908903 61.29220469208304 0,1 -53.892048,32.406083" />
      <path d="M -50.694824,32.200499 A 0.3,0.17098332715127182 61.367944567499805 0,1 -50.75888,32.338894" />
      <path d="M -50.75888,32.338894 A 0.3000000432254465,0.170983351787374 61.367944567499805 0,1 -51.04639,31.812265" />
      <path d="M -51.04639,31.812265 A 0.3,0.17098332715127182 61.367944567499805 0,1 -50.694824,32.200499" />
      <path d="M -47.583195,31.955335 A 0.3,0.1707178044854464 61.45148818557306 0,1 -47.647287,32.093746" />
      <path d="M -47.647287,32.093746 A 0.3,0.1707178044854464 61.45148818557306 0,1 -47.934029,31.566699" />
      <path d="M -47.934029,31.566699 A 0.3,0.1707178044854464 61.45148818557306 0,1 -47.583195,31.955335" />
      <path d="M -44.635662,31.781231 A 0.3,0.17041711488824543 61.54603382726622 0,1 -44.699794,31.91966" />
      <path d="M -44.699794,31.91966 A 0.3,0.17041711488824543 61.54603382726622 0,1 -44.985665,31.39214" />
      <path d="M -44.985665,31.39214 A 0.3,0.17041711488824543 61.54603382726622 0,1 -44.635662,31.781231" />
      <path d="M -41.795639,31.460173 A 0.3,0.17009690531828603 61.648457636574776 0,1 -41.859818,31.598624" />
      <path d="M -41.859818,31.598624 A 0.3,0.17009690531828603 61.648457636574776 1,1 -42.144746,31.070594" />
      <path d="M -42.144746,31.070594 A 0.3,0.17009690531828603 61.648457636574776 0,1 -41.795639,31.460173" />
      <path d="M -39.278097,31.312233 A 0.3,0.16974381475099537 61.75962492440209 0,1 -39.342323,31.450706" />
      <path d="M -39.342323,31.450706 A 0.3,0.16974381475099537 61.75962492440209 1,1 -39.626226,30.922124" />
      <path d="M -39.626226,30.922124 A 0.3,0.16974381475099537 61.75962492440209 0,1 -39.278097,31.312233" />
      <path d="M -37.389843,31.343085 A 0.3,0.16941049268713468 61.85881995183085 0,1 -37.454099,31.48157" />
      <path d="M -37.454099,31.48157 A 0.3,0.16941049268713468 61.85881995183085 1,1 -37.737086,30.952497" />
      <path d="M -37.737086,30.952497 A 0.3,0.16941049268713468 61.85881995183085 0,1 -37.389843,31.343085" />
      <path d="M -35.612667,31.505835 A 0.3,0.1690247643029831 61.97133716195587 0,1 -35.676952,31.64433" />
      <path d="M -35.676952,31.64433 A 0.3,0.1690247643029831 61.97133716195587 0,1 -35.9589,31.114703" />
      <path d="M -35.9589,31.114703 A 0.3,0.1690247643029831 61.97133716195587 0,1 -35.612667,31.505835" />
      <path d="M -34.163656,32.023795 A 0.3,0.1685662778847739 62.09263966656936 0,1 -34.227944,32.162287" />
      <path d="M -34.227944,32.162287 A 0.3,0.1685662778847739 62.09263966656936 0,1 -34.50877,31.632064" />
      <path d="M -34.50877,31.632064 A 0.3,0.1685662778847739 62.09263966656936 0,1 -34.163656,32.023795" />
      <path d="M -33.088019,32.780182 A 0.3,0.16807736637734408 62.21427888810284 0,1 -33.152291,32.91866" />
      <path d="M -33.152291,32.91866 A 0.3,0.16807736637734408 62.21427888810284 0,1 -33.43199,32.387842" />
      <path d="M -33.43199,32.387842 A 0.3,0.16807736637734408 62.21427888810284 0,1 -33.088019,32.780182" />
      <path d="M -32.487502,33.697388 A 0.3,0.1676169940390056 62.31846957287159 0,1 -32.551733,33.83584" />
      <path d="M -32.551733,33.83584 A 0.3,0.1676169940390056 62.31846957287159 0,1 -32.830467,33.304514" />
      <path d="M -32.830467,33.304514 A 0.3,0.1676169940390056 62.31846957287159 0,1 -32.487502,33.697388" />
      <path d="M -32.171311,34.96164 A 0.3,0.16708049258806978 62.43131973208068 0,1 -32.235472,35.10005" />
      <path d="M -32.235472,35.10005 A 0.30000000910208974,0.16708049765734193 62.43131973208068 0,1 -32.513159,34.568176" />
      <path d="M -32.513159,34.568176 A 0.3,0.16708049258806978 62.43131973208068 0,1 -32.171311,34.96164" />
      <path d="M -31.969667,36.174449 A 0.3,0.1665360708655933 62.53960563317357 0,1 -32.033743,36.31281" />
      <path d="M -32.033743,36.31281 A 0.3000000025688054,0.16653607229158915 62.53960563317357 1,1 -32.310424,35.780412" />
      <path d="M -32.310424,35.780412 A 0.3,0.1665360708655933 62.53960563317357 0,1 -31.969667,36.174449" />
      <path d="M -31.949299,37.460059 A 0.3,0.16576874045708564 62.69761753304862 0,1 -32.013264,37.598356" />
      <path d="M -32.013264,37.598356 A 0.30000006842707977,0.16576877826732175 62.69761753304862 0,1 -32.288476,37.065197" />
      <path d="M -32.288476,37.065197 A 0.3,0.16576874045708564 62.69761753304862 0,1 -31.949299,37.460059" />
      <path d="M -32.130908,38.832081 A 0.3,0.16520003531947788 62.79755248546547 0,1 -32.194749,38.97031" />
      <path d="M -32.194749,38.97031 A 0.3,0.16520003531947788 62.79755248546547 0,1 -32.46903,38.436672" />
      <path d="M -32.46903,38.436672 A 0.3,0.16520003531947788 62.79755248546547 0,1 -32.130908,38.832081" />
      <path d="M -32.35859,40.325409 A 0.3,0.16451093318694346 62.91197283465592 0,1 -32.422263,40.463547" />
      <path d="M -32.422263,40.463547 A 0.30000002102097706,0.164510944714212 62.91197283465592 1,1 -32.695478,39.929362" />
      <path d="M -32.695478,39.929362 A 0.3,0.16451093318694346 62.91197283465592 0,1 -32.35859,40.325409" />
      <path d="M -32.792827,42.076789 A 0.3,0.16373233281627866 63.034916477157864 0,1 -32.856293,42.214817" />
      <path d="M -32.856293,42.214817 A 0.3,0.16373233281627866 63.034916477157864 0,1 -33.128361,41.680047" />
      <path d="M -33.128361,41.680047 A 0.3,0.16373233281627866 63.034916477157864 0,1 -32.792827,42.076789" />
      <path d="M -33.336567,43.6987 A 0.3,0.16302904360219825 63.13509238892371 0,1 -33.399819,43.836616" />
      <path d="M -33.399819,43.836616 A 0.30000013071417203,0.16302911463621975 63.13509238892371 0,1 -33.670952,43.301371" />
      <path d="M -33.670952,43.301371 A 0.3,0.16302904360219825 63.13509238892371 0,1 -33.336567,43.6987" />
      <path d="M -33.943893,45.259346 A 0.3,0.16236470101418618 63.222051945900745 0,1 -34.006923,45.397147" />
      <path d="M -34.006923,45.397147 A 0.3000001053069328,0.16236475800794836 63.222051945900745 0,1 -34.277243,44.861491" />
      <path d="M -34.277243,44.861491 A 0.3,0.16236470101418618 63.222051945900745 0,1 -33.943893,45.259346" />
      <path d="M -34.715171,46.860765 A 0.3,0.16176670903334534 63.28464286865346 0,1 -34.777962,46.998444" />
      <path d="M -34.777962,46.998444 A 0.3000001852608402,0.16176680893013345 63.28464286865346 0,1 -35.047697,46.462493" />
      <path d="M -35.047697,46.462493 A 0.3,0.16176670903334534 63.28464286865346 0,1 -34.715171,46.860765" />
      <path d="M -35.237665,48.216477 A 0.3,0.1610830512444186 63.374335444847 0,1 -35.300226,48.354039" />
      <path d="M -35.300226,48.354039 A 0.3,0.1610830512444186 63.374335444847 0,1 -35.569122,47.817667" />
      <path d="M -35.569122,47.817667 A 0.3,0.1610830512444186 63.374335444847 0,1 -35.237665,48.216477" />
      <path d="M -35.944688,49.731798 A 0.3,0.16038958083201343 63.44880423231621 0,1 -36.006974,49.869223" />
      <path d="M -36.006974,49.869223 A 0.30000005643459304,0.16038961100374918 63.44880423231621 0,1 -36.275173,49.332502" />
      <path d="M -36.275173,49.332502 A 0.3,0.16038958083201343 63.44880423231621 0,1 -35.944688,49.731798" />
      <path d="M -36.698321,51.212796 A 0.3,0.1597475925810564 63.51206371251466 0,1 -36.76034,51.350087" />
      <path d="M -36.76034,51.350087 A 0.3,0.1597475925810564 63.51206371251466 0,1 -37.027945,50.81307" />
      <path d="M -37.027945,50.81307 A 0.3,0.1597475925810564 63.51206371251466 0,1 -36.698321,51.212796" />
      <path d="M -37.536933,52.865319 A 0.3,0.15896279610830052 63.589122618126275 0,1 -37.598622,53.002448" />
      <path d="M -37.598622,53.002448 A 0.3000002399242285,0.1589629232383879 63.589122618126275 0,1 -37.865505,52.465071" />
      <path d="M -37.865505,52.465071 A 0.3,0.15896279610830052 63.589122618126275 0,1 -37.536933,52.865319" />
      <path d="M -38.347266,54.448441 A 0.3,0.1581696807982438 63.66554891634316 0,1 -38.408618,54.585404" />
      <path d="M -38.408618,54.585404 A 0.30000001807501575,0.15816969032797537 63.66554891634316 0,1 -38.674784,54.047672" />
      <path d="M -38.674784,54.047672 A 0.3,0.1581696807982438 63.66554891634316 0,1 -38.347266,54.448441" />
      <path d="M -39.0198,55.869528 A 0.3,0.1573000976130335 63.75697977012846 0,1 -39.080799,56.00632" />
      <path d="M -39.080799,56.00632 A 0.3,0.1573000976130335 63.75697977012846 0,1 -39.346106,55.468164" />
      <path d="M -39.346106,55.468164 A 0.3,0.1573000976130335 63.75697977012846 0,1 -39.0198,55.869528" />
      <path d="M -39.599578,57.049277 A 0.3,0.15655787045022232 63.8300298892449 0,1 -39.660262,57.185919" />
      <path d="M -39.660262,57.185919 A 0.30000024621687044,0.15655799894085198 63.8300298892449 0,1 -39.924884,56.647425" />
      <path d="M -39.924884,56.647425 A 0.3,0.15655787045022232 63.8300298892449 0,1 -39.599578,57.049277" />
      <path d="M -40.18374,58.287881 A 0.3,0.15568012429120853 63.92483412436358 0,1 -40.244071,58.424354" />
      <path d="M -40.244071,58.424354 A 0.3000000565254114,0.1556801536241521 63.92483412436358 0,1 -40.507801,57.885423" />
      <path d="M -40.507801,57.885423 A 0.3,0.15568012429120853 63.92483412436358 0,1 -40.18374,58.287881" />
      <path d="M -40.668536,59.589032 A 0.3,0.1538602265335345 64.19772242423353 0,1 -40.72831,59.72525" />
      <path d="M -40.72831,59.72525 A 0.3000000243171176,0.1538602390049919 64.19772242423353 0,1 -40.98947,59.185069" />
      <path d="M -40.98947,59.185069 A 0.3,0.1538602265335345 64.19772242423353 0,1 -40.668536,59.589032" />
      <path d="M -41.053402,60.865816 A 0.3,0.1515593804050437 64.83044156281304 0,1 -41.113138,61.002043" />
      <path d="M -41.113138,61.002043 A 0.300000031277105,0.15155939620617256 64.83044156281304 0,1 -41.368317,60.459011" />
      <path d="M -41.368317,60.459011 A 0.3,0.1515593804050437 64.83044156281304 0,1 -41.053402,60.865816" />
      <line x1="-48.506957" y1="60.42924" x2="-45.862378" y2="61.956089" />
      <path d="M -58.879778,0.094477 C -60.769858,1.289576 -69.06131,5.705227 -74.147465,10.507752" />
      <path d="M -77.808296,17.151034 C -77.781255,17.463578 -77.75336,17.775142 -77.724609,18.085727 C -77.658631,18.895811 -77.656796,19.704587 -77.59733,20.486227 C -77.53754,21.272128 -77.419489,22.030596 -77.286203,22.772418 C -77.151598,23.522039 -77.000749,24.256886 -76.833655,24.976958 C -76.663908,25.70827 -76.476765,26.4267 -76.246756,27.103932 C -76.008642,27.805029 -75.724588,28.461974 -75.41237,29.088019 C -75.086372,29.741696 -74.72967,30.361685 -74.330497,30.929218 C -73.901383,31.53712 -73.427621,32.085533 -72.909212,32.574459 C -72.344378,33.110856 -71.731554,33.570837 -71.070741,33.954402" />
      <path d="M -39.913184,35.780999 C -39.660196,36.385002 -39.617562,37.224703 -39.745904,38.102141 C -39.887261,39.068561 -40.23603,40.080759 -40.629787,41.078271 C -41.068166,42.188823 -41.562307,43.281171 -42.065214,44.372835 C -42.581597,45.493749 -43.107221,46.613941 -43.620849,47.736801 C -44.12768,48.846627 -44.625011,49.958423 -45.112844,51.072189 C -45.592884,52.158988 -46.057217,53.249011 -46.505845,54.342258 C -47.333504,56.371465 -48.071541,58.414786 -48.506957,60.42924" />
      <path d="M -74.584481,15.76254 C -74.839114,16.236204 -75.013724,16.703053 -75.108314,17.163086 C -75.274839,17.999161 -75.145681,18.806516 -75.08003,19.612576 C -75.014051,20.42266 -75.012216,21.231435 -74.952751,22.013076 C -74.892961,22.798976 -74.77491,23.557445 -74.641624,24.299266 C -74.507019,25.048887 -74.35617,25.783734 -74.189075,26.503807 C -74.019328,27.235119 -73.832186,27.953548 -73.602177,28.630781 C -73.364063,29.331877 -73.080008,29.988822 -72.767791,30.614867 C -72.441793,31.268545 -72.08509,31.888534 -71.685917,32.456067 C -71.256804,33.063968 -70.783042,33.612382 -70.264633,34.101308 C -69.699799,34.637704 -69.086975,35.097685 -68.426162,35.48125" />
      <path d="M -68.426162,35.48125 C -66.727739,36.461477 -64.73257,36.885427 -62.684448,37.13051 C -61.43365,37.281193 -60.158501,37.366925 -58.859,37.387706 C -57.359902,37.408463 -55.834908,37.349948 -54.284019,37.21216 C -52.513809,37.05789 -50.716939,36.81103 -48.92415,36.583457 C -47.115944,36.357214 -45.312822,36.140842 -43.514783,35.934343 C -42.025686,35.760605 -40.540717,35.586956 -39.194361,35.905765 C -38.839195,35.989866 -38.493674,36.108237 -38.187928,36.28476" />
      <path d="M -38.187928,36.28476 C -37.804792,36.505964 -37.484112,36.818484 -37.285172,37.269314 C -37.017524,37.875851 -36.97023,38.732734 -37.101325,39.62899 C -37.242682,40.59541 -37.591451,41.607608 -37.985208,42.60512 C -38.423587,43.715671 -38.917728,44.80802 -39.420635,45.899683 C -39.937017,47.020598 -40.462642,48.14079 -40.97627,49.263649 C -41.4831,50.373476 -41.980432,51.485272 -42.468265,52.599038 C -42.948304,53.685837 -43.412638,54.775859 -43.861265,55.869107 C -44.688925,57.898314 -45.426962,59.941635 -45.862378,61.956089" />
      <line x1="-45.862378" y1="61.956089" x2="-36.97103" y2="56.822667" />
      <line x1="-50.629803" y1="-3.258374" x2="-49.45448" y2="-2.579801" />
      <path d="M -32.14755,19.916701 Q -32.752742,19.624373 -33.401952,19.418524" />
      <path d="M -34.227193,19.187186 Q -35.049252,18.990028 -35.908319,18.878816" />
      <path d="M -36.947758,18.766062 Q -37.68416,18.703381 -38.434111,18.67678" />
      <path d="M -39.629853,18.650823 Q -40.544903,18.644667 -41.467932,18.66216" />
      <path d="M -42.759533,18.689729 L -44.032435,18.719181" />
      <path d="M -45.310028,18.739495 Q -46.152802,18.748143 -46.989876,18.739062" />
      <path d="M -48.185406,18.714483 Q -48.820431,18.695888 -49.450498,18.66063" />
      <path d="M -50.529259,18.571765 Q -51.056207,18.513978 -51.564011,18.41307" />
      <path d="M -52.41354,18.197556 Q -52.549359,18.155099 -52.6829,18.107832" />
      <path d="M -34.896264,55.139375 L -34.670726,54.73401" />
      <path d="M -34.164671,53.816798 L -33.98922,53.496203" />
      <path d="M -33.49361,52.582919 L -33.178907,51.996806" />
      <path d="M -32.696792,51.088691 L -32.328037,50.384859" />
      <path d="M -31.862677,49.483821 L -31.471804,48.714711" />
      <path d="M -31.025742,47.82206 L -30.737025,47.235841" />
      <path d="M -30.306639,46.350039 L -29.99148,45.692642" />
      <path d="M -29.574776,44.812563 L -29.309718,44.246367" />
      <path d="M -28.904411,43.370679 L -28.57855,42.6577" />
      <path d="M -28.1858,41.787424 L -27.846968,41.023769" />
      <path d="M -27.47774,40.164144 Q -27.296323,39.732339 -27.126228,39.2996" />
      <path d="M -26.813071,38.467092 Q -26.624083,37.939902 -26.456683,37.412378" />
      <path d="M -26.214232,36.61445 Q -26.092568,36.19509 -25.981916,35.777012" />
      <path d="M -25.785147,35.001261 Q -25.700085,34.649668 -25.624422,34.300492" />
      <path d="M -25.473183,33.547203 Q -25.407707,33.192502 -25.355412,32.842156" />
      <path d="M -25.261633,32.117234 Q -25.223418,31.768796 -25.198631,31.426175" />
      <path d="M -25.16134,30.729854 Q -25.147828,30.336835 -25.151178,29.953504" />
      <path d="M -25.169908,29.28578 Q -25.183325,29.005633 -25.20593,28.73155" />
      <path d="M -25.272575,28.088469 Q -25.312042,27.773353 -25.364208,27.467722" />
      <path d="M -25.485036,26.852758 Q -25.548768,26.567362 -25.625521,26.293438" />
      <path d="M -25.808979,25.711379 Q -25.877501,25.51707 -25.9536,25.330249" />
      <path d="M -26.200357,24.781798 Q -26.277078,24.626709 -26.35902,24.477336" />
      <path d="M -26.667392,23.961896 Q -26.804301,23.751552 -26.951491,23.554009" />
      <path d="M -27.335983,23.079704 Q -27.508976,22.883629 -27.693354,22.703601" />
      <path d="M -28.170915,22.279961 Q -28.470762,22.039434 -28.793999,21.836568" />
      <path d="M -29.410902,21.489145 Q -29.80891,21.289619 -30.228444,21.130432" />
      <path d="M -31.003063,20.869737 Q -31.556717,20.707055 -32.13203,20.592289" />
      <path d="M -33.085111,20.430167 Q -33.985129,20.304737 -34.911293,20.247372" />
      <path d="M -36.061803,20.194653 Q -37.159985,20.165168 -38.273984,20.180934" />
      <path d="M -39.559712,20.203744 L -41.276433,20.243657" />
      <path d="M -42.558407,20.265237 Q -43.469003,20.275686 -44.372972,20.265591" />
      <path d="M -45.569105,20.240467 Q -46.136951,20.223372 -46.701057,20.193407" />
      <path d="M -47.789156,20.109038 Q -48.45751,20.040935 -49.094746,19.902882" />
      <path d="M -49.922132,19.674749 Q -50.328274,19.537952 -50.713824,19.359589" />
      <path d="M -51.355515,19.028906 L -51.3974,19.004877" />
      <path d="M -51.3974,19.004877 Q -51.693171,18.833916 -51.975935,18.641105" />
      <path d="M -52.508346,18.250039 Q -52.856383,17.974847 -53.176529,17.658819" />
      <path d="M -53.59789,17.206316 Q -53.843255,16.920491 -54.0636,16.60182" />
      <path d="M -54.384142,16.093482 Q -54.605275,15.709297 -54.785758,15.281357" />
      <path d="M -54.999247,14.713679 Q -55.149422,14.264415 -55.259865,13.77893" />
      <path d="M -55.383049,13.161155 Q -55.456385,12.736394 -55.502065,12.291258" />
      <path d="M -55.552745,11.633234 Q -55.581349,11.090145 -55.565717,10.521192" />
      <path d="M -55.530128,9.815775 Q -55.492253,9.294651 -55.422307,8.758958" />
      <path d="M -55.311294,8.011749 Q -55.240037,7.582441 -55.148434,7.147399" />
      <path d="M -54.964645,6.359763 Q -54.80151,5.720245 -54.582954,5.074112" />
      <path d="M -54.266048,4.212887 Q -53.980359,3.492755 -53.630974,2.787066" />
      <path d="M -53.114426,1.81549 Q -52.620396,0.946233 -52.037731,0.145555" />
      <path d="M -51.030996,-1.097018 Q -50.29321,-1.917285 -49.45448,-2.579801" />
      <line x1="-49.45448" y1="-2.579801" x2="-55.050942" y2="0.651318" />
      <line x1="-47.707926" y1="60.890561" x2="-49.327201" y2="61.825449" />
      <line x1="-49.327201" y1="61.825449" x2="-49.327201" y2="73.50135" />
      <line x1="-25.639124" y1="59.988332" x2="-39.074153" y2="67.745049" />
      <line x1="-39.074153" y1="67.745049" x2="-39.074153" y2="79.42095" />
      <line x1="-25.639124" y1="71.664233" x2="-39.074153" y2="79.42095" />
      <line x1="-25.639124" y1="59.988332" x2="-25.639124" y2="71.664233" />
      <line x1="-34.687509" y1="54.764244" x2="-34.431605" y2="54.91199" />
      <line x1="-33.805389" y1="55.273536" x2="-33.392255" y2="55.512059" />
      <line x1="-32.76402" y1="55.874771" x2="-32.247487" y2="56.172992" />
      <line x1="-31.614463" y1="56.538468" x2="-25.639124" y2="59.988332" />
      <line x1="-49.327201" y1="61.825449" x2="-39.074153" y2="67.745049" />
      <line x1="-49.327201" y1="73.50135" x2="-39.074153" y2="79.42095" />
      <line x1="59.779375" y1="-104.535729" x2="48.81922" y2="-98.207881" />
      <line x1="93.861922" y1="-84.858162" x2="82.901767" y2="-78.530313" />
      <line x1="98.104563" y1="-77.509692" x2="87.144408" y2="-71.181844" />
      <line x1="98.104563" y1="-37.41971" x2="93.060343" y2="-34.507429" />
      <line x1="90.251919" y1="-32.885984" x2="87.144408" y2="-31.091862" />
      <path d="M 78.489846,-40.378072 Q 26.424109,12.526743 -25.639124,65.43463" />
      <path d="M -84.854049,0.216579 C -83.190263,-0.415335 -81.620459,-1.098164 -80.053359,-1.79685 C -78.487531,-2.494962 -76.900647,-3.201233 -75.257822,-3.841556 C -73.304458,-4.607693 -71.297112,-5.276694 -69.272008,-5.891048 C -67.246103,-6.50566 -65.200017,-7.07405 -63.147526,-7.645965 C -59.00936,-8.796394 -54.839564,-9.968669 -50.778498,-11.399413 C -46.720119,-12.82444 -42.779455,-14.517231 -39.14312,-16.564208 C -36.853681,-17.850038 -34.691968,-19.281364 -32.82196,-20.801066 C -30.941129,-22.321297 -29.347476,-23.930877 -27.811483,-25.623627 C -26.662618,-26.886086 -25.528421,-28.203805 -24.292699,-29.537517 C -23.060006,-30.869879 -21.720757,-32.212508 -20.243594,-33.488311 C -19.050328,-34.521324 -17.770917,-35.509829 -16.424741,-36.436092 C -15.078737,-37.363145 -13.667073,-38.229236 -12.213559,-39.038469 C -9.304252,-40.657977 -6.23861,-42.050975 -3.13029,-43.324651 C 0.379148,-44.760339 3.945259,-46.048341 7.499514,-47.314128 C 11.054218,-48.579162 14.597067,-49.82198 18.072107,-51.146981 C 22.806189,-52.949176 27.408763,-54.921757 31.680836,-57.250408 C 34.15558,-58.593663 36.512377,-60.050809 38.804588,-61.597905 C 41.098896,-63.143158 43.346046,-64.776031 45.658126,-66.420944 C 47.233019,-67.543099 48.837139,-68.667893 50.458598,-69.780479 C 52.077571,-70.893997 53.718125,-71.99529 55.298758,-73.095585 C 55.909936,-73.522855 56.488325,-73.9317 57.04991,-74.347093 C 57.609573,-74.760818 58.153727,-75.179404 58.644248,-75.5892 C 59.133413,-75.996714 59.564842,-76.399095 59.856243,-76.717117 C 60.151701,-77.033571 60.287734,-77.258309 60.283592,-77.256769" />
      <path d="M 69.729429,-62.989533 C 69.729829,-62.990882 69.595538,-63.003512 69.393858,-62.99655 C 69.191162,-62.990586 68.920235,-62.966889 68.620069,-62.921953 C 68.015423,-62.832893 67.305902,-62.661958 66.605812,-62.455741 C 65.901589,-62.24883 65.197568,-62.008362 64.498657,-61.752834 C 63.797597,-61.495667 63.102345,-61.227063 62.363101,-60.930532 C 60.329948,-60.11346 58.27635,-59.242855 56.192916,-58.391108 C 54.110793,-57.53618 51.998835,-56.70011 49.884383,-55.866233 C 47.455874,-54.906825 45.025216,-53.948768 42.649817,-52.913833 C 40.273658,-51.880868 37.952758,-50.771026 35.723219,-49.561224 C 32.613233,-47.879631 29.687098,-46.015152 26.894217,-44.042602 C 24.098655,-42.06988 21.427104,-39.992336 18.753868,-37.879935 C 15.537846,-35.340763 12.32305,-32.746411 8.853228,-30.239377 C 7.118626,-28.987317 5.320014,-27.759557 3.429052,-26.590089 C 1.53878,-25.420998 -0.445575,-24.310482 -2.533692,-23.303293 C -5.289801,-21.969404 -8.230471,-20.831352 -11.249471,-19.924934 C -14.267515,-19.009916 -17.34685,-18.328413 -20.354483,-17.675442 C -22.325119,-17.24635 -24.273487,-16.819339 -26.179562,-16.325857 C -28.085825,-15.83369 -29.948453,-15.272139 -31.753454,-14.613833 C -33.559128,-13.954453 -35.306851,-13.208025 -36.996625,-12.374547 C -38.68555,-11.543947 -40.319214,-10.636419 -41.882307,-9.675589 C -43.649647,-8.589667 -45.32399,-7.436251 -46.920807,-6.232807 C -48.51883,-5.029083 -50.044017,-3.773645 -51.541085,-2.478069 C -53.038433,-1.182553 -54.507114,0.152988 -55.997972,1.51513 C -57.48953,2.877011 -59.002208,4.266584 -60.607555,5.664746 C -61.766647,6.673787 -62.964137,7.676777 -64.225251,8.659884 C -65.483746,9.642849 -66.81284,10.604895 -68.16491,11.517077 C -69.515037,12.430542 -70.877347,13.290201 -72.136544,14.108354 C -73.398138,14.926978 -74.551722,15.711546 -75.577786,16.493453" />
      <line x1="56.779375" y1="-104.832902" x2="45.81922" y2="-98.505054" />
      <line x1="96.861922" y1="-34.673048" x2="89.895969" y2="-30.651253" />
      <line x1="47.538819" y1="-54.936919" x2="23.895593" y2="-41.858264" />
      <line x1="-19.473398" y1="-17.867963" x2="-58.292289" y2="3.605372" />
      <line x1="42.613031" y1="-52.897816" x2="28.013144" y2="-44.821638" />
      <line x1="-21.522359" y1="-17.420226" x2="-56.373624" y2="1.858348" />
      <line x1="59.084309" y1="-59.585441" x2="16.18654" y2="-35.847388" />
      <line x1="-13.965265" y1="-19.162484" x2="-64.179751" y2="8.624372" />
      <line x1="54.286069" y1="-57.616008" x2="19.066223" y2="-38.126636" />
      <line x1="-16.21349" y1="-18.604136" x2="-61.575197" y2="6.49737" />
      <line x1="63.151197" y1="-60.099571" x2="7.604962" y2="-29.351035" />
      <line x1="-6.344349" y1="-21.629164" x2="-70.873115" y2="14.091799" />
      <line x1="62.86061" y1="-60.624508" x2="11.463167" y2="-32.172605" />
      <line x1="-9.894298" y1="-20.349828" x2="-71.163702" y2="13.566862" />
      <line x1="60.783139" y1="-57.052837" x2="-70.870244" y2="15.853775" />
      <line x1="60.492467" y1="-57.577728" x2="-71.160916" y2="15.328885" />
      <line x1="58.610844" y1="-54.354281" x2="-70.907076" y2="17.329219" />
      <line x1="58.320298" y1="-54.879241" x2="-71.197623" y2="16.80426" />
      <line x1="56.294334" y1="-51.373236" x2="-70.885892" y2="18.998154" />
      <line x1="56.003845" y1="-51.898228" x2="-71.176381" y2="18.473163" />
      <line x1="54.045312" y1="-48.479322" x2="-70.698223" y2="20.721212" />
      <line x1="53.754253" y1="-49.003998" x2="-70.989283" y2="20.196537" />
      <line x1="51.803751" y1="-45.596255" x2="-70.356724" y2="22.151324" />
      <line x1="51.512757" y1="-46.120967" x2="-70.647718" y2="21.626612" />
      <line x1="49.364192" y1="-42.456803" x2="-69.97422" y2="23.701466" />
      <line x1="49.073279" y1="-42.98156" x2="-70.265132" y2="23.176709" />
      <line x1="46.983317" y1="-39.392874" x2="-69.484241" y2="25.147098" />
      <line x1="46.692497" y1="-39.917682" x2="-69.775061" y2="24.62229" />
      <line x1="44.835783" y1="-36.629413" x2="-68.841532" y2="26.335537" />
      <line x1="44.545065" y1="-37.154278" x2="-69.13225" y2="25.810673" />
      <line x1="42.547524" y1="-33.685909" x2="-68.058825" y2="27.544394" />
      <line x1="42.256928" y1="-34.210841" x2="-68.349422" y2="27.019462" />
      <line x1="40.576046" y1="-31.148202" x2="-67.241474" y2="28.503813" />
      <line x1="40.285579" y1="-31.673205" x2="-67.531942" y2="27.97881" />
      <line x1="38.570621" y1="-28.56885" x2="-66.296143" y2="29.413838" />
      <line x1="38.280294" y1="-29.093932" x2="-66.58647" y2="28.888757" />
      <line x1="36.316974" y1="-25.668192" x2="-65.020621" y2="30.313671" />
      <line x1="36.026843" y1="-26.193382" x2="-65.310751" y2="29.788481" />
      <line x1="34.416174" y1="-23.221915" x2="-63.747218" y2="30.959165" />
      <line x1="34.126237" y1="-23.747212" x2="-64.037155" y2="30.433869" />
      <line x1="32.051471" y1="-20.179573" x2="-62.014237" y2="31.675717" />
      <line x1="31.761809" y1="-20.705021" x2="-62.303899" y2="31.150269" />
      <line x1="29.81048" y1="-17.294389" x2="-59.946826" y2="32.110187" />
      <line x1="29.521158" y1="-17.820024" x2="-60.236149" y2="31.584551" />
      <line x1="27.099882" y1="-13.805765" x2="-56.995621" y2="32.374873" />
      <line x1="26.811076" y1="-14.331684" x2="-57.284427" y2="31.848954" />
      <line x1="24.450052" y1="-10.395502" x2="-53.956069" y2="32.544461" />
      <line x1="24.161847" y1="-10.921751" x2="-54.244274" y2="32.018213" />
      <line x1="22.190498" y1="-7.48736" x2="-50.75888" y2="32.338894" />
      <line x1="21.902989" y1="-8.013989" x2="-51.04639" y2="31.812265" />
      <line x1="20.055359" y1="-4.740047" x2="-47.647287" y2="32.093746" />
      <line x1="19.768617" y1="-5.267095" x2="-47.934029" y2="31.566699" />
      <line x1="17.952695" y1="-2.032717" x2="-44.699794" y2="31.91966" />
      <line x1="17.666824" y1="-2.560237" x2="-44.985665" y2="31.39214" />
      <line x1="16.135666" y1="0.303943" x2="-41.859818" y2="31.598624" />
      <line x1="15.850738" y1="-0.224087" x2="-42.144746" y2="31.070594" />
      <line x1="14.336981" y1="2.619395" x2="-39.342323" y2="31.450706" />
      <line x1="14.053078" y1="2.090813" x2="-39.626226" y2="30.922124" />
      <line x1="12.793616" y1="4.60536" x2="-37.454099" y2="31.48157" />
      <line x1="12.510629" y1="4.076287" x2="-37.737086" y2="30.952497" />
      <line x1="11.15473" y1="6.713424" x2="-35.676952" y2="31.64433" />
      <line x1="10.872782" y1="6.183796" x2="-35.9589" y2="31.114703" />
      <line x1="9.289529" y1="9.113813" x2="-34.227944" y2="32.162287" />
      <line x1="9.008703" y1="8.58359" x2="-34.50877" y2="31.632064" />
      <line x1="7.390384" y1="11.555844" x2="-33.152291" y2="32.91866" />
      <line x1="7.110684" y1="11.025025" x2="-33.43199" y2="32.387842" />
      <line x1="5.649711" y1="13.795339" x2="-32.551733" y2="33.83584" />
      <line x1="5.370977" y1="13.264013" x2="-32.830467" y2="33.304514" />
      <line x1="3.655147" y1="16.361862" x2="-32.235472" y2="35.10005" />
      <line x1="3.37746" y1="15.829988" x2="-32.513159" y2="34.568176" />
      <line x1="1.823237" y1="18.717717" x2="-32.033743" y2="36.31281" />
      <line x1="1.546556" y1="18.185319" x2="-32.310424" y2="35.780412" />
      <line x1="-0.01244" y1="21.079814" x2="-32.013264" y2="37.598356" />
      <line x1="-0.287652" y1="20.546655" x2="-32.288476" y2="37.065197" />
      <line x1="-1.759459" y1="23.327052" x2="-32.194749" y2="38.97031" />
      <line x1="-2.03374" y1="22.793414" x2="-32.46903" y2="38.436672" />
      <line x1="-3.635239" y1="25.740072" x2="-32.422263" y2="40.463547" />
      <line x1="-3.908454" y1="25.205888" x2="-32.695478" y2="39.929362" />
      <line x1="-5.7041" y1="28.400919" x2="-32.856293" y2="42.214817" />
      <line x1="-5.976168" y1="27.866149" x2="-33.128361" y2="41.680047" />
      <line x1="-7.506275" y1="30.720007" x2="-33.399819" y2="43.836616" />
      <line x1="-7.777408" y1="30.184762" x2="-33.670952" y2="43.301371" />
      <line x1="-9.17404" y1="32.865149" x2="-34.006923" y2="45.397147" />
      <line x1="-9.44436" y1="32.329493" x2="-34.277243" y2="44.861491" />
      <line x1="-10.768151" y1="34.914703" x2="-34.777962" y2="46.998444" />
      <line x1="-11.037886" y1="34.378752" x2="-35.047697" y2="46.462493" />
      <line x1="-12.220968" y1="36.783874" x2="-35.300226" y2="48.354039" />
      <line x1="-12.489864" y1="36.247502" x2="-35.569122" y2="47.817667" />
      <line x1="-13.747253" y1="38.74609" x2="-36.006974" y2="49.869223" />
      <line x1="-14.015451" y1="38.209369" x2="-36.275173" y2="49.332502" />
      <line x1="-15.188633" y1="40.600502" x2="-36.76034" y2="51.350087" />
      <line x1="-15.456239" y1="40.063485" x2="-37.027945" y2="50.81307" />
      <line x1="-16.799076" y1="42.672541" x2="-37.598622" y2="53.002448" />
      <line x1="-17.065959" y1="42.135165" x2="-37.865505" y2="52.465071" />
      <line x1="-18.335978" y1="44.649866" x2="-38.408618" y2="54.585404" />
      <line x1="-18.602144" y1="44.112134" x2="-38.674784" y2="54.047672" />
      <line x1="-19.761227" y1="46.481888" x2="-39.080799" y2="56.00632" />
      <line x1="-20.026535" y1="45.943732" x2="-39.346106" y2="55.468164" />
      <line x1="-20.924761" y1="47.979103" x2="-39.660262" y2="57.185919" />
      <line x1="-21.189382" y1="47.440609" x2="-39.924884" y2="56.647425" />
      <line x1="-22.168301" y1="49.578838" x2="-40.244071" y2="58.424354" />
      <line x1="-22.43203" y1="49.039908" x2="-40.507801" y2="57.885423" />
      <line x1="-23.534302" y1="51.412498" x2="-40.72831" y2="59.72525" />
      <line x1="-23.795462" y1="50.872317" x2="-40.98947" y2="59.185069" />
      <line x1="-23.747303" y1="52.841568" x2="-41.113138" y2="61.002043" />
      <line x1="-24.002482" y1="52.298536" x2="-41.368317" y2="60.459011" />
      <path d="M -71.070741,33.954402 L -68.426162,35.48125" />
      <path d="M -31.519726,20.256955 L -30.723094,20.71689" />
      <path d="M -30.114533,21.068243 L -29.397829,21.482033" />
    </g>
    <g fill="none" stroke="rgb(140,140,140)" stroke-width="0.3005555556944445" id="Hidden" stroke-dasharray="3.606667 0.901667">
      <path d="M 82.866412,-54.137478 Q 82.866221,-52.982425 82.789565,-51.876588" />
      <path d="M 78.489846,-40.378072 L 76.311367,-38.715863 L 73.809496,-37.811493 L 71.058632,-37.691855 L 68.140575,-38.360507 L 65.1421,-39.797566 L 62.152372,-41.960298 L 59.260295,-44.78439 L 56.55187,-48.185863 L 54.107637,-52.063568 L 52.00028,-56.302195 L 50.292464,-60.775701 L 49.034975,-65.351058 L 48.265206,-69.89221 L 48.006048,-74.264119" />
      <path d="M 48.006048,-74.264119 L -13.953327,23.2595" />
      <path d="M -14.088696,23.47257 L -14.734356,24.488833" />
      <path d="M -15.492203,25.681679 L -16.135658,26.694474" />
      <path d="M -16.780722,27.7098 L -17.42208,28.719292" />
      <path d="M -18.057362,29.719222 L -18.695687,30.72394" />
      <path d="M -19.293277,31.664543 L -19.9297,32.666269" />
      <path d="M -20.620391,33.753412 L -21.254655,34.751738" />
      <path d="M -22.087771,36.063057 L -22.719732,37.057759" />
      <path d="M -23.371925,38.084306 L -24.002024,39.076078" />
      <path d="M -24.563108,39.95922 L -25.191602,40.948466" />
      <path d="M -25.70866,41.76231 L -26.336004,42.749746" />
      <path d="M -26.745399,43.394131 L -27.371105,44.378988" />
      <path d="M -27.84041,45.117669 L -28.464762,46.100396" />
      <path d="M -28.878902,46.752249 L -29.502111,47.733176" />
      <path d="M -30.038882,48.57805 L -30.660704,49.556794" />
      <path d="M -31.146404,50.321281 L -31.766858,51.297871" />
      <path d="M -32.168125,51.929463 L -32.786951,52.903491" />
      <path d="M -33.005208,53.247026 L -33.622742,54.21902" />
      <path d="M -33.896703,54.650232 L -35.68004,57.457192" />
      <path d="M -25.780545,63.172668 L -25.786691,63.498595 L -25.805114,63.816616 L -25.835767,64.125941 L -25.878575,64.425802 L -25.933432,64.715454 L -26.000201,64.994178 L -26.078717,65.261282 L -26.168783,65.516102 L -26.270178,65.758006 L -26.382649,65.986393 L -26.505916,66.200696 L -26.639674,66.400383 L -26.78359,66.584957 L -26.937308,66.753961" />
      <path d="M -26.937308,66.753961 L -27.547263,67.21742 L -28.253965,67.471082 L -29.035933,67.507238 L -29.8694,67.324788 L -30.729034,66.929279 L -31.588705,66.332732 L -32.422286,65.553277 L -33.204439,64.614607 L -33.911393,63.54525 L -34.521659,62.377711 L -35.01669,61.147475 L -35.381438,59.891934 L -35.604818,58.649249 L -35.68004,57.457192" />
      <path d="M -25.639124,63.019971 L -25.780545,63.172668" />
      <line x1="48.006048" y1="-74.264119" x2="82.866412" y2="-54.137478" />
      <line x1="-35.68004" y1="57.457192" x2="-25.780545" y2="63.172668" />
      <line x1="49.616442" y1="-81.001717" x2="50.623443" y2="-79.710162" />
      <path d="M 37.099395,-60.472422 L 26.693806,-43.406143" />
      <path d="M 25.719627,-41.808386 L 25.088625,-40.773475" />
      <path d="M 24.114641,-39.176037 L 23.483466,-38.140844" />
      <path d="M 22.509684,-36.543737 L 21.878331,-35.50825" />
      <path d="M 21.143661,-34.303313 L 20.512574,-33.268262" />
      <path d="M 19.585003,-31.746946 L 18.954037,-30.712095" />
      <path d="M 18.020476,-29.180955 L 17.388302,-28.144123" />
      <path d="M 16.515136,-26.712037 L 15.883102,-25.675433" />
      <path d="M 14.875773,-24.023307 L 14.243912,-22.986987" />
      <path d="M 13.276528,-21.400373 L 12.644862,-20.364374" />
      <path d="M 11.835297,-19.0366 L 11.203846,-18.000954" />
      <path d="M 10.301227,-16.520561 L 9.670034,-15.485338" />
      <path d="M 8.979276,-14.352421 L 8.348354,-13.317642" />
      <path d="M 7.636786,-12.150594 L 7.006162,-11.116303" />
      <path d="M 6.12833,-9.676565 L 5.498119,-8.642952" />
      <path d="M 4.857615,-7.592456 L 4.227811,-6.559511" />
      <path d="M 3.279036,-5.003417 L 2.649807,-3.971415" />
      <path d="M 1.78531,-2.553548 L 1.156792,-1.522711" />
      <path d="M -0.015525,0.400014 L -0.642967,1.429086" />
      <path d="M -1.772349,3.281393 L -2.398546,4.308424" />
      <path d="M -3.26209,5.724727 L -3.886853,6.749406" />
      <path d="M -4.665388,8.026286 L -5.288578,9.048385" />
      <path d="M -6.045527,10.289862 L -6.666947,11.309058" />
      <path d="M -7.228075,12.229367 L -7.847591,13.245441" />
      <path d="M -8.399073,14.149929 L -9.016539,15.162639" />
      <path d="M -9.403766,15.797733 L -10.019415,16.807464" />
      <path d="M -10.469262,17.545261 L -11.082866,18.551637" />
      <path d="M -11.689092,19.545913 L -12.300509,20.548701" />
      <path d="M -12.933381,21.586679 L -13.542622,22.5859" />
      <path d="M -14.080673,23.468361 L -14.688066,24.464549" />
      <path d="M -15.401201,25.634168 L -16.006606,26.627097" />
      <path d="M -16.613883,27.623095 L -17.217395,28.61292" />
      <path d="M -17.815944,29.594604 L -18.416719,30.57994" />
      <path d="M -18.979772,31.503406 L -19.578831,32.485928" />
      <path d="M -20.229847,33.553663 L -20.826956,34.532986" />
      <path d="M -21.612409,35.821213 L -22.20744,36.797126" />
      <path d="M -22.822587,37.806034 L -23.415936,38.77919" />
      <path d="M -23.945333,39.647458 L -24.537232,40.618236" />
      <path d="M -25.025008,41.41824 L -25.615868,42.387313" />
      <path d="M -26.002735,43.021816 L -26.592114,43.988461" />
      <path d="M -27.035321,44.715369 L -27.623478,45.680009" />
      <path d="M -28.014654,46.321578 L -28.601776,47.284522" />
      <path d="M -29.108833,48.116149 L -29.694702,49.077037" />
      <path d="M -30.153761,49.829944 L -30.738393,50.788803" />
      <path d="M -31.118313,51.411912 L -31.1829,51.517841" />
      <line x1="-31.1829" y1="51.517841" x2="-30.77264" y2="52.04403" />
      <path d="M 50.623443,-79.710162 L -30.77264,52.04403" />
      <line x1="49.616442" y1="-81.001717" x2="87.518446" y2="-59.253524" />
      <path d="M 87.518446,-59.253524 L 87.144408,-58.851878" />
      <line x1="-31.1829" y1="51.517841" x2="-30.625283" y2="51.837802" />
      <line x1="-30.400253" y1="51.966925" x2="-29.772648" y2="52.327045" />
      <line x1="-29.48572" y1="52.491684" x2="-28.857413" y2="52.852207" />
      <line x1="-28.415329" y1="53.105875" x2="-27.784984" y2="53.467567" />
      <line x1="-27.202043" y1="53.802059" x2="-26.566866" y2="54.166524" />
      <line x1="87.518446" y1="-59.253524" x2="88.525447" y2="-57.961969" />
      <path d="M 88.525447,-57.961969 L 87.144408,-56.496781" />
      <line x1="-21.052084" y1="57.330909" x2="-20.641824" y2="57.857098" />
      <line x1="50.623443" y1="-79.710162" x2="88.525447" y2="-57.961969" />
      <line x1="-30.77264" y1="52.04403" x2="-20.641824" y2="57.857098" />
      <path d="M 80.476093,-55.517529 C 78.954531,-54.48285 76.789183,-54.129918 74.250848,-54.502871 C 71.715762,-54.869449 68.814116,-55.960975 65.908789,-57.640942 C 63.003462,-59.315757 60.101817,-61.574763 57.566731,-64.13545 C 55.028395,-66.693515 52.863047,-69.546775 51.341485,-72.338403" />
      <line x1="44.57658" y1="-72.735804" x2="44.57658" y2="-55.668409" />
      <line x1="55.536735" y1="-102.08624" x2="55.536735" y2="-61.996257" />
      <path d="M 44.57658,-55.668409 A 6.0,3.4641016151377553 -120.00000000000001 0,0 48.81922,-48.31994" />
      <line x1="48.81922" y1="-48.31994" x2="72.723578" y2="-34.518753" />
      <path d="M 55.536735,-102.08624 A 6.0,3.4641016151377553 60.00000000000001 0,1 56.779375,-104.832902" />
      <path d="M 55.536735,-61.996257 A 6.0,3.4641016151377553 -120.00000000000001 0,0 59.779375,-54.647788" />
      <line x1="59.779375" y1="-54.647788" x2="93.861922" y2="-34.970221" />
      <path d="M 96.861922,-34.673048 A 6.0,3.4641016151377553 60.00000000000001 0,1 93.861922,-34.970221" />
      <line x1="79.560172" y1="-50.542137" x2="77.6227" y2="-49.423537" />
      <line x1="77.6227" y1="-49.423537" x2="76.489161" y2="-46.211015" />
      <line x1="78.426634" y1="-47.329616" x2="76.489161" y2="-46.211015" />
      <line x1="79.560172" y1="-50.542137" x2="78.426634" y2="-47.329616" />
      <line x1="79.560172" y1="-50.542137" x2="87.144408" y2="-43.199119" />
      <line x1="77.6227" y1="-49.423537" x2="87.144408" y2="-40.204668" />
      <line x1="78.426634" y1="-47.329616" x2="92.706318" y2="-33.504099" />
      <line x1="76.489161" y1="-46.211015" x2="87.144408" y2="-35.894661" />
      <line x1="78.090147" y1="-47.371711" x2="76.152675" y2="-46.253111" />
      <line x1="76.152675" y1="-46.253111" x2="74.07454" y2="-44.150125" />
      <line x1="76.012013" y1="-45.268725" x2="74.07454" y2="-44.150125" />
      <line x1="78.090147" y1="-47.371711" x2="76.012013" y2="-45.268725" />
      <line x1="78.090147" y1="-47.371711" x2="88.87812" y2="-32.092821" />
      <line x1="76.152675" y1="-46.253111" x2="87.130619" y2="-30.705166" />
      <line x1="76.012013" y1="-45.268725" x2="88.208362" y2="-27.995166" />
      <line x1="74.07454" y1="-44.150125" x2="85.382456" y2="-28.134844" />
      <line x1="75.87724" y1="-45.303867" x2="73.939767" y2="-44.185266" />
      <line x1="73.939767" y1="-44.185266" x2="71.047171" y2="-43.507858" />
      <line x1="72.984644" y1="-44.626459" x2="71.047171" y2="-43.507858" />
      <line x1="75.87724" y1="-45.303867" x2="72.984644" y2="-44.626459" />
      <line x1="81.653145" y1="-25.379586" x2="79.715673" y2="-24.260986" />
      <line x1="84.545741" y1="-26.056994" x2="81.653145" y2="-25.379586" />
      <line x1="75.87724" y1="-45.303867" x2="83.518204" y2="-28.338459" />
      <line x1="73.939767" y1="-44.185266" x2="80.250695" y2="-30.172969" />
      <line x1="72.984644" y1="-44.626459" x2="81.653145" y2="-25.379586" />
      <line x1="71.047171" y1="-43.507858" x2="75.929317" y2="-32.667918" />
      <line x1="65.472589" y1="-48.277608" x2="63.535117" y2="-47.159008" />
      <line x1="63.535117" y1="-47.159008" x2="60.176458" y2="-50.373232" />
      <line x1="62.113931" y1="-51.491832" x2="60.176458" y2="-50.373232" />
      <line x1="65.472589" y1="-48.277608" x2="62.113931" y2="-51.491832" />
      <line x1="60.763979" y1="-34.45929" x2="58.826507" y2="-33.34069" />
      <line x1="58.826507" y1="-33.34069" x2="55.467848" y2="-36.554914" />
      <line x1="57.405321" y1="-37.673515" x2="55.467848" y2="-36.554914" />
      <line x1="60.763979" y1="-34.45929" x2="57.405321" y2="-37.673515" />
      <line x1="65.472589" y1="-48.277608" x2="60.763979" y2="-34.45929" />
      <line x1="63.535117" y1="-47.159008" x2="58.826507" y2="-33.34069" />
      <line x1="62.113931" y1="-51.491832" x2="57.405321" y2="-37.673515" />
      <line x1="60.176458" y1="-50.373232" x2="55.467848" y2="-36.554914" />
      <line x1="62.1353" y1="-51.738083" x2="60.197827" y2="-50.619482" />
      <line x1="60.197827" y1="-50.619482" x2="57.3929" y2="-54.724166" />
      <line x1="59.330372" y1="-55.842766" x2="57.3929" y2="-54.724166" />
      <line x1="62.1353" y1="-51.738083" x2="59.330372" y2="-55.842766" />
      <line x1="52.957907" y1="-43.22619" x2="51.020434" y2="-42.10759" />
      <line x1="51.020434" y1="-42.10759" x2="48.215507" y2="-46.212274" />
      <line x1="50.152979" y1="-47.330874" x2="48.215507" y2="-46.212274" />
      <line x1="52.957907" y1="-43.22619" x2="50.152979" y2="-47.330874" />
      <line x1="62.1353" y1="-51.738083" x2="52.957907" y2="-43.22619" />
      <line x1="60.197827" y1="-50.619482" x2="51.020434" y2="-42.10759" />
      <line x1="59.330372" y1="-55.842766" x2="50.152979" y2="-47.330874" />
      <line x1="57.3929" y1="-54.724166" x2="48.215507" y2="-46.212274" />
      <line x1="59.20327" y1="-56.06313" x2="57.265797" y2="-54.94453" />
      <line x1="57.265797" y1="-54.94453" x2="55.324708" y2="-59.477387" />
      <line x1="57.262181" y1="-60.595988" x2="55.324708" y2="-59.477387" />
      <line x1="59.20327" y1="-56.06313" x2="57.262181" y2="-60.595988" />
      <line x1="46.603042" y1="-53.780647" x2="44.665569" y2="-52.662046" />
      <line x1="44.665569" y1="-52.662046" x2="42.724481" y2="-57.194904" />
      <line x1="44.661953" y1="-58.313504" x2="42.724481" y2="-57.194904" />
      <line x1="46.603042" y1="-53.780647" x2="44.661953" y2="-58.313504" />
      <line x1="59.20327" y1="-56.06313" x2="46.603042" y2="-53.780647" />
      <line x1="57.265797" y1="-54.94453" x2="44.665569" y2="-52.662046" />
      <line x1="57.262181" y1="-60.595988" x2="44.661953" y2="-58.313504" />
      <line x1="55.324708" y1="-59.477387" x2="42.724481" y2="-57.194904" />
      <line x1="57.335898" y1="-60.800004" x2="55.398425" y2="-59.681404" />
      <line x1="55.398425" y1="-59.681404" x2="54.489324" y2="-64.151488" />
      <line x1="56.426796" y1="-65.270088" x2="54.489324" y2="-64.151488" />
      <line x1="57.335898" y1="-60.800004" x2="56.426796" y2="-65.270088" />
      <line x1="42.767279" y1="-64.735108" x2="40.829807" y2="-63.616507" />
      <line x1="40.829807" y1="-63.616507" x2="40.376227" y2="-65.846776" />
      <line x1="42.767279" y1="-64.735108" x2="41.858178" y2="-69.205192" />
      <line x1="57.335898" y1="-60.800004" x2="42.767279" y2="-64.735108" />
      <line x1="55.398425" y1="-59.681404" x2="40.829807" y2="-63.616507" />
      <line x1="56.426796" y1="-65.270088" x2="42.343912" y2="-69.073991" />
      <line x1="54.489324" y1="-64.151488" x2="41.484361" y2="-67.664235" />
      <path d="M -71.026371,10.551597 A 0.3,0.1732855408464566 61.05007325121704 0,1 -71.169279,10.042818" />
      <path d="M -71.169279,10.042818 A 0.3000000595854226,0.17328557526409719 61.05007325121704 1,1 -70.878852,10.567844" />
      <path d="M -70.878852,10.567844 A 0.3,0.1732855408464566 61.05007325121704 0,1 -71.026371,10.551597" />
      <path d="M 67.7398,-66.209288 A 0.3,0.1732855408464566 61.05007325121704 0,1 67.596891,-66.718066" />
      <path d="M 67.596891,-66.718066 A 0.3,0.1732855408464566 61.05007325121704 1,1 67.887318,-66.193041" />
      <path d="M 67.887318,-66.193041 A 0.3,0.1732855408464566 61.05007325121704 0,1 67.7398,-66.209288" />
      <path d="M -71.02347,12.313556 A 0.3,0.17319779895758874 61.04146578497225 0,1 -71.16649,11.80484" />
      <path d="M -71.16649,11.80484 A 0.3,0.17319779895758874 61.04146578497225 1,1 -70.875984,12.329822" />
      <path d="M -70.875984,12.329822 A 0.3,0.17319779895758874 61.04146578497225 0,1 -71.02347,12.313556" />
      <path d="M 65.371771,-63.162572 A 0.3,0.17319779895758874 61.04146578497225 0,1 65.228751,-63.671288" />
      <path d="M 65.228751,-63.671288 A 0.30000036930193247,0.17319801216519495 61.04146578497225 1,1 65.519257,-63.146305" />
      <path d="M 65.519257,-63.146305 A 0.3,0.17319779895758874 61.04146578497225 0,1 65.371771,-63.162572" />
      <path d="M 63.215767,-60.238269 A 0.3,0.17310689504901564 61.03255528925787 0,1 63.151197,-60.099571" />
      <path d="M 63.151197,-60.099571 A 0.3,0.17310689504901564 61.03255528925787 0,1 62.86061,-60.624508" />
      <path d="M 62.86061,-60.624508 A 0.3,0.17310689504901564 61.03255528925787 0,1 63.215767,-60.238269" />
      <path d="M 60.847628,-57.19149 A 0.3,0.17301265511288252 61.02332547537546 0,1 60.783139,-57.052837" />
      <path d="M 60.783139,-57.052837 A 0.30000032227710693,0.17301284097294237 61.02332547537546 0,1 60.492467,-57.577728" />
      <path d="M 60.492467,-57.577728 A 0.3,0.17301265511288252 61.02332547537546 0,1 60.847628,-57.19149" />
      <path d="M 58.675334,-54.492934 A 0.3,0.17296140410209498 61.037052901500175 0,1 58.610844,-54.354281" />
      <path d="M 58.610844,-54.354281 A 0.3,0.17296140410209498 61.037052901500175 0,1 58.320298,-54.879241" />
      <path d="M 58.320298,-54.879241 A 0.3,0.17296140410209498 61.037052901500175 0,1 58.675334,-54.492934" />
      <path d="M 56.358806,-51.511879 A 0.3,0.1729082606551596 61.04335749392725 0,1 56.294334,-51.373236" />
      <path d="M 56.294334,-51.373236 A 0.30000019132708605,0.17290837092860514 61.04335749392725 0,1 56.003845,-51.898228" />
      <path d="M 56.003845,-51.898228 A 0.3,0.1729082606551596 61.04335749392725 0,1 56.358806,-51.511879" />
      <path d="M 54.109448,-48.617778 A 0.3,0.17261363439154728 60.981008045477864 0,1 54.045312,-48.479322" />
      <path d="M 54.045312,-48.479322 A 0.3000001026911099,0.17261369347783292 60.981008045477864 0,1 53.754253,-49.003998" />
      <path d="M 53.754253,-49.003998 A 0.3,0.17261363439154728 60.981008045477864 0,1 54.109448,-48.617778" />
      <path d="M 51.867866,-45.734698 A 0.3,0.17255128688696478 60.98818944712184 0,1 51.803751,-45.596255" />
      <path d="M 51.803751,-45.596255 A 0.30000007957498964,0.1725513326561877 60.98818944712184 0,1 51.512757,-46.120967" />
      <path d="M 51.512757,-46.120967 A 0.3,0.17255128688696478 60.98818944712184 0,1 51.867866,-45.734698" />
      <path d="M 49.428284,-42.595233 A 0.3,0.17248055874553456 60.99709618012045 0,1 49.364192,-42.456803" />
      <path d="M 49.364192,-42.456803 A 0.30000011775777413,0.1724806264486235 60.99709618012045 0,1 49.073279,-42.98156" />
      <path d="M 49.073279,-42.98156 A 0.3,0.17248055874553456 60.99709618012045 0,1 49.428284,-42.595233" />
      <path d="M 47.047388,-39.531292 A 0.3,0.17240705169955317 61.00716911929098 0,1 46.983317,-39.392874" />
      <path d="M 46.983317,-39.392874 A 0.3,0.17240705169955317 61.00716911929098 0,1 46.692497,-39.917682" />
      <path d="M 46.692497,-39.917682 A 0.3,0.17240705169955317 61.00716911929098 0,1 47.047388,-39.531292" />
      <path d="M 44.899835,-36.76782 A 0.3,0.1723347324101919 61.01828400962286 0,1 44.835783,-36.629413" />
      <path d="M 44.835783,-36.629413 A 0.3000000932288978,0.17233478596544907 61.01828400962286 0,1 44.545065,-37.154278" />
      <path d="M 44.545065,-37.154278 A 0.3,0.1723347324101919 61.01828400962286 0,1 44.899835,-36.76782" />
      <path d="M 42.61156,-33.824306 A 0.3,0.1722551359266902 61.03163029438582 0,1 42.547524,-33.685909" />
      <path d="M 42.547524,-33.685909 A 0.3,0.1722551359266902 61.03163029438582 0,1 42.256928,-34.210841" />
      <path d="M 42.256928,-34.210841 A 0.3,0.1722551359266902 61.03163029438582 0,1 42.61156,-33.824306" />
      <path d="M 40.640069,-31.286591 A 0.3,0.17218052507648807 61.045635554309165 0,1 40.576046,-31.148202" />
      <path d="M 40.576046,-31.148202 A 0.3,0.17218052507648807 61.045635554309165 0,1 40.285579,-31.673205" />
      <path d="M 40.285579,-31.673205 A 0.3,0.17218052507648807 61.045635554309165 0,1 40.640069,-31.286591" />
      <path d="M 38.63463,-28.707231 A 0.3,0.17209896850806553 61.06101821418061 0,1 38.570621,-28.56885" />
      <path d="M 38.570621,-28.56885 A 0.3000003640218724,0.17209917733402808 61.06101821418061 0,1 38.280294,-29.093932" />
      <path d="M 38.280294,-29.093932 A 0.3,0.17209896850806553 61.06101821418061 0,1 38.63463,-28.707231" />
      <path d="M 36.380972,-25.806566 A 0.3,0.17199944015769436 61.082450120123184 0,1 36.316974,-25.668192" />
      <path d="M 36.316974,-25.668192 A 0.3000002221922507,0.17199956754750348 61.082450120123184 0,1 36.026843,-26.193382" />
      <path d="M 36.026843,-26.193382 A 0.3,0.17199944015769436 61.082450120123184 0,1 36.380972,-25.806566" />
      <path d="M 34.480165,-23.360284 A 0.3,0.1719050145933403 61.10358944243163 0,1 34.416174,-23.221915" />
      <path d="M 34.416174,-23.221915 A 0.30000016757423054,0.17190511061617544 61.10358944243163 0,1 34.126237,-23.747212" />
      <path d="M 34.126237,-23.747212 A 0.3,0.1719050145933403 61.10358944243163 0,1 34.480165,-23.360284" />
      <path d="M 32.115457,-20.317938 A 0.3,0.17177946099552593 61.13351641112354 0,1 32.051471,-20.179573" />
      <path d="M 32.051471,-20.179573 A 0.3,0.17177946099552593 61.13351641112354 1,1 31.761809,-20.705021" />
      <path d="M 31.761809,-20.705021 A 0.3,0.17177946099552593 61.13351641112354 0,1 32.115457,-20.317938" />
      <path d="M 29.874469,-17.432754 A 0.3,0.17164111234835744 61.17055846384968 0,1 29.81048,-17.294389" />
      <path d="M 29.81048,-17.294389 A 0.3,0.17164111234835744 61.17055846384968 0,1 29.521158,-17.820024" />
      <path d="M 29.521158,-17.820024 A 0.3,0.17164111234835744 61.17055846384968 0,1 29.874469,-17.432754" />
      <path d="M 27.163884,-13.944136 A 0.3,0.17144514886019305 61.226823321480346 0,1 27.099882,-13.805765" />
      <path d="M 27.099882,-13.805765 A 0.3,0.17144514886019305 61.226823321480346 0,1 26.811076,-14.331684" />
      <path d="M 26.811076,-14.331684 A 0.3,0.17144514886019305 61.226823321480346 0,1 27.163884,-13.944136" />
      <path d="M 24.514073,-10.533881 A 0.3,0.17122095151908903 61.29220469208304 0,1 24.450052,-10.395502" />
      <path d="M 24.450052,-10.395502 A 0.30000005501146193,0.17122098291613855 61.29220469208304 0,1 24.161847,-10.921751" />
      <path d="M 24.161847,-10.921751 A 0.3,0.17122095151908903 61.29220469208304 0,1 24.514073,-10.533881" />
      <path d="M 22.254554,-7.625754 A 0.3,0.17098332715127182 61.367944567499805 0,1 22.190498,-7.48736" />
      <path d="M 22.190498,-7.48736 A 0.3,0.17098332715127182 61.367944567499805 0,1 21.902989,-8.013989" />
      <path d="M 21.902989,-8.013989 A 0.3,0.17098332715127182 61.367944567499805 0,1 22.254554,-7.625754" />
      <path d="M 20.11945,-4.878459 A 0.3,0.1707178044854464 61.45148818557306 0,1 20.055359,-4.740047" />
      <path d="M 20.055359,-4.740047 A 0.3000002370282719,0.17071793936860033 61.45148818557306 0,1 19.768617,-5.267095" />
      <path d="M 19.768617,-5.267095 A 0.3,0.1707178044854464 61.45148818557306 0,1 20.11945,-4.878459" />
      <path d="M 18.016827,-2.171147 A 0.3,0.17041711488824543 61.54603382726622 0,1 17.952695,-2.032717" />
      <path d="M 17.952695,-2.032717 A 0.3,0.17041711488824543 61.54603382726622 0,1 17.666824,-2.560237" />
      <path d="M 17.666824,-2.560237 A 0.3,0.17041711488824543 61.54603382726622 0,1 18.016827,-2.171147" />
      <path d="M 16.199845,0.165492 A 0.3,0.17009690531828603 61.648457636574776 0,1 16.135666,0.303943" />
      <path d="M 16.135666,0.303943 A 0.3,0.17009690531828603 61.648457636574776 1,1 15.850738,-0.224087" />
      <path d="M 15.850738,-0.224087 A 0.3,0.17009690531828603 61.648457636574776 0,1 16.199845,0.165492" />
      <path d="M 14.401207,2.480923 A 0.3,0.16974381475099537 61.75962492440209 0,1 14.336981,2.619395" />
      <path d="M 14.336981,2.619395 A 0.3,0.16974381475099537 61.75962492440209 1,1 14.053078,2.090813" />
      <path d="M 14.053078,2.090813 A 0.3,0.16974381475099537 61.75962492440209 0,1 14.401207,2.480923" />
      <path d="M 12.857872,4.466876 A 0.3,0.16941049268713468 61.85881995183085 0,1 12.793616,4.60536" />
      <path d="M 12.793616,4.60536 A 0.3,0.16941049268713468 61.85881995183085 1,1 12.510629,4.076287" />
      <path d="M 12.510629,4.076287 A 0.3,0.16941049268713468 61.85881995183085 0,1 12.857872,4.466876" />
      <path d="M 11.219015,6.574928 A 0.3,0.1690247643029831 61.97133716195587 0,1 11.15473,6.713424" />
      <path d="M 11.15473,6.713424 A 0.3000002054532788,0.1690248800586232 61.97133716195587 0,1 10.872782,6.183796" />
      <path d="M 10.872782,6.183796 A 0.3,0.1690247643029831 61.97133716195587 0,1 11.219015,6.574928" />
      <path d="M 9.353817,8.975321 A 0.3,0.1685662778847739 62.09263966656936 0,1 9.289529,9.113813" />
      <path d="M 9.289529,9.113813 A 0.3,0.1685662778847739 62.09263966656936 0,1 9.008703,8.58359" />
      <path d="M 9.008703,8.58359 A 0.3,0.1685662778847739 62.09263966656936 0,1 9.353817,8.975321" />
      <path d="M 7.454656,11.417365 A 0.3,0.16807736637734408 62.21427888810284 0,1 7.390384,11.555844" />
      <path d="M 7.390384,11.555844 A 0.30000037531685264,0.16807757665157125 62.21427888810284 0,1 7.110684,11.025025" />
      <path d="M 7.110684,11.025025 A 0.3,0.16807736637734408 62.21427888810284 0,1 7.454656,11.417365" />
      <path d="M 5.713942,13.656887 A 0.3,0.1676169940390056 62.31846957287159 0,1 5.649711,13.795339" />
      <path d="M 5.649711,13.795339 A 0.3,0.1676169940390056 62.31846957287159 0,1 5.370977,13.264013" />
      <path d="M 5.370977,13.264013 A 0.3,0.1676169940390056 62.31846957287159 0,1 5.713942,13.656887" />
      <path d="M 3.719308,16.223451 A 0.3,0.16708049258806978 62.43131973208068 0,1 3.655147,16.361862" />
      <path d="M 3.655147,16.361862 A 0.300000009102088,0.16708049765734095 62.43131973208068 0,1 3.37746,15.829988" />
      <path d="M 3.37746,15.829988 A 0.3,0.16708049258806978 62.43131973208068 0,1 3.719308,16.223451" />
      <path d="M 1.887312,18.579356 A 0.3,0.1665360708655933 62.53960563317357 0,1 1.823237,18.717717" />
      <path d="M 1.823237,18.717717 A 0.3000000025688062,0.16653607229158962 62.53960563317357 1,1 1.546556,18.185319" />
      <path d="M 1.546556,18.185319 A 0.3,0.1665360708655933 62.53960563317357 0,1 1.887312,18.579356" />
      <path d="M 0.051525,20.941516 A 0.3,0.16576874045708564 62.69761753304862 0,1 -0.01244,21.079814" />
      <path d="M -0.01244,21.079814 A 0.3000000684270759,0.1657687782673196 62.69761753304862 0,1 -0.287652,20.546655" />
      <path d="M -0.287652,20.546655 A 0.3,0.16576874045708564 62.69761753304862 0,1 0.051525,20.941516" />
      <path d="M -1.695618,23.188823 A 0.3,0.16520003531947788 62.79755248546547 0,1 -1.759459,23.327052" />
      <path d="M -1.759459,23.327052 A 0.3,0.16520003531947788 62.79755248546547 0,1 -2.03374,22.793414" />
      <path d="M -2.03374,22.793414 A 0.3,0.16520003531947788 62.79755248546547 0,1 -1.695618,23.188823" />
      <path d="M -3.571566,25.601935 A 0.3,0.16451093318694346 62.91197283465592 0,1 -3.635239,25.740072" />
      <path d="M -3.635239,25.740072 A 0.3,0.16451093318694346 62.91197283465592 1,1 -3.908454,25.205888" />
      <path d="M -3.908454,25.205888 A 0.3,0.16451093318694346 62.91197283465592 0,1 -3.571566,25.601935" />
      <path d="M -5.640634,28.262891 A 0.3,0.16373233281627866 63.034916477157864 0,1 -5.7041,28.400919" />
      <path d="M -5.7041,28.400919 A 0.3,0.16373233281627866 63.034916477157864 0,1 -5.976168,27.866149" />
      <path d="M -5.976168,27.866149 A 0.3,0.16373233281627866 63.034916477157864 0,1 -5.640634,28.262891" />
      <path d="M -7.443024,30.582091 A 0.3,0.16302904360219825 63.13509238892371 0,1 -7.506275,30.720007" />
      <path d="M -7.506275,30.720007 A 0.30000013071417403,0.16302911463622083 63.13509238892371 0,1 -7.777408,30.184762" />
      <path d="M -7.777408,30.184762 A 0.3,0.16302904360219825 63.13509238892371 0,1 -7.443024,30.582091" />
      <path d="M -9.11101,32.727348 A 0.3,0.16236470101418618 63.222051945900745 0,1 -9.17404,32.865149" />
      <path d="M -9.17404,32.865149 A 0.3000001053069364,0.1623647580079503 63.222051945900745 0,1 -9.44436,32.329493" />
      <path d="M -9.44436,32.329493 A 0.3,0.16236470101418618 63.222051945900745 0,1 -9.11101,32.727348" />
      <path d="M -10.70536,34.777024 A 0.3,0.16176670903334534 63.28464286865346 0,1 -10.768151,34.914703" />
      <path d="M -10.768151,34.914703 A 0.3000001852608442,0.1617668089301356 63.28464286865346 0,1 -11.037886,34.378752" />
      <path d="M -11.037886,34.378752 A 0.3,0.16176670903334534 63.28464286865346 0,1 -10.70536,34.777024" />
      <path d="M -12.158407,36.646312 A 0.3,0.1610830512444186 63.374335444847 0,1 -12.220968,36.783874" />
      <path d="M -12.220968,36.783874 A 0.3,0.1610830512444186 63.374335444847 0,1 -12.489864,36.247502" />
      <path d="M -12.489864,36.247502 A 0.3,0.1610830512444186 63.374335444847 0,1 -12.158407,36.646312" />
      <path d="M -13.684966,38.608665 A 0.3,0.16038958083201343 63.44880423231621 0,1 -13.747253,38.74609" />
      <path d="M -13.747253,38.74609 A 0.3,0.16038958083201343 63.44880423231621 0,1 -14.015451,38.209369" />
      <path d="M -14.015451,38.209369 A 0.3,0.16038958083201343 63.44880423231621 0,1 -13.684966,38.608665" />
      <path d="M -15.126614,40.46321 A 0.3,0.1597475925810564 63.51206371251466 0,1 -15.188633,40.600502" />
      <path d="M -15.188633,40.600502 A 0.3000000956355121,0.15974764350619913 63.51206371251466 0,1 -15.456239,40.063485" />
      <path d="M -15.456239,40.063485 A 0.3,0.1597475925810564 63.51206371251466 0,1 -15.126614,40.46321" />
      <path d="M -16.737387,42.535413 A 0.3,0.15896279610830052 63.589122618126275 0,1 -16.799076,42.672541" />
      <path d="M -16.799076,42.672541 A 0.3,0.15896279610830052 63.589122618126275 0,1 -17.065959,42.135165" />
      <path d="M -17.065959,42.135165 A 0.3,0.15896279610830052 63.589122618126275 0,1 -16.737387,42.535413" />
      <path d="M -18.274626,44.512902 A 0.3,0.1581696807982438 63.66554891634316 0,1 -18.335978,44.649866" />
      <path d="M -18.335978,44.649866 A 0.30000001807501736,0.15816969032797623 63.66554891634316 0,1 -18.602144,44.112134" />
      <path d="M -18.602144,44.112134 A 0.3,0.1581696807982438 63.66554891634316 0,1 -18.274626,44.512902" />
      <path d="M -19.700229,46.345096 A 0.3,0.1573000976130335 63.75697977012846 0,1 -19.761227,46.481888" />
      <path d="M -19.761227,46.481888 A 0.3000000896667473,0.1573001446283272 63.75697977012846 0,1 -20.026535,45.943732" />
      <path d="M -20.026535,45.943732 A 0.3,0.1573000976130335 63.75697977012846 0,1 -19.700229,46.345096" />
      <path d="M -20.864077,47.842462 A 0.3,0.15655787045022232 63.8300298892449 0,1 -20.924761,47.979103" />
      <path d="M -20.924761,47.979103 A 0.30000002569890366,0.1565578838614411 63.8300298892449 0,1 -21.189382,47.440609" />
      <path d="M -21.189382,47.440609 A 0.3,0.15655787045022232 63.8300298892449 0,1 -20.864077,47.842462" />
      <path d="M -22.107969,49.442365 A 0.3,0.15568012429120853 63.92483412436358 0,1 -22.168301,49.578838" />
      <path d="M -22.168301,49.578838 A 0.3,0.15568012429120853 63.92483412436358 0,1 -22.43203,49.039908" />
      <path d="M -22.43203,49.039908 A 0.3,0.15568012429120853 63.92483412436358 0,1 -22.107969,49.442365" />
      <path d="M -23.474527,51.27628 A 0.3,0.1538602265335345 64.19772242423353 0,1 -23.534302,51.412498" />
      <path d="M -23.534302,51.412498 A 0.3000000243171151,0.15386023900499066 64.19772242423353 0,1 -23.795462,50.872317" />
      <path d="M -23.795462,50.872317 A 0.3,0.1538602265335345 64.19772242423353 0,1 -23.474527,51.27628" />
      <path d="M -23.687566,52.705341 A 0.3,0.1515593804050437 64.83044156281304 0,1 -23.747303,52.841568" />
      <path d="M -23.747303,52.841568 A 0.30000003127710584,0.15155939620617295 64.83044156281304 0,1 -24.002482,52.298536" />
      <path d="M -24.002482,52.298536 A 0.3,0.1515593804050437 64.83044156281304 0,1 -23.687566,52.705341" />
      <line x1="-59.127701" y1="-0.048662" x2="-56.483122" y2="1.478187" />
      <path d="M -59.127701,-0.048662 C -58.734879,-0.186038 -58.533474,-0.239346 -58.494836,-0.217039" />
      <path d="M -58.494836,-0.217039 C -58.454197,-0.193575 -58.593623,-0.086459 -58.879778,0.094477" />
      <path d="M -74.147465,10.507752 C -74.621922,10.954914 -75.06477,11.404282 -75.47601,11.855858 C -76.634369,13.130759 -77.50949,14.414177 -77.752893,15.636238 C -77.8552,16.14989 -77.845904,16.652702 -77.808296,17.151034" />
      <path d="M -71.070741,33.954402 C -69.372318,34.934628 -67.37715,35.358578 -65.329027,35.603661 C -64.07823,35.754345 -62.80308,35.840077 -61.50358,35.860858 C -60.004481,35.881614 -58.479488,35.823099 -56.928599,35.685311 C -55.158389,35.531041 -53.361519,35.284182 -51.568729,35.056609 C -49.760523,34.830365 -47.957401,34.613994 -46.159362,34.407494 C -44.670265,34.233756 -43.185297,34.060108 -41.83894,34.378917 C -41.483774,34.463018 -41.138254,34.581389 -40.832507,34.757912" />
      <path d="M -40.832507,34.757912 C -40.438547,34.985362 -40.110626,35.309368 -39.913184,35.780999" />
      <path d="M -56.483122,1.478187 C -56.0903,1.340811 -55.888895,1.287502 -55.850257,1.30981" />
      <path d="M -55.850257,1.30981 C -55.66122,1.418951 -59.36827,3.338094 -63.616118,6.077531 C -66.874465,8.178839 -70.451006,10.762789 -72.83143,13.382707 C -73.554322,14.178329 -74.166905,14.977267 -74.584481,15.76254" />
      <line x1="-37.942782" y1="54.33001" x2="-35.298202" y2="55.856859" />
      <line x1="-48.506957" y1="60.42924" x2="-37.942782" y2="54.33001" />
      <line x1="-36.97103" y1="56.822667" x2="-35.298202" y2="55.856859" />
      <line x1="-52.099059" y1="-4.10665" x2="-50.629803" y2="-3.258374" />
      <path d="M -37.942782,54.33001 C -37.268264,53.131998 -36.605941,51.927666 -35.955812,50.717013 C -34.721273,48.422195 -33.54784,46.098762 -32.441491,43.75638 C -31.91097,42.636421 -31.392425,41.512378 -30.885856,40.384249 C -30.401525,39.305672 -29.927585,38.222226 -29.528211,37.134592 C -29.160395,36.132903 -28.855825,35.127661 -28.59483,34.129885 C -28.346603,33.180919 -28.137791,32.238707 -28.00086,31.321137 C -27.738,29.545854 -27.734929,27.867676 -27.944292,26.356838 C -28.052512,25.582416 -28.218827,24.850591 -28.453409,24.184957 C -28.707995,23.472615 -29.030908,22.834387 -29.422145,22.270272 C -30.03365,21.377496 -30.793462,20.671113 -31.671124,20.169545" />
      <path d="M -31.671124,20.169545 Q -31.904627,20.034912 -32.14755,19.916701" />
      <path d="M -33.401952,19.418524 Q -33.808086,19.288757 -34.227193,19.187186" />
      <path d="M -35.908319,18.878816 Q -36.423622,18.810966 -36.947758,18.766062" />
      <path d="M -38.434111,18.67678 Q -39.028949,18.655418 -39.629853,18.650823" />
      <path d="M -41.467932,18.66216 Q -42.113092,18.673857 -42.759533,18.689729" />
      <path d="M -44.032435,18.719181 Q -44.672597,18.733005 -45.310028,18.739495" />
      <path d="M -46.989876,18.739062 Q -47.589272,18.732414 -48.185406,18.714483" />
      <path d="M -49.450498,18.66063 Q -49.995637,18.630248 -50.529259,18.571765" />
      <path d="M -51.564011,18.41307 Q -51.998456,18.326406 -52.41354,18.197556" />
      <path d="M -52.6829,18.107832 Q -53.394252,17.854073 -54.041979,17.478028" />
      <path d="M -54.041979,17.478028 C -54.885954,16.986096 -55.662505,16.376761 -56.313416,15.595413 C -56.750608,15.069541 -57.130048,14.46414 -57.423574,13.770543 C -57.694128,13.131227 -57.891689,12.416979 -58.024614,11.651734 C -58.155305,10.911174 -58.218944,10.125976 -58.215533,9.296142 C -58.209868,8.463258 -58.12975,7.588325 -57.989259,6.691517 C -57.843417,5.760549 -57.632515,4.806009 -57.324579,3.841944 C -56.971926,2.737884 -56.492011,1.621331 -55.910365,0.559628 C -54.918254,-1.251315 -53.630168,-2.902681 -52.099059,-4.10665" />
      <path d="M -35.298202,55.856859 L -34.896264,55.139375" />
      <path d="M -34.670726,54.73401 L -34.164671,53.816798" />
      <path d="M -33.98922,53.496203 L -33.49361,52.582919" />
      <path d="M -33.178907,51.996806 L -32.696792,51.088691" />
      <path d="M -32.328037,50.384859 L -31.862677,49.483821" />
      <path d="M -31.471804,48.714711 L -31.025742,47.82206" />
      <path d="M -30.737025,47.235841 L -30.306639,46.350039" />
      <path d="M -29.99148,45.692642 L -29.574776,44.812563" />
      <path d="M -29.309718,44.246367 L -28.904411,43.370679" />
      <path d="M -28.57855,42.6577 L -28.1858,41.787424" />
      <path d="M -27.846968,41.023769 Q -27.658521,40.594439 -27.47774,40.164144" />
      <path d="M -27.126228,39.2996 Q -26.96281,38.883756 -26.813071,38.467092" />
      <path d="M -26.456683,37.412378 Q -26.329914,37.013151 -26.214232,36.61445" />
      <path d="M -25.981916,35.777012 Q -25.87878,35.388193 -25.785147,35.001261" />
      <path d="M -25.624422,34.300492 Q -25.542369,33.921925 -25.473183,33.547203" />
      <path d="M -25.355412,32.842156 Q -25.30108,32.476923 -25.261633,32.117234" />
      <path d="M -25.198631,31.426175 Q -25.173201,31.07463 -25.16134,30.729854" />
      <path d="M -25.151178,29.953504 Q -25.154107,29.615634 -25.169908,29.28578" />
      <path d="M -25.20593,28.73155 Q -25.232823,28.40552 -25.272575,28.088469" />
      <path d="M -25.364208,27.467722 Q -25.417652,27.154545 -25.485036,26.852758" />
      <path d="M -25.625521,26.293438 Q -25.709179,25.994818 -25.808979,25.711379" />
      <path d="M -25.9536,25.330249 Q -26.068819,25.047543 -26.200357,24.781798" />
      <path d="M -26.35902,24.477336 Q -26.505432,24.210604 -26.667392,23.961896" />
      <path d="M -26.951491,23.554009 Q -27.135903,23.306484 -27.335983,23.079704" />
      <path d="M -27.693354,22.703601 Q -27.923532,22.478843 -28.170915,22.279961" />
      <path d="M -28.793999,21.836568 Q -28.908951,21.764264 -29.026545,21.696394" />
      <path d="M -29.026545,21.696394 Q -29.215594,21.587341 -29.410902,21.489145" />
      <path d="M -30.228444,21.130432 Q -30.609015,20.985827 -31.003063,20.869737" />
      <path d="M -32.13203,20.592289 Q -32.602993,20.498099 -33.085111,20.430167" />
      <path d="M -34.911293,20.247372 Q -35.482914,20.211241 -36.061803,20.194653" />
      <path d="M -38.273984,20.180934 Q -38.915757,20.188976 -39.559712,20.203744" />
      <path d="M -41.276433,20.243657 Q -41.918738,20.257956 -42.558407,20.265237" />
      <path d="M -44.372972,20.265591 Q -44.972675,20.258699 -45.569105,20.240467" />
      <path d="M -46.701057,20.193407 Q -47.250559,20.164699 -47.789156,20.109038" />
      <path d="M -49.094746,19.902882 Q -49.518203,19.809973 -49.922132,19.674749" />
      <path d="M -50.713824,19.359589 Q -51.042028,19.207843 -51.355515,19.028906" />
      <path d="M -51.975935,18.641105 Q -52.248638,18.455651 -52.508346,18.250039" />
      <path d="M -53.176529,17.658819 Q -53.394722,17.443112 -53.59789,17.206316" />
      <path d="M -54.0636,16.60182 Q -54.232309,16.35763 -54.384142,16.093482" />
      <path d="M -54.785758,15.281357 Q -54.901312,15.006276 -54.999247,14.713679" />
      <path d="M -55.259865,13.77893 Q -55.328859,13.476135 -55.383049,13.161155" />
      <path d="M -55.502065,12.291258 Q -55.535238,11.96741 -55.552745,11.633234" />
      <path d="M -55.565717,10.521192 Q -55.555993,10.172682 -55.530128,9.815775" />
      <path d="M -55.422307,8.758958 Q -55.373957,8.388052 -55.311294,8.011749" />
      <path d="M -55.148434,7.147399 Q -55.065861,6.755442 -54.964645,6.359763" />
      <path d="M -54.582954,5.074112 Q -54.4368,4.643274 -54.266048,4.212887" />
      <path d="M -53.630974,2.787066 Q -53.386972,2.294335 -53.114426,1.81549" />
      <path d="M -52.037731,0.145555 Q -51.562281,-0.507301 -51.030996,-1.097018" />
      <line x1="-52.099059" y1="-4.10665" x2="-59.127701" y2="-0.048662" />
      <line x1="-55.050942" y1="0.651318" x2="-56.483122" y2="1.478187" />
      <line x1="-35.892172" y1="54.068732" x2="-47.707926" y2="60.890561" />
      <line x1="-35.892172" y1="65.744633" x2="-49.327201" y2="73.50135" />
      <line x1="-35.892172" y1="54.068732" x2="-35.892172" y2="65.744633" />
      <line x1="-35.892172" y1="54.068732" x2="-34.687509" y2="54.764244" />
      <line x1="-34.431605" y1="54.91199" x2="-33.805389" y2="55.273536" />
      <line x1="-33.392255" y1="55.512059" x2="-32.76402" y2="55.874771" />
      <line x1="-32.247487" y1="56.172992" x2="-31.614463" y2="56.538468" />
      <line x1="-35.892172" y1="65.744633" x2="-25.639124" y2="71.664233" />
      <path d="M -25.639124,65.43463 L -26.937308,66.753961" />
      <path d="M 60.283592,-77.256769 C 60.283755,-77.257969 60.229608,-77.153767 60.176018,-76.963559 C 60.121542,-76.773456 60.067031,-76.497674 60.042543,-76.158557 C 59.98984,-75.478932 60.067297,-74.553441 60.337116,-73.530451 C 60.60097,-72.512391 61.050988,-71.40314 61.636042,-70.334282 C 62.220192,-69.263298 62.939377,-68.232707 63.717149,-67.314574 C 64.280097,-66.650002 64.855082,-66.064108 65.443366,-65.535675 C 66.030681,-65.008774 66.633916,-64.542983 67.223035,-64.155651 C 67.809816,-63.768649 68.38636,-63.462021 68.862805,-63.264618 C 69.09977,-63.165714 69.310375,-63.094265 69.467667,-63.049998 C 69.62409,-63.005377 69.728328,-62.988552 69.729429,-62.989533" />
      <line x1="89.895969" y1="-30.651253" x2="85.901767" y2="-28.345199" />
      <line x1="67.887318" y1="-66.193041" x2="47.538819" y2="-54.936919" />
      <line x1="23.895593" y1="-41.858264" x2="-19.473398" y2="-17.867963" />
      <line x1="-58.292289" y1="3.605372" x2="-70.878852" y2="10.567844" />
      <line x1="67.596891" y1="-66.718066" x2="42.613031" y2="-52.897816" />
      <line x1="28.013144" y1="-44.821638" x2="-21.522359" y2="-17.420226" />
      <line x1="-56.373624" y1="1.858348" x2="-71.169279" y2="10.042818" />
      <line x1="65.519257" y1="-63.146305" x2="59.084309" y2="-59.585441" />
      <line x1="16.18654" y1="-35.847388" x2="-13.965265" y2="-19.162484" />
      <line x1="-64.179751" y1="8.624372" x2="-70.875984" y2="12.329822" />
      <line x1="65.228751" y1="-63.671288" x2="54.286069" y2="-57.616008" />
      <line x1="19.066223" y1="-38.126636" x2="-16.21349" y2="-18.604136" />
      <line x1="-61.575197" y1="6.49737" x2="-71.16649" y2="11.80484" />
      <line x1="7.604962" y1="-29.351035" x2="-6.344349" y2="-21.629164" />
      <line x1="11.463167" y1="-32.172605" x2="-9.894298" y2="-20.349828" />
      <path d="M -58.494836,-0.217039 L -55.850257,1.30981" />
      <path d="M -40.832507,34.757912 L -38.187928,36.28476" />
      <path d="M -31.671124,20.169545 L -31.519726,20.256955" />
      <path d="M -30.723094,20.71689 L -30.114533,21.068243" />
      <path d="M -29.397829,21.482033 L -29.026545,21.696394" />
      <path d="M -54.041979,17.478028 L -51.3974,19.004877" />
      <line x1="55.536735" y1="-102.08624" x2="44.57658" y2="-95.758391" />
      <line x1="55.536735" y1="-61.996257" x2="44.57658" y2="-55.668409" />
      <line x1="59.779375" y1="-54.647788" x2="48.81922" y2="-48.31994" />
      <line x1="93.861922" y1="-34.970221" x2="82.901767" y2="-28.642372" />
      <line x1="93.060343" y1="-34.507429" x2="90.251919" y2="-32.885984" />
    </g>
  </g>
</svg>