<?xml version='1.0' encoding='utf-8'?>
<svg width="97.782654mm" height="154.794824mm" viewBox="-29.992813 -40.658589 52.900416 83.744" version="1.1" xmlns="http://www.w3.org/2000/svg">
  <g transform="scale(1,-1)" stroke-linecap="round">
    <g fill="none" stroke="rgb(0,0,0)" stroke-width="0.21640000022222222" id="Visible">
      <line x1="-11.177776" y1="-38.919223" x2="-8.533197" y2="-37.392374" />
      <line x1="-0.557032" y1="21.558679" x2="2.087547" y2="23.085528" />
      <path d="M -10.929853,-38.776084 C -12.995768,-37.469804 -22.709501,-32.315882 -27.526085,-27.014703 C -28.684444,-25.739802 -29.559565,-24.456384 -29.802969,-23.234324 C -29.969494,-22.398249 -29.840335,-21.590894 -29.774685,-20.784834 C -29.708706,-19.97475 -29.706871,-19.165974 -29.647405,-18.384334 C -29.587615,-17.598433 -29.469565,-16.839965 -29.336278,-16.098143 C -29.201674,-15.348522 -29.050824,-14.613675 -28.88373,-13.893603 C -28.713983,-13.162291 -28.52684,-12.443861 -28.296831,-11.766629 C -28.058717,-11.065532 -27.774663,-10.408587 -27.462445,-9.782542 C -27.136447,-9.128865 -26.779745,-8.508876 -26.380572,-7.941343 C -25.951458,-7.333441 -25.477697,-6.785028 -24.959287,-6.296102 C -24.394453,-5.759705 -23.78163,-5.299724 -23.120816,-4.916159" />
      <path d="M 8.03674,-3.089562 C 8.289728,-2.485559 8.332362,-1.645858 8.204021,-0.76842 C 8.062664,0.198 7.713895,1.210198 7.320137,2.20771 C 6.881759,3.318262 6.387618,4.41061 5.88471,5.502274 C 5.368328,6.623188 4.842703,7.74338 4.329075,8.86624 C 3.822245,9.976066 3.324913,11.087862 2.83708,12.201628 C 2.357041,13.288427 1.892708,14.37845 1.44408,15.471697 C 0.61642,17.500904 -0.121617,19.544225 -0.557032,21.558679" />
      <path d="M -8.533197,-37.392374 C -8.140375,-37.52975 -7.93897,-37.583059 -7.900332,-37.560751" />
      <path d="M -7.900332,-37.560751 C -7.566292,-37.367893 -19.397766,-31.523311 -24.881506,-25.487854 C -26.039865,-24.212953 -26.914986,-22.929535 -27.158389,-21.707475 C -27.324915,-20.8714 -27.195756,-20.064045 -27.130105,-19.257985 C -27.064127,-18.447901 -27.062292,-17.639126 -27.002826,-16.857485 C -26.943036,-16.071585 -26.824985,-15.313116 -26.691699,-14.571295 C -26.557094,-13.821674 -26.406245,-13.086827 -26.239151,-12.366754 C -26.069404,-11.635442 -25.882261,-10.917013 -25.652252,-10.23978 C -25.414138,-9.538684 -25.130084,-8.881739 -24.817866,-8.255694 C -24.491868,-7.602017 -24.135166,-6.982027 -23.735993,-6.414494 C -23.306879,-5.806593 -22.833117,-5.258179 -22.314708,-4.769253 C -21.749874,-4.232857 -21.13705,-3.772876 -20.476237,-3.389311" />
      <path d="M -20.476237,-3.389311 C -18.777814,-2.409084 -16.782646,-1.985134 -14.734523,-1.740051 C -13.483726,-1.589368 -12.208576,-1.503636 -10.909076,-1.482855 C -9.409977,-1.462098 -7.884984,-1.520614 -6.334095,-1.658401 C -4.563885,-1.812671 -2.767015,-2.059531 -0.974225,-2.287104 C 0.833981,-2.513347 2.637103,-2.729719 4.435142,-2.936219 C 5.924239,-3.109956 7.409207,-3.283605 8.755564,-2.964796 C 9.11073,-2.880695 9.45625,-2.762324 9.761997,-2.585801" />
      <path d="M 9.761997,-2.585801 C 10.145133,-2.364597 10.465813,-2.052077 10.664752,-1.601247 C 10.9324,-0.99471 10.979694,-0.137827 10.8486,0.758428 C 10.707243,1.724849 10.358474,2.737047 9.964717,3.734559 C 9.526338,4.84511 9.032197,5.937459 8.52929,7.029122 C 8.012907,8.150037 7.487283,9.270229 6.973655,10.393088 C 6.466825,11.502915 5.969493,12.614711 5.48166,13.728477 C 5.00162,14.815275 4.537287,15.905298 4.088659,16.998545 C 3.261,19.027753 2.522963,21.071074 2.087547,23.085528" />
      <line x1="2.087547" y1="23.085528" x2="12.651722" y2="16.986298" />
      <line x1="-4.149135" y1="-42.977211" x2="-1.504555" y2="-41.450362" />
      <path d="M 16.278801,-18.701016 C 15.806231,-18.970539 15.309026,-19.194299 14.787185,-19.372295 C 13.801909,-19.713738 12.75001,-19.913852 11.668844,-20.037739 C 10.383646,-20.185006 9.057091,-20.224561 7.716117,-20.221451 C 6.252991,-20.218058 4.772699,-20.163872 3.303771,-20.139801 C 1.887051,-20.116586 0.480901,-20.121383 -0.910586,-20.180626 C -2.242291,-20.237072 -3.560201,-20.34438 -4.732976,-20.76273" />
      <path d="M -8.585433,-37.064369 Q -8.500698,-37.249932 -8.411741,-37.434239" />
      <path d="M 12.651722,16.986298 C 13.32624,15.788286 13.988563,14.583953 14.638692,13.373301 C 15.873231,11.078482 17.046664,8.75505 18.153013,6.412667 C 18.683534,5.292709 19.202079,4.168665 19.708648,3.040536 C 20.192979,1.96196 20.666919,0.878514 21.066293,-0.20912 C 21.434109,-1.21081 21.738679,-2.216051 21.999674,-3.213827 C 22.247901,-4.162793 22.456713,-5.105006 22.593644,-6.022576 C 22.856504,-7.797858 22.859575,-9.476036 22.650212,-10.986875 C 22.541992,-11.761296 22.375677,-12.493122 22.141095,-13.158756 C 21.886509,-13.871097 21.563596,-14.509325 21.172359,-15.07344 C 20.560854,-15.966216 19.801042,-16.672599 18.92338,-17.174167" />
      <path d="M 18.92338,-17.174167 C 18.450811,-17.443691 17.953605,-17.66745 17.431764,-17.845446 C 16.446488,-18.186889 15.39459,-18.387003 14.313423,-18.510891 C 11.624344,-18.817946 8.762114,-18.658277 5.94835,-18.612953 C 4.531631,-18.589738 3.125481,-18.594534 1.733994,-18.653778 C 0.536077,-18.70478 -0.650972,-18.796133 -1.73083,-19.119181 C -2.33621,-19.302932 -2.908425,-19.551766 -3.447475,-19.865684" />
      <path d="M -3.447475,-19.865684 C -4.29145,-20.357616 -5.068001,-20.966952 -5.718912,-21.7483 C -6.156104,-22.274172 -6.535544,-22.879572 -6.82907,-23.57317 C -7.099624,-24.212485 -7.297185,-24.926733 -7.43011,-25.691978 C -7.560801,-26.432539 -7.62444,-27.217736 -7.621029,-28.047571 C -7.615364,-28.880454 -7.535246,-29.755388 -7.394755,-30.652195 C -7.248913,-31.583163 -7.038011,-32.537703 -6.730075,-33.501768 C -6.377422,-34.605829 -5.897507,-35.722381 -5.315861,-36.784084 C -4.32375,-38.595028 -3.035664,-40.246394 -1.504555,-41.450362" />
      <line x1="-4.149135" y1="-42.977211" x2="-11.177776" y2="-38.919223" />
      <line x1="-1.504555" y1="-41.450362" x2="-8.533197" y2="-37.392374" />
      <line x1="0.241998" y1="22.019999" x2="-1.377276" y2="22.954888" />
      <line x1="-1.377276" y1="22.954888" x2="-1.377276" y2="34.630789" />
      <line x1="22.310801" y1="21.117771" x2="8.875772" y2="28.874488" />
      <line x1="8.875772" y1="28.874488" x2="8.875772" y2="40.550389" />
      <line x1="22.310801" y1="32.793672" x2="8.875772" y2="40.550389" />
      <line x1="22.310801" y1="21.117771" x2="22.310801" y2="32.793672" />
      <line x1="13.262416" y1="15.893683" x2="22.310801" y2="21.117771" />
      <line x1="-1.377276" y1="22.954888" x2="8.875772" y2="28.874488" />
      <line x1="-1.377276" y1="34.630789" x2="8.875772" y2="40.550389" />
      <path d="M -23.120816,-4.916159 L -20.476237,-3.389311" />
      <path d="M 16.278801,-18.701016 L 18.92338,-17.174167" />
    </g>
    <g fill="none" stroke="rgb(140,140,140)" stroke-width="0.13525000013888888" id="Hidden" stroke-dasharray="1.623 0.40575">
      <path d="M -11.177776,-38.919223 C -10.784954,-39.056599 -10.58355,-39.109907 -10.544912,-39.0876" />
      <path d="M -10.544912,-39.0876 C -10.504272,-39.064136 -10.643698,-38.95702 -10.929853,-38.776084" />
      <path d="M -23.120816,-4.916159 C -21.422393,-3.935933 -19.427225,-3.511983 -17.379103,-3.2669 C -16.128305,-3.116216 -14.853156,-3.030484 -13.553655,-3.009703 C -12.054557,-2.988947 -10.529563,-3.047462 -8.978674,-3.18525 C -7.208464,-3.33952 -5.411594,-3.586379 -3.618805,-3.813952 C -1.810599,-4.040196 -0.007477,-4.256567 1.790562,-4.463067 C 3.27966,-4.636805 4.764628,-4.810453 6.110985,-4.491645 C 6.466151,-4.407543 6.811671,-4.289173 7.117418,-4.11265" />
      <path d="M 7.117418,-4.11265 C 7.511378,-3.885199 7.839298,-3.561193 8.03674,-3.089562" />
      <line x1="10.007143" y1="15.459449" x2="12.651722" y2="16.986298" />
      <line x1="-0.557032" y1="21.558679" x2="10.007143" y2="15.459449" />
      <path d="M 10.007143,15.459449 C 10.681661,14.261437 11.343984,13.057105 11.994113,11.846452 C 13.228652,9.551634 14.402084,7.228201 15.508434,4.885819 C 16.038954,3.76586 16.557499,2.641817 17.064069,1.513688 C 17.5484,0.435111 18.022339,-0.648335 18.421714,-1.735969 C 18.78953,-2.737658 19.0941,-3.7429 19.355095,-4.740676 C 19.603322,-5.689642 19.812133,-6.631854 19.949064,-7.549424 C 20.211925,-9.324707 20.214996,-11.002885 20.005633,-12.513723 C 19.897413,-13.288145 19.731098,-14.01997 19.496516,-14.685604 C 19.241929,-15.397946 18.919017,-16.036174 18.52778,-16.600289 C 17.916275,-17.493065 17.156463,-18.199448 16.278801,-18.701016" />
      <path d="M -4.732976,-20.76273 Q -5.444328,-21.016488 -6.092054,-21.392533" />
      <path d="M -6.092054,-21.392533 C -6.936029,-21.884465 -7.71258,-22.4938 -8.363491,-23.275148 C -8.800684,-23.80102 -9.180123,-24.406421 -9.473649,-25.100018 C -9.744203,-25.739334 -9.941765,-26.453582 -10.07469,-27.218827 C -10.20538,-27.959387 -10.26902,-28.744585 -10.265608,-29.574419 C -10.259943,-30.407303 -10.179825,-31.282236 -10.039334,-32.179044 C -9.893492,-33.110012 -9.68259,-34.064552 -9.374654,-35.028617 C -9.156755,-35.71031 -8.893682,-36.388894 -8.585433,-37.064369" />
      <path d="M -8.411741,-37.434239 C -7.373125,-39.583884 -5.924087,-41.58147 -4.149135,-42.977211" />
      <line x1="12.057753" y1="15.198171" x2="0.241998" y2="22.019999" />
      <line x1="12.057753" y1="26.874072" x2="-1.377276" y2="34.630789" />
      <line x1="12.057753" y1="15.198171" x2="12.057753" y2="26.874072" />
      <line x1="12.057753" y1="15.198171" x2="13.262416" y2="15.893683" />
      <line x1="12.057753" y1="26.874072" x2="22.310801" y2="32.793672" />
      <path d="M -10.544912,-39.0876 L -7.900332,-37.560751" />
      <path d="M 7.117418,-4.11265 L 9.761997,-2.585801" />
      <path d="M -6.092054,-21.392533 L -3.447475,-19.865684" />
    </g>
  </g>
</svg>