<?xml version='1.0' encoding='utf-8'?>
<svg width="132.4232mm" height="110.447685mm" viewBox="-27.041257 -19.783499 54.082514 45.107568" version="1.1" xmlns="http://www.w3.org/2000/svg">
  <g transform="scale(1,-1)" stroke-linecap="round">
    <g fill="none" stroke="rgb(0,0,0)" stroke-width="0.16336265561264218" id="Visible">
      <line x1="12.679891" y1="-6.579333" x2="10.742419" y2="-5.460733" />
      <line x1="10.742419" y1="-5.460733" x2="9.608881" y2="-2.248212" />
      <line x1="26.959576" y1="7.246183" x2="25.022103" y2="8.364784" />
      <line x1="25.022103" y1="8.364784" x2="23.888565" y2="11.577305" />
      <line x1="25.826038" y1="10.458704" x2="23.888565" y2="11.577305" />
      <line x1="26.959576" y1="7.246183" x2="25.826038" y2="10.458704" />
      <line x1="12.679891" y1="-6.579333" x2="26.959576" y2="7.246183" />
      <line x1="10.742419" y1="-5.460733" x2="25.022103" y2="8.364784" />
      <line x1="9.608881" y1="-2.248212" x2="23.888565" y2="11.577305" />
      <line x1="9.71362" y1="-2.545049" x2="9.272394" y2="-2.290307" />
      <line x1="9.272394" y1="-2.290307" x2="7.194259" y2="-0.187321" />
      <line x1="23.406216" y1="13.864651" x2="21.468743" y2="14.983251" />
      <line x1="21.468743" y1="14.983251" x2="19.390608" y2="17.086238" />
      <line x1="21.328081" y1="15.967638" x2="19.390608" y2="17.086238" />
      <line x1="23.406216" y1="13.864651" x2="21.328081" y2="15.967638" />
      <line x1="17.2594" y1="5.158981" x2="23.406216" y2="13.864651" />
      <line x1="9.272394" y1="-2.290307" x2="21.468743" y2="14.983251" />
      <line x1="7.194259" y1="-0.187321" x2="19.390608" y2="17.086238" />
      <line x1="7.454155" y1="-0.450324" x2="7.059487" y2="-0.222463" />
      <line x1="7.059487" y1="-0.222463" x2="4.166891" y2="0.454945" />
      <line x1="6.104363" y1="-0.663655" x2="4.166891" y2="0.454945" />
      <line x1="8.134861" y1="-1.139171" x2="6.104363" y2="-0.663655" />
      <line x1="17.66546" y1="17.905809" x2="15.727988" y2="19.024409" />
      <line x1="15.727988" y1="19.024409" x2="12.835392" y2="19.701817" />
      <line x1="13.607322" y1="8.895431" x2="17.66546" y2="17.905809" />
      <line x1="7.059487" y1="-0.222463" x2="15.727988" y2="19.024409" />
      <line x1="4.166891" y1="0.454945" x2="12.835392" y2="19.701817" />
      <line x1="-1.407691" y1="-4.314804" x2="-3.345164" y2="-3.196204" />
      <line x1="-3.345164" y1="-3.196204" x2="-6.703822" y2="-6.410428" />
      <line x1="-4.76635" y1="-7.529029" x2="-6.703822" y2="-6.410428" />
      <line x1="-1.407691" y1="-4.314804" x2="-4.76635" y2="-7.529029" />
      <line x1="-6.116302" y1="9.503513" x2="-8.053774" y2="10.622114" />
      <line x1="-8.053774" y1="10.622114" x2="-11.412433" y2="7.407889" />
      <line x1="-1.407691" y1="-4.314804" x2="-6.116302" y2="9.503513" />
      <line x1="-3.345164" y1="-3.196204" x2="-8.053774" y2="10.622114" />
      <line x1="-6.703822" y1="-6.410428" x2="-11.412433" y2="7.407889" />
      <line x1="-4.744981" y1="-7.775279" x2="-6.682453" y2="-6.656679" />
      <line x1="-6.682453" y1="-6.656679" x2="-9.487381" y2="-10.761362" />
      <line x1="-7.549909" y1="-11.879963" x2="-9.487381" y2="-10.761362" />
      <line x1="-4.744981" y1="-7.775279" x2="-7.549909" y2="-11.879963" />
      <line x1="-13.922374" y1="0.736613" x2="-15.859846" y2="1.855214" />
      <line x1="-15.859846" y1="1.855214" x2="-18.664774" y2="-2.24947" />
      <line x1="-4.744981" y1="-7.775279" x2="-5.413047" y2="-7.155658" />
      <line x1="-6.928984" y1="-5.74965" x2="-13.922374" y2="0.736613" />
      <line x1="-6.682453" y1="-6.656679" x2="-15.859846" y2="1.855214" />
      <line x1="-9.487381" y1="-10.761362" x2="-18.664774" y2="-2.24947" />
      <line x1="-7.677011" y1="-12.100327" x2="-9.614484" y2="-10.981726" />
      <line x1="-9.614484" y1="-10.981726" x2="-11.555572" y2="-15.514584" />
      <line x1="-9.6181" y1="-16.633184" x2="-11.555572" y2="-15.514584" />
      <line x1="-7.677011" y1="-12.100327" x2="-9.6181" y2="-16.633184" />
      <line x1="-22.214711" y1="-8.699243" x2="-24.1558" y2="-13.2321" />
      <line x1="-22.218327" y1="-14.350701" x2="-24.1558" y2="-13.2321" />
      <line x1="-9.614484" y1="-10.981726" x2="-22.214711" y2="-8.699243" />
      <line x1="-9.6181" y1="-16.633184" x2="-10.025606" y2="-16.559366" />
      <line x1="-12.76045" y1="-16.063959" x2="-22.218327" y2="-14.350701" />
      <line x1="-11.555572" y1="-15.514584" x2="-24.1558" y2="-13.2321" />
      <line x1="-9.544383" y1="-16.8372" x2="-11.481855" y2="-15.7186" />
      <line x1="-11.481855" y1="-15.7186" x2="-12.390957" y2="-20.188684" />
      <line x1="-10.453484" y1="-21.307284" x2="-12.390957" y2="-20.188684" />
      <line x1="-9.544383" y1="-16.8372" x2="-10.453484" y2="-21.307284" />
      <line x1="-26.050474" y1="-19.653704" x2="-26.959576" y2="-24.123788" />
      <line x1="-25.022103" y1="-25.242388" x2="-26.959576" y2="-24.123788" />
      <line x1="-11.481855" y1="-15.7186" x2="-26.050474" y2="-19.653704" />
      <line x1="-10.453484" y1="-21.307284" x2="-25.022103" y2="-25.242388" />
      <line x1="-12.390957" y1="-20.188684" x2="-26.959576" y2="-24.123788" />
    </g>
    <g fill="none" stroke="rgb(140,140,140)" stroke-width="0.10210165975790135" id="Hidden" stroke-dasharray="1.22522 0.306305">
      <line x1="11.546353" y1="-3.366812" x2="9.608881" y2="-2.248212" />
      <line x1="12.679891" y1="-6.579333" x2="11.546353" y2="-3.366812" />
      <line x1="11.546353" y1="-3.366812" x2="25.826038" y2="10.458704" />
      <line x1="11.209867" y1="-3.408908" x2="9.71362" y2="-2.545049" />
      <line x1="9.131732" y1="-1.305921" x2="7.194259" y2="-0.187321" />
      <line x1="11.209867" y1="-3.408908" x2="9.131732" y2="-1.305921" />
      <line x1="11.209867" y1="-3.408908" x2="17.2594" y2="5.158981" />
      <line x1="9.131732" y1="-1.305921" x2="21.328081" y2="15.967638" />
      <line x1="8.996959" y1="-1.341063" x2="7.454155" y2="-0.450324" />
      <line x1="8.996959" y1="-1.341063" x2="8.134861" y2="-1.139171" />
      <line x1="14.772864" y1="18.583217" x2="12.835392" y2="19.701817" />
      <line x1="17.66546" y1="17.905809" x2="14.772864" y2="18.583217" />
      <line x1="8.996959" y1="-1.341063" x2="13.607322" y2="8.895431" />
      <line x1="6.104363" y1="-0.663655" x2="14.772864" y2="18.583217" />
      <line x1="-9.47496" y1="6.289289" x2="-11.412433" y2="7.407889" />
      <line x1="-6.116302" y1="9.503513" x2="-9.47496" y2="6.289289" />
      <line x1="-4.76635" y1="-7.529029" x2="-9.47496" y2="6.289289" />
      <line x1="-16.727302" y1="-3.368071" x2="-18.664774" y2="-2.24947" />
      <line x1="-13.922374" y1="0.736613" x2="-16.727302" y2="-3.368071" />
      <line x1="-5.413047" y1="-7.155658" x2="-6.928984" y2="-5.74965" />
      <line x1="-7.549909" y1="-11.879963" x2="-16.727302" y2="-3.368071" />
      <line x1="-20.277239" y1="-9.817843" x2="-22.214711" y2="-8.699243" />
      <line x1="-20.277239" y1="-9.817843" x2="-22.218327" y2="-14.350701" />
      <line x1="-7.677011" y1="-12.100327" x2="-20.277239" y2="-9.817843" />
      <line x1="-10.025606" y1="-16.559366" x2="-12.76045" y2="-16.063959" />
      <line x1="-24.113001" y1="-20.772304" x2="-26.050474" y2="-19.653704" />
      <line x1="-24.113001" y1="-20.772304" x2="-25.022103" y2="-25.242388" />
      <line x1="-9.544383" y1="-16.8372" x2="-24.113001" y2="-20.772304" />
    </g>
  </g>
</svg>