<?xml version='1.0' encoding='utf-8'?>
<svg width="137.163484mm" height="79.092696mm" viewBox="-76.655693 -44.202038 153.311386 88.404075" version="1.1" xmlns="http://www.w3.org/2000/svg">
  <g transform="scale(1,-1)" stroke-linecap="round">
    <g fill="none" stroke="rgb(0,0,0)" stroke-width="0.4470909662453137" id="Visible">
      <path d="M -56.408906,34.255767 C -55.742998,32.824689 -55.486187,31.152563 -55.505683,29.670481 C -55.513064,28.934641 -55.583523,28.246283 -55.682392,27.649789 C -55.783831,27.036102 -55.914746,26.520062 -56.032339,26.131858 C -56.160914,25.706818 -56.272432,25.436163 -56.314443,25.32757" />
      <path d="M -56.314443,25.32757 Q -56.336066,25.272815 -56.332142,25.270634" />
      <path d="M -56.332142,25.270634 Q -56.326284,25.268076 -56.214227,25.428136" />
      <line x1="-56.408906" y1="34.255767" x2="-69.111695" y2="41.143175" />
      <path d="M -69.111695,41.143175 C -68.740652,40.34106 -68.492447,39.463707 -68.353763,38.586176 C -68.214208,37.708642 -68.183614,36.831613 -68.224563,36.030098 C -68.284441,34.830287 -68.504167,33.808289 -68.700894,33.134769 C -68.806018,32.772519 -68.903666,32.507326 -68.96566,32.346965" />
      <path d="M -68.96566,32.346965 Q -69.040269,32.161578 -69.03493,32.15804" />
      <path d="M -58.314609,36.772165 Q -57.780566,36.600704 -57.290528,36.335181" />
      <path d="M -57.290528,36.335181 C -56.056999,35.672397 -55.078537,34.550115 -54.459858,33.199" />
      <line x1="-41.75707" y1="26.311593" x2="-54.459858" y2="33.199" />
      <path d="M -44.587739,29.447773 C -43.792824,29.017853 -43.099651,28.402079 -42.545399,27.65153 C -42.24026,27.237353 -41.977484,26.790708 -41.75707,26.311593" />
      <path d="M -70.086218,41.671558 A 4.635,2.590714661007403 61.533605744064964 0,1 -71.049942,43.795486" />
      <path d="M -71.049942,43.795486 A 4.635,2.590714661007403 61.533605744064964 1,1 -75.468424,35.646259" />
      <path d="M -75.468424,35.646259 A 4.635,2.590714661007403 61.533605744064964 0,1 -70.359283,39.967765" />
      <path d="M -70.086218,41.671558 Q -69.755078,41.74798 -69.455699,41.806028" />
      <path d="M -69.455699,41.806028 Q -69.26911,41.484371 -69.111695,41.143175" />
      <path d="M -70.359283,39.967765 C -70.036271,38.282826 -70.144692,36.577637 -70.37776,35.345836 C -70.548272,34.424787 -70.77621,33.765548 -70.897375,33.448929 C -70.92792,33.369666 -70.950886,33.310608 -70.966275,33.271755" />
      <path d="M -70.966275,33.271755 Q -70.987902,33.216989 -70.983978,33.214808" />
      <path d="M -70.983978,33.214808 Q -70.978127,33.212246 -70.866836,33.371239" />
      <path d="M -59.239576,37.391948 C -58.005969,36.729107 -57.027598,35.606872 -56.408906,34.255767" />
      <path d="M -70.359283,39.967765 C -70.555618,39.932586 -70.672447,40.105149 -70.735324,40.307069" />
      <path d="M -70.735324,40.307069 C -70.815743,40.567693 -70.837709,40.884365 -70.839241,41.208612" />
      <path d="M -69.455699,41.806028 C -69.852439,41.563987 -70.505229,41.282084 -70.839241,41.208612" />
      <path d="M -39.808022,25.254826 C -39.249922,24.052109 -38.975546,22.679433 -38.917793,21.392105 C -38.842557,19.827143 -39.082589,18.410043 -39.327425,17.497943 C -39.457799,17.005804 -39.58645,16.653883 -39.661979,16.458639" />
      <path d="M -39.661979,16.458639 Q -39.736594,16.273232 -39.731255,16.269691" />
      <path d="M -27.105232,18.367418 C -26.528845,17.125816 -26.25571,15.702939 -26.209813,14.379927 C -26.15137,12.842417 -26.393368,11.460047 -26.634714,10.572778" />
      <path d="M -41.75707,26.311593 C -41.115785,24.932479 -40.852812,23.329586 -40.853204,21.88869 C -40.850045,20.811801 -40.985959,19.829268 -41.151862,19.071659 C -41.317396,18.311117 -41.509795,17.776686 -41.609846,17.518457 C -41.632592,17.460054 -41.650176,17.415037 -41.6626,17.383407" />
      <path d="M -41.6626,17.383407 Q -41.684227,17.32864 -41.680304,17.326458" />
      <path d="M -41.680304,17.326458 Q -41.674462,17.323889 -41.563854,17.481934" />
      <path d="M -29.935904,21.503599 C -28.702309,20.840764 -27.72394,19.718551 -27.105232,18.367418" />
      <path d="M -54.459858,33.199 C -53.899991,31.992525 -53.625696,30.614978 -53.569067,29.324106 C -53.508772,28.02964 -53.661933,26.831959 -53.857454,25.946236 C -53.889806,25.799076 -53.922892,25.659849 -53.956712,25.528555 C -54.094585,24.991305 -54.23396,24.609164 -54.313821,24.402795" />
      <path d="M -54.313821,24.402795 Q -54.388429,24.21741 -54.383093,24.213866" />
      <path d="M -43.662772,28.827991 Q -43.128898,28.656601 -42.638693,28.391007" />
      <path d="M -42.638693,28.391007 C -41.40502,27.728128 -40.426719,26.605908 -39.808022,25.254826" />
      <line x1="-27.105232" y1="18.367418" x2="-39.808022" y2="25.254826" />
      <line x1="-70.086218" y1="41.671558" x2="-70.839241" y2="41.208612" />
      <path d="M -10.504348,9.366476 C -10.130744,8.558827 -9.881787,7.675198 -9.743599,6.791615" />
      <path d="M -12.453396,10.423243 C -11.969069,9.377948 -11.696627,8.204621 -11.597518,7.070061 C -11.522334,6.223993 -11.54119,5.400799 -11.614592,4.666386 C -11.687586,3.931301 -11.814412,3.285457 -11.944272,2.776175 C -12.122176,2.076797 -12.303087,1.638906 -12.358926,1.49506" />
      <path d="M -12.358926,1.49506 Q -12.380554,1.440293 -12.376631,1.438109" />
      <path d="M -12.376631,1.438109 Q -12.370785,1.435543 -12.259767,1.594155" />
      <path d="M -0.63223,5.615249 C 0.038319,5.252238 0.63722,4.757675 1.14042,4.160367" />
      <path d="M -26.634714,10.572778 C -26.799688,9.958456 -26.958888,9.573043 -27.010766,9.439227" />
      <path d="M -27.010766,9.439227 Q -27.032391,9.384467 -27.028468,9.382284" />
      <path d="M -27.028468,9.382284 Q -27.022621,9.379719 -26.911599,9.538339" />
      <path d="M -15.284068,13.559425 C -14.663156,13.223179 -14.103487,12.774392 -13.624638,12.235288 C -13.15378,11.706201 -12.761007,11.09004 -12.453396,10.423243" />
      <path d="M -29.010936,20.883816 Q -28.476917,20.712365 -27.986855,20.446832" />
      <path d="M -27.986855,20.446832 C -26.75328,19.784022 -25.774843,18.661715 -25.156184,17.31065" />
      <path d="M -25.156184,17.31065 C -24.645419,16.208686 -24.371025,14.965076 -24.285417,13.773229 C -24.219069,12.871104 -24.258102,12.001348 -24.351984,11.243182 C -24.445398,10.48405 -24.592638,9.837117 -24.730239,9.35492 C -24.841085,8.965637 -24.945183,8.682481 -25.010144,8.514458" />
      <path d="M -25.010144,8.514458 Q -25.084759,8.329057 -25.07942,8.325517" />
      <path d="M -14.359099,12.939641 Q -13.825025,12.768166 -13.335019,12.502657" />
      <path d="M -13.335019,12.502657 C -12.577884,12.093041 -11.912645,11.515006 -11.372381,10.81201 C -11.033684,10.372295 -10.743316,9.884198 -10.504348,9.366476" />
      <line x1="-12.453396" y1="10.423243" x2="-25.156184" y2="17.31065" />
      <path d="M 4.147488,1.422302 C 4.51798,0.621374 4.766005,-0.254567 4.904801,-1.1308 C 5.044464,-2.007034 5.075454,-2.882882 5.034979,-3.683649 C 4.975752,-4.883426 4.756537,-5.906076 4.559792,-6.580923 C 4.454097,-6.945819 4.355812,-7.212787 4.293523,-7.373907" />
      <path d="M 4.293523,-7.373907 Q 4.218914,-7.559294 4.224253,-7.562832" />
      <path d="M 16.850277,-5.465105 C 17.517078,-6.898066 17.773639,-8.572706 17.753438,-10.056233 C 17.745734,-10.791248 17.675133,-11.478724 17.576239,-12.074413 C 17.474764,-12.687332 17.34393,-13.20267 17.226434,-13.590372 C 17.098031,-14.014634 16.986705,-14.284826 16.94474,-14.393302" />
      <path d="M 16.94474,-14.393302 Q 16.923117,-14.448057 16.927041,-14.450239" />
      <path d="M 16.927041,-14.450239 Q 16.932902,-14.452796 17.045466,-14.292029" />
      <path d="M 2.198441,2.479069 C 2.372922,2.099882 2.520945,1.707919 2.642512,1.30318 C 2.905672,0.43234 3.04494,-0.480579 3.087264,-1.354294 C 3.130385,-2.228337 3.077307,-3.062456 2.976985,-3.784422 C 2.829949,-4.850224 2.582488,-5.66277 2.425033,-6.100604 C 2.362904,-6.269934 2.318863,-6.386106 2.292908,-6.449118" />
      <path d="M 2.292908,-6.449118 Q 2.271281,-6.503885 2.275205,-6.506065" />
      <path d="M 2.275205,-6.506065 Q 2.281059,-6.508628 2.39314,-6.348532" />
      <path d="M 14.019607,-2.328925 C 15.253228,-2.991775 16.23158,-4.113999 16.850277,-5.465105" />
      <path d="M 1.14042,4.160367 C 1.561141,3.661912 1.915363,3.092449 2.198441,2.479069" />
      <path d="M -9.743599,6.791615 C -9.492378,5.21014 -9.606275,3.643046 -9.825139,2.492126 C -10.003793,1.535546 -10.243338,0.865922 -10.358314,0.570268" />
      <path d="M -10.358314,0.570268 Q -10.432923,0.38488 -10.427584,0.381343" />
      <path d="M 0.292737,4.995467 Q 0.826795,4.824 1.316819,4.558482" />
      <path d="M 1.316819,4.558482 C 2.550465,3.89561 3.528931,2.773231 4.147488,1.422302" />
      <line x1="16.850277" y1="-5.465105" x2="4.147488" y2="1.422302" />
      <line x1="2.198441" y1="2.479069" x2="-10.504348" y2="9.366476" />
      <path d="M 33.451161,-14.466047 C 33.976495,-15.598951 34.251391,-16.882491 34.328846,-18.10368 C 34.390389,-19.045723 34.337918,-19.948195 34.230704,-20.722302 C 34.098424,-21.684423 33.883988,-22.443163 33.727397,-22.903112 C 33.675555,-23.053907 33.632157,-23.173614 33.597204,-23.262234" />
      <path d="M 33.597204,-23.262234 Q 33.522584,-23.447653 33.527928,-23.451182" />
      <path d="M 46.153951,-21.353455 C 46.874956,-22.900365 47.113211,-24.728754 47.048661,-26.294653 C 47.04094,-26.497618 47.028952,-26.69663 47.012697,-26.891687 C 46.994961,-27.103621 46.973234,-27.308054 46.947513,-27.504987 C 46.862644,-28.159713 46.738656,-28.727737 46.617568,-29.173657 C 46.496459,-29.620383 46.378799,-29.944881 46.305993,-30.134079" />
      <path d="M 31.502112,-13.409279 C 32.144755,-14.791261 32.407421,-16.397954 32.405997,-17.841167 C 32.408402,-18.917835 32.27192,-19.899654 32.105811,-20.65613 C 31.940067,-21.415546 31.747825,-21.948437 31.648348,-22.204977 C 31.626074,-22.262136 31.608819,-22.306299 31.596583,-22.337466" />
      <path d="M 31.596583,-22.337466 Q 31.574956,-22.392232 31.578879,-22.394415" />
      <path d="M 31.578879,-22.394415 Q 31.584719,-22.396984 31.695218,-22.239093" />
      <path d="M 43.323279,-18.217274 C 44.556865,-18.88009 45.535217,-20.0023 46.153951,-21.353455" />
      <path d="M 28.671444,-10.2731 C 29.467636,-10.703688 30.162013,-11.320986 30.716753,-12.073359 C 31.020625,-12.486419 31.282411,-12.931725 31.502112,-13.409279" />
      <path d="M 14.944574,-2.948707 Q 15.478599,-3.120161 15.968655,-3.385692" />
      <path d="M 15.968655,-3.385692 C 17.202184,-4.04848 18.180641,-5.170749 18.799325,-6.521872" />
      <path d="M 18.799325,-6.521872 C 19.351651,-7.712298 19.626292,-9.069244 19.687655,-10.345198 C 19.719994,-10.992718 19.699907,-11.618791 19.646349,-12.19335 C 19.591293,-12.785905 19.500894,-13.323357 19.400451,-13.780462 C 19.235119,-14.534393 19.044286,-15.062974 18.945362,-15.318078" />
      <path d="M 18.945362,-15.318078 Q 18.870753,-15.503464 18.876089,-15.507006" />
      <path d="M 29.596411,-10.892882 Q 30.130284,-11.064271 30.62049,-11.329866" />
      <path d="M 30.62049,-11.329866 C 31.854165,-11.992746 32.832465,-13.114966 33.451161,-14.466047" />
      <line x1="31.502112" y1="-13.409279" x2="18.799325" y2="-6.521872" />
      <path d="M 62.754835,-30.354396 C 63.471257,-31.8917 63.711267,-33.706895 63.65062,-35.266051" />
      <path d="M 75.457624,-37.241804 Q 75.539771,-37.419718 75.614047,-37.602139" />
      <path d="M 60.805787,-29.297629 C 61.291675,-30.346264 61.564273,-31.523759 61.662623,-32.66169 C 61.737015,-33.507556 61.717504,-34.330243 61.64365,-35.063899 C 61.570205,-35.798229 61.443131,-36.443069 61.313253,-36.951203 C 61.135875,-37.646831 60.955925,-38.082397 60.900256,-38.225813" />
      <path d="M 60.900256,-38.225813 Q 60.878629,-38.28058 60.882552,-38.282764" />
      <path d="M 60.882552,-38.282764 Q 60.887236,-38.286913 60.999282,-38.126903" />
      <path d="M 72.626953,-34.105623 C 73.258584,-34.447647 73.826859,-34.906245 74.311165,-35.457796 C 74.771043,-35.980509 75.15541,-36.586744 75.457624,-37.241804" />
      <path d="M 46.305993,-30.134079 Q 46.268409,-30.23087 46.248417,-30.281646" />
      <path d="M 46.248417,-30.281646 Q 46.226792,-30.336407 46.230715,-30.338589" />
      <path d="M 46.230715,-30.338589 Q 46.23656,-30.341157 46.347584,-30.182534" />
      <path d="M 57.975115,-26.161448 C 59.208735,-26.824294 60.187114,-27.946553 60.805787,-29.297629" />
      <path d="M 44.248247,-18.837057 Q 44.782262,-19.008506 45.272327,-19.274041" />
      <path d="M 45.272327,-19.274041 C 46.505894,-19.936827 47.484396,-21.059243 48.102999,-22.410222" />
      <path d="M 48.102999,-22.410222 C 48.607239,-23.498085 48.881312,-24.724785 48.97034,-25.901991 C 48.986871,-26.116425 48.997853,-26.336125 49.003024,-26.548142 C 49.024354,-27.401645 48.956597,-28.207079 48.848692,-28.896858 C 48.741106,-29.587572 48.594256,-30.16217 48.465914,-30.578878 C 48.376623,-30.860793 48.304332,-31.069972 48.249038,-31.206415" />
      <path d="M 48.249038,-31.206415 Q 48.174425,-31.391815 48.179763,-31.395356" />
      <path d="M 58.900084,-26.781231 Q 59.434121,-26.95269 59.924164,-27.218215" />
      <path d="M 59.924164,-27.218215 C 61.157864,-27.881118 62.136168,-29.003357 62.754835,-30.354396" />
      <line x1="60.805787" y1="-29.297629" x2="48.102999" y2="-22.410222" />
      <line x1="46.153951" y1="-21.353455" x2="33.451161" y2="-14.466047" />
      <path d="M 75.743787,-37.940216 Q 75.682216,-37.769554 75.614047,-37.602139" />
      <path d="M 76.159083,-36.402144 C 75.697556,-35.900431 75.164122,-35.480924 74.576002,-35.16239" />
      <path d="M 74.576002,-35.16239 Q 74.085963,-34.896867 73.55192,-34.725405" />
      <path d="M 62.831599,-39.33953 Q 62.82627,-39.335967 62.900869,-39.150604" />
      <path d="M 62.900869,-39.150604 C 63.012147,-38.864236 63.240001,-38.228691 63.416538,-37.320421 C 63.531612,-36.730583 63.623874,-36.029174 63.65062,-35.266051" />
      <path d="M 76.159083,-36.402144 C 76.033304,-36.533453 75.935512,-36.719374 75.869821,-36.9039 C 75.760897,-37.212138 75.718602,-37.51897 75.695175,-37.8087" />
      <path d="M 76.159083,-36.402144 A 4.635,2.590714661007403 61.533605744064964 0,1 75.468424,-35.646259" />
      <path d="M 71.049942,-43.795486 A 4.635,2.590714661007403 61.533605744064964 0,1 76.432147,-37.770187" />
      <path d="M 75.743787,-37.940216 Q 76.100846,-37.846708 76.432147,-37.770187" />
      <line x1="75.457624" y1="-37.241804" x2="62.754835" y2="-30.354396" />
      <path d="M -55.789028,25.753676 C -55.806616,25.742835 -55.611527,26.129601 -55.420395,26.855268 C -55.176138,27.74566 -54.951219,29.149753 -55.094132,30.651669 C -55.228226,32.151051 -55.742007,33.726601 -56.735353,34.888227" />
      <path d="M -10.476658,1.504118 C -10.484046,1.506626 -10.245386,1.970037 -10.021353,2.90587 C -9.798643,3.830801 -9.604784,5.227579 -9.743599,6.791615" />
      <path d="M 17.743016,-13.890297 C 17.730073,-13.895345 17.918072,-13.522638 18.104969,-12.815108 C 18.24086,-12.315855 18.375465,-11.653768 18.437849,-10.89111 C 18.500791,-10.129344 18.490559,-9.268028 18.351884,-8.394536 C 18.214216,-7.521364 17.947143,-6.637464 17.523603,-5.839478 C 17.101462,-5.040994 16.522163,-4.33046 15.798156,-3.790811" />
      <path d="M 62.903622,-38.473302 C 62.899608,-38.465381 63.032317,-38.201375 63.198535,-37.656041 C 63.363678,-37.114461 63.559245,-36.29055 63.65062,-35.266051" />
      <line x1="-44.587739" y1="29.447773" x2="-57.290528" y2="36.335181" />
      <line x1="-56.332142" y1="25.270634" x2="-69.03493" y2="32.15804" />
      <line x1="-59.239576" y1="37.391948" x2="-71.049942" y2="43.795486" />
      <line x1="-70.983978" y1="33.214808" x2="-75.468424" y2="35.646259" />
      <path d="M -68.967787,32.341463 C -68.96573,32.34487 -68.957694,32.371296 -68.943677,32.420741 C -68.93034,32.471816 -68.914809,32.552364 -68.91113,32.641734 C -68.903144,32.824744 -68.942564,33.012127 -69.024683,33.176175 C -69.123906,33.377006 -69.286803,33.54618 -69.484247,33.652941 C -69.734951,33.790587 -70.040584,33.823368 -70.313718,33.74321 C -70.467827,33.70084 -70.628149,33.608945 -70.736546,33.510398 C -70.79006,33.460656 -70.826257,33.423342 -70.845134,33.398457 C -70.86242,33.377063 -70.870143,33.36733 -70.868301,33.36926" />
      <path d="M -70.868301,33.36926 Q -70.863019,33.376521 -70.863437,33.375954" />
      <path d="M -55.789028,25.753676 C -55.914195,25.702443 -56.046942,25.60794 -56.124184,25.529309 C -56.203389,25.449013 -56.217299,25.422187 -56.21646,25.42509" />
      <path d="M -56.21646,25.42509 L -56.216449,25.425105 L -56.211595,25.431785" />
      <path d="M -39.664234,16.452807 C -39.662354,16.455372 -39.654121,16.482499 -39.639534,16.53419 C -39.625717,16.587532 -39.609938,16.671581 -39.607048,16.763962 C -39.600694,16.952962 -39.644565,17.145002 -39.733578,17.312357 C -39.862058,17.557794 -40.087812,17.750632 -40.350559,17.839127 C -40.568906,17.914189 -40.811062,17.917261 -41.03018,17.848835 C -41.179752,17.804721 -41.336161,17.711836 -41.439402,17.616198 C -41.490545,17.567924 -41.524988,17.532053 -41.542731,17.508586 C -41.559226,17.488055 -41.566529,17.478825 -41.56464,17.480896" />
      <path d="M -41.56464,17.480896 L -41.564628,17.480913 L -41.559776,17.48759" />
      <path d="M -55.789028,25.753676 C -55.612186,25.829719 -55.411944,25.858424 -55.217968,25.83329 C -54.908445,25.795475 -54.6189,25.617122 -54.445903,25.357517 C -54.3421,25.204181 -54.278662,25.023639 -54.262681,24.842103 C -54.251558,24.732656 -54.262657,24.604175 -54.281663,24.520157 C -54.300772,24.43385 -54.314678,24.402522 -54.316197,24.39665" />
      <line x1="-29.935904" y1="21.503599" x2="-42.638693" y2="28.391007" />
      <line x1="-41.680304" y1="17.326458" x2="-54.383093" y2="24.213866" />
      <path d="M -10.476658,1.504118 C -10.647866,1.774691 -10.946209,1.963727 -11.267014,2.001339 C -11.462231,2.025808 -11.664073,1.995835 -11.842324,1.917339 C -11.965975,1.865516 -12.097134,1.770452 -12.171768,1.69373 C -12.24853,1.615386 -12.261344,1.59018 -12.260954,1.592561" />
      <path d="M -12.260954,1.592561 L -12.256095,1.599249" />
      <path d="M -26.907939,9.543414 L -26.912802,9.536723" />
      <path d="M -26.912802,9.536723 C -26.912692,9.536497 -26.906174,9.546703 -26.874524,9.583734 C -26.843494,9.619657 -26.784748,9.68043 -26.707432,9.737715 C -26.549022,9.856005 -26.351136,9.932472 -26.15184,9.949381 C -25.899325,9.972825 -25.639183,9.904658 -25.430481,9.760147 C -25.16232,9.578442 -24.984657,9.270262 -24.958852,8.952012 C -24.947783,8.841743 -24.959468,8.711969 -24.978706,8.628457 C -24.998056,8.542571 -25.011379,8.513142 -25.012709,8.507827" />
      <line x1="-15.284068" y1="13.559425" x2="-27.986855" y2="20.446832" />
      <line x1="-27.028468" y1="9.382284" x2="-39.731255" y2="16.269691" />
      <path d="M 4.291266,-7.379744 C 4.29314,-7.377202 4.301381,-7.35005 4.315988,-7.298287 C 4.329824,-7.244864 4.345608,-7.160679 4.348471,-7.068241 C 4.354759,-6.879116 4.310827,-6.687317 4.221917,-6.520143 C 4.120172,-6.326673 3.958671,-6.164797 3.764979,-6.062587 C 3.469839,-5.903372 3.100124,-5.892921 2.798392,-6.031781 C 2.677011,-6.084309 2.54923,-6.178664 2.477007,-6.253486 C 2.402862,-6.329822 2.390155,-6.354161 2.390882,-6.351613" />
      <path d="M 2.390882,-6.351613 L 2.395746,-6.344918" />
      <path d="M 17.743016,-13.890297 C 17.593247,-13.912793 17.454862,-13.962964 17.327862,-14.04081 C 17.23358,-14.09706 17.14061,-14.18142 17.096372,-14.231584 C 17.050296,-14.283322 17.042638,-14.296279 17.042723,-14.295782" />
      <path d="M 17.042723,-14.295782 L 17.047587,-14.289088" />
      <path d="M -10.476658,1.504118 C -10.38383,1.359966 -10.325584,1.192576 -10.30849,1.023291 C -10.295694,0.912123 -10.3058,0.779571 -10.325183,0.692263 C -10.344645,0.602622 -10.359251,0.569875 -10.360623,0.564298" />
      <line x1="14.019607" y1="-2.328925" x2="1.316819" y2="4.558482" />
      <line x1="2.275205" y1="-6.506065" x2="-10.427584" y2="0.381343" />
      <line x1="-0.63223" y1="5.615249" x2="-13.335019" y2="12.502658" />
      <line x1="-12.376631" y1="1.438109" x2="-25.07942" y2="8.325517" />
      <path d="M 33.59495,-23.268063 C 33.596833,-23.265504 33.605085,-23.2383 33.619708,-23.186453 C 33.633556,-23.132947 33.64934,-23.048641 33.652163,-22.956056 C 33.658374,-22.766635 33.61418,-22.574474 33.524869,-22.407125 C 33.40139,-22.172327 33.189099,-21.985576 32.940234,-21.893069 C 32.713584,-21.807235 32.458243,-21.800183 32.228268,-21.872265 C 32.078893,-21.916426 31.922587,-22.009363 31.819532,-22.104899 C 31.768485,-22.153111 31.734112,-22.188922 31.716415,-22.212331 C 31.699961,-22.232815 31.69267,-22.24203 31.694543,-22.239977" />
      <path d="M 31.694543,-22.239977 L 31.694571,-22.239938 L 31.699407,-22.233283" />
      <path d="M 17.743016,-13.890297 C 17.945736,-13.860265 18.158473,-13.888864 18.347455,-13.973052 C 18.655272,-14.106931 18.892489,-14.391585 18.969503,-14.71639 C 19.002489,-14.846128 19.00906,-14.999249 18.990907,-15.123497 C 18.972723,-15.250079 18.945776,-15.31359 18.943825,-15.322053" />
      <line x1="28.671444" y1="-10.2731" x2="15.968655" y2="-3.385692" />
      <line x1="16.927041" y1="-14.450239" x2="4.224253" y2="-7.562832" />
      <path d="M 62.903622,-38.473302 C 62.831062,-38.245634 62.679812,-38.041044 62.480145,-37.904629 C 62.223688,-37.726213 61.888495,-37.66675 61.587278,-37.745014 C 61.42562,-37.783998 61.257966,-37.874382 61.141356,-37.97721 C 61.083688,-38.029446 61.044454,-38.069175 61.023652,-38.096395 C 61.004679,-38.119794 60.996205,-38.130433 60.998229,-38.128312" />
      <path d="M 60.998229,-38.128312 Q 60.998454,-38.128021 61.003088,-38.121624" />
      <path d="M 46.351244,-30.177459 L 46.346381,-30.18415" />
      <path d="M 46.346381,-30.18415 C 46.346489,-30.184376 46.353003,-30.174181 46.384591,-30.137218 C 46.41556,-30.10136 46.474179,-30.040686 46.551369,-29.983441 C 46.709514,-29.865233 46.907271,-29.788616 47.106523,-29.771565 C 47.370714,-29.746727 47.643205,-29.822595 47.856652,-29.980607 C 48.052351,-30.123629 48.197686,-30.333707 48.262873,-30.565731 C 48.304172,-30.705876 48.314391,-30.872029 48.295133,-31.007952 C 48.28477,-31.076306 48.274039,-31.127678 48.262939,-31.162068 C 48.253302,-31.193562 48.247831,-31.210512 48.246524,-31.212917" />
      <line x1="57.975115" y1="-26.161448" x2="45.272327" y2="-19.274041" />
      <line x1="46.230715" y1="-30.338589" x2="33.527928" y2="-23.451182" />
      <line x1="43.323279" y1="-18.217274" x2="30.62049" y2="-11.329866" />
      <line x1="31.578879" y1="-22.394415" x2="18.876089" y2="-15.507006" />
      <path d="M 62.903622,-38.473302 C 62.952167,-38.621825 62.966462,-38.784943 62.94968,-38.929965 C 62.941851,-39.001834 62.926194,-39.066954 62.915975,-39.102079 C 62.90567,-39.13613 62.899876,-39.154269 62.898591,-39.156495" />
      <line x1="75.468424" y1="-35.646259" x2="74.576002" y2="-35.16239" />
      <line x1="71.049942" y1="-43.795486" x2="62.831599" y2="-39.33953" />
      <line x1="72.626953" y1="-34.105623" x2="59.924164" y2="-27.218215" />
      <line x1="60.882552" y1="-38.282764" x2="48.179763" y2="-31.395356" />
    </g>
    <g fill="none" stroke="rgb(140,140,140)" stroke-width="0.27943185390332104" id="Hidden" stroke-dasharray="3.353182 0.838296">
      <path d="M -56.214227,25.428136 L -56.211595,25.431785" />
      <path d="M -56.211595,25.431785 C -56.163291,25.499502 -56.09868,25.585804 -56.017761,25.690693 C -55.699353,26.102212 -55.101409,26.792059 -54.23219,27.515549" />
      <path d="M -69.03493,32.15804 Q -69.030961,32.155942 -68.996869,32.203944" />
      <path d="M -68.996869,32.203944 C -68.965306,32.249061 -68.91128,32.323704 -68.83479,32.427873 C -68.650913,32.675427 -68.325528,33.084121 -67.84686,33.567132 C -67.369715,34.049415 -66.738928,34.604381 -65.984719,35.125083 C -65.154581,35.699786 -64.174655,36.229693 -63.131148,36.586906" />
      <path d="M -63.131148,36.586906 C -62.509401,36.800467 -61.866035,36.953375 -61.223427,37.027514 C -60.223515,37.144177 -59.226701,37.066266 -58.314609,36.772165" />
      <path d="M -54.23219,27.515549 C -53.613844,28.031457 -52.860989,28.560757 -52.019643,29.005948 C -51.179131,29.451938 -50.25047,29.812435 -49.302656,30.011986 C -48.481669,30.185915 -47.646524,30.239238 -46.845828,30.148001 C -46.044855,30.057785 -45.27853,29.822939 -44.587739,29.447773" />
      <path d="M -70.866836,33.371239 L -70.863437,33.375954" />
      <path d="M -70.863437,33.375954 C -70.757797,33.522457 -70.576525,33.765206 -70.309613,34.071639 C -69.969911,34.462139 -69.488856,34.956652 -68.877403,35.46524 C -68.267144,35.973706 -67.526447,36.49486 -66.699223,36.935379 C -66.542236,37.019154 -66.381277,37.100302 -66.216345,37.178823 C -65.023148,37.748837 -63.684458,38.120751 -62.386097,38.135493 C -61.267097,38.152254 -60.182023,37.90508 -59.239576,37.391948" />
      <path d="M -39.731255,16.269691 Q -39.729181,16.26857 -39.720162,16.279621" />
      <path d="M -41.563854,17.481934 L -41.559776,17.48759" />
      <path d="M -41.559776,17.48759 C -41.391498,17.721543 -41.024072,18.206845 -40.430766,18.797172 C -39.7464,19.480968 -38.755333,20.297766 -37.563673,20.95569 C -36.678631,21.446534 -35.687566,21.846916 -34.673151,22.063064 C -34.013991,22.204271 -33.345687,22.268521 -32.693046,22.241968 C -31.712351,22.203468 -30.768766,21.956488 -29.935904,21.503599" />
      <path d="M -54.383093,24.213866 Q -54.379121,24.211772 -54.345029,24.259774" />
      <path d="M -54.345029,24.259774 C -54.242876,24.402229 -53.904672,24.894232 -53.275495,25.540964 C -52.815934,26.014196 -52.202669,26.565762 -51.46351,27.089469 C -50.725596,27.613461 -49.861937,28.1079 -48.934681,28.474431 C -47.999611,28.845571 -47.000923,29.084843 -46.019123,29.127754 C -45.2067,29.164457 -44.406796,29.067459 -43.662772,28.827991" />
      <path d="M -12.259767,1.594155 L -12.256095,1.599249" />
      <path d="M -12.256095,1.599249 C -12.115753,1.794075 -11.839525,2.161173 -11.408432,2.619439 C -11.004307,3.049624 -10.463425,3.558724 -9.804577,4.058652 C -9.14677,4.558667 -8.371046,5.048234 -7.524955,5.441669 C -6.366695,5.983255 -5.076696,6.336211 -3.822391,6.358082 C -2.68804,6.381812 -1.586901,6.135123 -0.63223,5.615249" />
      <path d="M -26.911599,9.538339 L -26.907939,9.543414" />
      <path d="M -26.907939,9.543414 C -26.852994,9.620701 -26.776779,9.721845 -26.679296,9.846846 C -26.445345,10.144559 -26.080571,10.569729 -25.582209,11.044627 C -25.085026,11.519091 -24.454064,12.04205 -23.719131,12.523821 C -22.438876,13.369514 -20.834412,14.068473 -19.223965,14.250944 C -17.831722,14.417154 -16.447751,14.195305 -15.284068,13.559425" />
      <path d="M -39.720162,16.279621 Q -39.710743,16.29117 -39.693196,16.315591" />
      <path d="M -39.693196,16.315591 C -39.611862,16.428565 -39.387943,16.754472 -38.987304,17.205666 C -38.631099,17.607351 -38.134849,18.106325 -37.511161,18.613543 C -36.854149,19.148863 -36.055478,19.691187 -35.167967,20.134082 C -34.183111,20.627474 -33.090098,20.99434 -31.995493,21.130048 C -30.970257,21.259471 -29.94602,21.185422 -29.010936,20.883816" />
      <path d="M -25.07942,8.325517 Q -25.075454,8.323413 -25.041355,8.371424" />
      <path d="M -25.041355,8.371424 C -24.971306,8.468622 -24.797392,8.721367 -24.495957,9.076607 C -24.195603,9.430985 -23.767192,9.887035 -23.216904,10.367789 C -22.599698,10.908016 -21.82734,11.478069 -20.950662,11.96145 C -20.07508,12.445754 -19.095602,12.841516 -18.093248,13.057608 C -17.895549,13.100488 -17.696147,13.136455 -17.495041,13.16551 C -16.419526,13.321676 -15.34016,13.256286 -14.359099,12.939641" />
      <path d="M 4.224253,-7.562832 Q 4.228222,-7.564931 4.262314,-7.516929" />
      <path d="M 4.262314,-7.516929 C 4.293531,-7.472336 4.346693,-7.398856 4.421799,-7.296488 C 4.604677,-7.050025 4.929372,-6.641569 5.407886,-6.158221 C 5.884867,-5.675611 6.516033,-5.119756 7.271114,-4.598104 C 7.454849,-4.470874 7.64616,-4.345945 7.845047,-4.223317 C 8.527415,-3.802931 9.287562,-3.426199 10.084696,-3.14895 C 10.881569,-2.87099 11.715203,-2.693078 12.537561,-2.651372" />
      <path d="M 17.045466,-14.292029 L 17.047587,-14.289088" />
      <path d="M 17.047587,-14.289088 C 17.163768,-14.127933 17.371758,-13.850052 17.684257,-13.499353 C 18.31844,-12.782185 19.417786,-11.756763 20.836897,-10.938099" />
      <path d="M 2.39314,-6.348532 L 2.395746,-6.344918" />
      <path d="M 2.395746,-6.344918 C 2.487996,-6.217013 2.637605,-6.016046 2.851696,-5.763203 C 3.180042,-5.374859 3.664164,-4.862397 4.294372,-4.329016 C 4.923102,-3.795837 5.697992,-3.243527 6.568655,-2.780863 C 6.725765,-2.697188 6.886831,-2.616156 7.051853,-2.537768 C 8.227783,-1.977376 9.544371,-1.609285 10.824159,-1.586196 C 11.960381,-1.561617 13.063436,-1.808228 14.019607,-2.328925" />
      <path d="M -10.427584,0.381343 Q -10.423616,0.379244 -10.389518,0.427252" />
      <path d="M -10.389518,0.427252 C -10.28375,0.574904 -9.922273,1.100498 -9.246642,1.783235 C -8.639781,2.39853 -7.778753,3.132875 -6.735738,3.764267 C -5.961747,4.234287 -5.090206,4.645749 -4.18096,4.921066 C -3.272051,5.197609 -2.325875,5.337039 -1.411561,5.295632 C -0.822075,5.270024 -0.253976,5.169969 0.292737,4.995467" />
      <path d="M 33.527928,-23.451182 Q 33.531897,-23.45328 33.565987,-23.405282" />
      <path d="M 33.565987,-23.405282 C 33.616845,-23.334771 33.721382,-23.183611 33.889894,-22.97039" />
      <path d="M 31.695218,-22.239093 L 31.699407,-22.233283" />
      <path d="M 31.699407,-22.233283 C 31.868204,-21.998599 32.23747,-21.510926 32.834049,-20.918097 C 33.519924,-20.233663 34.512321,-19.417065 35.704796,-18.760047 C 37.080158,-17.994523 38.715682,-17.46525 40.286286,-17.473076 C 41.366539,-17.473159 42.411218,-17.72092 43.323279,-18.217274" />
      <path d="M 20.836897,-10.938099 C 22.110869,-10.195883 23.629827,-9.640569 25.124765,-9.545578 C 26.383295,-9.459364 27.617069,-9.698099 28.671444,-10.2731" />
      <path d="M 12.537561,-2.651372 C 13.367332,-2.608316 14.185214,-2.704259 14.944574,-2.948707" />
      <path d="M 18.876089,-15.507006 Q 18.880061,-15.509101 18.914154,-15.461098" />
      <path d="M 18.914154,-15.461098 C 19.008219,-15.330175 19.298232,-14.908009 19.830895,-14.339945 C 20.268723,-13.872181 20.870446,-13.308996 21.61006,-12.765459 C 22.348228,-12.221705 23.224157,-11.699573 24.172027,-11.308166 C 25.118061,-10.915879 26.134572,-10.655786 27.136625,-10.598435 C 27.984486,-10.548568 28.820816,-10.643183 29.596411,-10.892882" />
      <path d="M 60.999282,-38.126903 L 61.003088,-38.121624" />
      <path d="M 61.003088,-38.121624 C 61.110147,-37.973154 61.294794,-37.725949 61.567568,-37.413715 C 62.053982,-36.85483 62.834299,-36.084813 63.855653,-35.369412 C 64.627968,-34.826691 65.534252,-34.319158 66.504735,-33.955141 C 67.265367,-33.66889 68.064381,-33.470848 68.859129,-33.395923 C 69.653906,-33.320182 70.444206,-33.367867 71.188185,-33.551287 C 71.694346,-33.675647 72.173935,-33.860426 72.626953,-34.105623" />
      <path d="M 46.347584,-30.182534 L 46.351244,-30.177459" />
      <path d="M 46.351244,-30.177459 C 46.376252,-30.14269 46.405516,-30.102797 46.439034,-30.057781 C 46.625127,-29.808065 46.950387,-29.40137 47.425863,-28.922356 C 47.899874,-28.444038 48.524436,-27.894952 49.270207,-27.378961 C 50.015782,-26.861969 50.882649,-26.379839 51.808697,-26.027692 C 52.73417,-25.674269 53.718323,-25.452145 54.683179,-25.421272 C 55.85323,-25.380707 56.991972,-25.625857 57.975115,-26.161448" />
      <path d="M 33.889894,-22.97039 C 33.969438,-22.869188 34.06361,-22.755325 34.17241,-22.628802 C 34.68604,-22.031064 35.553345,-21.172221 36.702037,-20.399575 C 37.424368,-19.912065 38.25309,-19.46176 39.134797,-19.129327 C 40.159865,-18.740997 41.255167,-18.515765 42.316295,-18.530413 C 42.98219,-18.538583 43.634244,-18.639622 44.248247,-18.837057" />
      <path d="M 48.179763,-31.395356 Q 48.183732,-31.397455 48.217828,-31.349449" />
      <path d="M 48.217828,-31.349449 C 48.289475,-31.250022 48.470098,-30.987455 48.784675,-30.619063 C 49.098069,-30.251598 49.545948,-29.779293 50.120659,-29.285115 C 50.737963,-28.753342 51.502899,-28.197715 52.366449,-27.727647 C 53.229003,-27.256705 54.189778,-26.873006 55.172299,-26.661889 C 55.349896,-26.623513 55.529162,-26.590656 55.7101,-26.563319 C 56.290855,-26.47489 56.865344,-26.452347 57.43357,-26.495688 C 57.939285,-26.53512 58.428123,-26.630301 58.900084,-26.781231" />
      <path d="M 73.55192,-34.725405 C 73.060273,-34.568254 72.550595,-34.471527 72.022886,-34.435226 C 70.81054,-34.348564 69.534955,-34.590608 68.356603,-35.048979 C 67.456419,-35.396869 66.613679,-35.866519 65.885679,-36.369815 C 65.156614,-36.872804 64.542438,-37.408008 64.071054,-37.878865 C 63.358306,-38.589546 62.978172,-39.142003 62.869665,-39.29362" />
      <path d="M 62.869665,-39.29362 Q 62.835569,-39.341627 62.831599,-39.33953" />
      <path d="M 75.695175,-37.8087 Q 75.678916,-38.025479 75.679125,-38.233133" />
      <path d="M 75.679125,-38.233133 Q 75.460713,-38.282762 75.433519,-38.231427" />
      <path d="M 75.433519,-38.231427 C 75.409958,-38.185478 75.529593,-38.074233 75.743787,-37.940216" />
      <path d="M 75.468424,-35.646259 A 4.635,2.590714661007403 61.533605744064964 1,1 71.049942,-43.795486" />
      <line x1="76.432147" y1="-37.770187" x2="75.679125" y2="-38.233133" />
      <path d="M -68.96566,32.346965 L -68.968615,32.339239" />
      <path d="M -68.968615,32.339239 L -68.967787,32.341463" />
      <path d="M -68.996869,32.203944 C -68.87634,32.37085 -68.641815,32.684816 -68.254096,33.099066 C -67.868424,33.511294 -67.331457,34.017422 -66.661337,34.514078 C -65.915268,35.067937 -64.998109,35.610053 -64.010147,35.980688 C -63.023745,36.353918 -61.96654,36.555668 -60.982473,36.498837 C -59.952434,36.443764 -59.008803,36.117369 -58.221533,35.535663 C -57.433555,34.957457 -56.799137,34.114979 -56.368409,33.122222 C -56.052371,32.399591 -55.845614,31.603711 -55.735366,30.813851 C -55.624221,30.023696 -55.609585,29.239561 -55.653585,28.532442 C -55.704856,27.703095 -55.835898,26.980128 -55.9706,26.434258 C -56.105875,25.885601 -56.240519,25.519153 -56.314443,25.32757" />
      <path d="M -70.966275,33.271755 C -70.892167,33.463831 -70.757014,33.831677 -70.621405,34.382626 C -70.486373,34.930757 -70.355206,35.656919 -70.304629,36.489503 C -70.23042,37.659642 -70.329368,39.043591 -70.735324,40.307069" />
      <path d="M -39.661979,16.458639 L -39.664935,16.45091" />
      <path d="M -39.664935,16.45091 L -39.664234,16.452807" />
      <path d="M -41.6626,17.383407 C -41.594277,17.560527 -41.473178,17.889119 -41.347405,18.376395 C -41.222189,18.861394 -41.095343,19.500275 -41.028252,20.241084 C -40.960758,20.98072 -40.954231,21.822127 -41.058929,22.681404 C -41.162163,23.539884 -41.380107,24.414533 -41.724596,25.196381 C -42.081302,26.01358 -42.578953,26.73064 -43.185899,27.277661 C -43.792737,27.826588 -44.512371,28.208285 -45.308622,28.404079 C -46.103714,28.601304 -46.976405,28.611849 -47.856569,28.454942 C -48.735704,28.30067 -49.620774,27.974581 -50.411354,27.567547 C -51.531111,26.993352 -52.476283,26.253 -53.136675,25.62331 C -53.803292,24.989381 -54.184716,24.482152 -54.345029,24.259774" />
      <path d="M -54.316197,24.39665 L -54.316777,24.395064" />
      <path d="M -54.316777,24.395064 L -54.313821,24.402795" />
      <path d="M -12.358926,1.49506 C -12.291701,1.669337 -12.173657,1.989535 -12.050126,2.463362 C -11.927139,2.935032 -11.801532,3.555779 -11.731664,4.277274 C -11.661443,4.997654 -11.64807,5.818659 -11.740121,6.661642 C -11.830854,7.503831 -12.030169,8.366522 -12.352117,9.146284 C -12.681335,9.950865 -13.143647,10.66787 -13.711594,11.228209 C -14.279456,11.790357 -14.955618,12.198861 -15.709345,12.433218 C -16.46209,12.668781 -17.293564,12.729742 -18.14462,12.627327 C -18.994497,12.527147 -19.863621,12.259657 -20.658976,11.896619 C -21.893972,11.336434 -22.958924,10.545019 -23.69854,9.860721 C -24.070889,9.517875 -24.366896,9.201404 -24.587551,8.945023 C -24.808841,8.687893 -24.954004,8.492288 -25.041355,8.371424" />
      <path d="M -27.010766,9.439227 C -26.942668,9.615751 -26.822169,9.942701 -26.696835,10.427315 C -26.572053,10.909679 -26.445431,11.545015 -26.377772,12.282047 C -26.309718,13.017918 -26.301827,13.855292 -26.403978,14.711303 C -26.50471,15.566528 -26.718816,16.438747 -27.058886,17.220427 C -27.406667,18.027164 -27.890876,18.738179 -28.481761,19.285651 C -29.072556,19.83494 -29.773194,20.223499 -30.550124,20.432337 C -31.325974,20.64249 -32.179167,20.672255 -33.044662,20.537391 C -33.90908,20.40497 -34.784736,20.103776 -35.575175,19.715885 C -36.742832,19.145724 -37.737363,18.383159 -38.429856,17.731045 C -38.778297,17.40428 -39.055521,17.104574 -39.26307,16.861575 C -39.471184,16.617896 -39.608911,16.432229 -39.693196,16.315591" />
      <path d="M -25.012709,8.507827 L -25.0131,8.506729" />
      <path d="M -25.0131,8.506729 L -25.013093,8.506747 L -25.010144,8.514458" />
      <path d="M 4.293523,-7.373907 L 4.290568,-7.381634" />
      <path d="M 4.290568,-7.381634 L 4.291266,-7.379744" />
      <path d="M 4.262314,-7.516929 C 4.385955,-7.345762 4.635498,-7.011408 5.051349,-6.572738 C 5.464774,-6.136385 6.041095,-5.603408 6.756723,-5.090948 C 7.47052,-4.578592 8.324289,-4.088935 9.244123,-3.742079 C 10.161996,-3.393105 11.145626,-3.194678 12.064112,-3.214226 C 12.818011,-3.227808 13.535278,-3.383831 14.179836,-3.6795 C 14.82495,-3.974529 15.39878,-4.410882 15.879628,-4.967236 C 16.36084,-5.522405 16.748474,-6.198225 17.029792,-6.939561 C 17.312225,-7.679647 17.485725,-8.484872 17.567605,-9.264499 C 17.701201,-10.521405 17.597544,-11.724432 17.429955,-12.626753 C 17.262231,-13.536685 17.043971,-14.136777 16.94474,-14.393302" />
      <path d="M 2.292908,-6.449118 C 2.364432,-6.263692 2.49476,-5.909756 2.626947,-5.381927 C 2.758543,-4.856761 2.888371,-4.163316 2.945662,-3.365365 C 3.003529,-2.568762 2.987299,-1.667954 2.842072,-0.763556 C 2.698805,0.140093 2.421987,1.044774 2.008354,1.825301 C 1.618555,2.566675 1.104804,3.199952 0.49547,3.675518 C -0.113727,4.152456 -0.821653,4.473223 -1.594598,4.625184 C -2.366521,4.778366 -3.204093,4.761844 -4.043485,4.59573 C -4.882149,4.431831 -5.72075,4.115002 -6.47356,3.725895 C -7.588607,3.151489 -8.529126,2.41328 -9.186399,1.785814 C -9.849835,1.154138 -10.229597,0.649074 -10.389518,0.427252" />
      <path d="M -10.360623,0.564298 L -10.361267,0.562549" />
      <path d="M -10.361267,0.562549 L -10.358314,0.570268" />
      <path d="M 33.597204,-23.262234 L 33.594248,-23.269962" />
      <path d="M 33.594248,-23.269962 L 33.59495,-23.268063" />
      <path d="M 33.565987,-23.405282 C 33.668118,-23.263854 33.848764,-23.021343 34.136325,-22.698721 C 34.422487,-22.377746 34.813921,-21.98072 35.306156,-21.566" />
      <path d="M 46.483722,-29.580697 C 46.676435,-28.921435 46.906708,-27.839971 46.930215,-26.56071 C 46.95863,-25.28764 46.763987,-23.8246 46.229273,-22.568156 C 45.897595,-21.779156 45.438152,-21.077312 44.875036,-20.527903 C 44.312069,-19.976653 43.645428,-19.577839 42.903353,-19.345195" />
      <path d="M 31.596583,-22.337466 C 31.664899,-22.160363 31.785979,-21.831825 31.911738,-21.344634 C 32.036939,-20.85972 32.163778,-20.220954 32.230888,-19.480267 C 32.2984,-18.740754 32.304971,-17.899475 32.200355,-17.040299 C 32.097201,-16.18192 31.879377,-15.307344 31.535032,-14.525505 C 31.178667,-13.708763 30.681541,-12.991979 30.075234,-12.444971 C 29.469033,-11.896061 28.750163,-11.514115 27.954691,-11.317815 C 27.160374,-11.120091 26.288471,-11.108786 25.408898,-11.264818 C 24.530356,-11.418222 23.645662,-11.743322 22.855084,-12.1496 C 21.733415,-12.723695 20.786335,-13.464915 20.124661,-14.095518 C 19.456738,-14.730368 19.074628,-15.238494 18.914154,-15.461098" />
      <path d="M 18.943825,-15.322053 Q 18.942507,-15.326243 18.942406,-15.325808" />
      <path d="M 18.942406,-15.325808 Q 18.941875,-15.327181 18.945362,-15.318078" />
      <path d="M 60.900256,-38.225813 C 60.967486,-38.051527 61.085539,-37.731302 61.209077,-37.257432 C 61.332071,-36.78572 61.457683,-36.164915 61.527543,-35.443358 C 61.597755,-34.722917 61.611106,-33.901846 61.519016,-33.058809 C 61.428244,-32.216568 61.22887,-31.353837 60.906851,-30.574066 C 60.577482,-29.769282 60.114939,-29.05215 59.546713,-28.491799 C 58.978572,-27.929636 58.302077,-27.52123 57.548003,-27.287083 C 56.794914,-27.051726 55.96308,-26.991086 55.111739,-27.093884 C 54.261574,-27.194443 53.392242,-27.462381 52.596844,-27.825786 C 51.362691,-28.386131 50.29864,-29.177194 49.559627,-29.861087 C 49.187585,-30.203731 48.891818,-30.519989 48.671331,-30.7762 C 48.450209,-31.033159 48.305141,-31.228637 48.217828,-31.349449" />
      <path d="M 46.248417,-30.281646 C 46.302888,-30.140484 46.387863,-29.910908 46.483722,-29.580697" />
      <path d="M 48.246524,-31.212917 L 48.246083,-31.214143" />
      <path d="M 48.246083,-31.214143 L 48.246089,-31.214128 L 48.249038,-31.206415" />
      <path d="M 42.903353,-19.345195 C 42.288172,-19.151314 41.611434,-19.07351 40.917123,-19.110274 C 40.22278,-19.146065 39.511305,-19.295682 38.825767,-19.53038 C 37.451233,-19.996348 36.196507,-20.81056 35.306156,-21.566" />
      <path d="M 62.898591,-39.156495 L 62.897916,-39.158324" />
      <path d="M 62.897916,-39.158324 Q 62.898248,-39.157422 62.900869,-39.150604" />
      <path d="M 62.869665,-39.29362 C 62.985353,-39.133427 63.205003,-38.839166 63.564715,-38.449777 C 63.922665,-38.062192 64.418787,-37.585207 65.039842,-37.108291 C 65.774913,-36.542298 66.688717,-35.979997 67.686542,-35.58281 C 68.739135,-35.160152 69.879168,-34.932092 70.935251,-35.001749 C 71.724193,-35.051203 72.46401,-35.260095 73.117242,-35.622985 C 74.108988,-36.168092 74.909096,-37.088579 75.433519,-38.231427" />
      <path d="M -54.23219,27.515549 C -54.782676,27.009861 -55.174394,26.56123 -55.422402,26.248798 C -55.671544,25.93486 -55.778075,25.757724 -55.789028,25.753676" />
      <path d="M -56.735353,34.888227 C -57.442765,35.725716 -58.390082,36.34586 -59.499167,36.641161 C -60.605335,36.941374 -61.870195,36.912481 -63.131148,36.586906" />
      <path d="M -26.634714,10.572778 C -26.450486,11.383916 -26.305318,12.439544 -26.32527,13.555067 C -26.338656,14.368906 -26.438318,15.211287 -26.645205,16.008462 C -26.851236,16.806191 -27.164292,17.557847 -27.581146,18.205545 C -27.997292,18.854088 -28.516817,19.398297 -29.116636,19.804193 C -29.715952,20.211043 -30.395116,20.479486 -31.11693,20.60236 C -31.838452,20.726201 -32.602158,20.70451 -33.362658,20.55727 C -34.123109,20.410943 -34.87978,20.139272 -35.585824,19.787932 C -36.292128,19.437327 -36.947067,19.007616 -37.510957,18.565321 C -38.075463,18.12338 -38.548148,17.66992 -38.906668,17.281638 C -39.33901,16.813587 -39.60646,16.440402 -39.720162,16.279621" />
      <path d="M 1.14042,4.160367 C 0.591327,4.675783 -0.031637,5.070283 -0.696482,5.33407 C -1.36116,5.598658 -2.067154,5.732816 -2.777823,5.749338 C -4.200973,5.786444 -5.633044,5.341004 -6.823666,4.701196 C -8.019631,4.063956 -8.96911,3.247067 -9.575754,2.607751 C -10.189015,1.964905 -10.458823,1.51114 -10.475781,1.504396 C -10.476073,1.504303 -10.476366,1.504211 -10.476658,1.504118" />
      <path d="M 20.836897,-10.938099 C 19.753288,-11.655019 18.950687,-12.425851 18.45415,-12.983924 C 17.95281,-13.546772 17.753017,-13.891544 17.743016,-13.890297" />
      <path d="M 15.798156,-3.790811 C 14.899619,-3.116 13.773724,-2.714308 12.537561,-2.651372" />
      <path d="M 46.305993,-30.134079 Q 46.386876,-29.909871 46.483722,-29.580697" />
      <path d="M 46.483722,-29.580697 C 46.723407,-28.766622 46.975047,-27.475196 46.949109,-26.072607 C 46.931387,-24.629576 46.614878,-23.094726 45.922,-21.873427 C 45.237163,-20.644551 44.181031,-19.739448 42.903353,-19.345195" />
      <path d="M 42.903353,-19.345195 C 41.682556,-18.957292 40.266156,-19.040672 38.909715,-19.494503 C 37.552846,-19.939461 36.269074,-20.74939 35.306156,-21.566" />
      <path d="M 35.306156,-21.566 C 34.702155,-22.074457 34.224588,-22.576403 33.889894,-22.97039" />
      <path d="M 75.614047,-37.602139 C 75.205637,-36.817631 74.682304,-36.140298 74.071717,-35.613453 C 73.461712,-35.08535 72.765352,-34.70774 72.026694,-34.488296 C 71.288206,-34.267726 70.508268,-34.204768 69.7356,-34.27536 C 68.962761,-34.345137 68.197802,-34.547707 67.484507,-34.836143 C 66.053319,-35.410933 64.848637,-36.332144 64.06977,-37.100158 C 63.677702,-37.483992 63.387457,-37.827987 63.197511,-38.073811 C 63.006846,-38.320188 62.916534,-38.467585 62.904792,-38.473152 C 62.904402,-38.473202 62.904012,-38.473252 62.903622,-38.473302" />
    </g>
  </g>
</svg>