<?xml version='1.0' encoding='utf-8'?>
<svg width="150.530815mm" height="92.564585mm" viewBox="-83.513786 -47.90536 170.730831 104.986002" version="1.1" xmlns="http://www.w3.org/2000/svg">
  <g transform="scale(1,-1)" stroke-linecap="round">
    <g fill="none" stroke="rgb(0,0,0)" stroke-width="0.453676759067952" id="Visible">
      <path d="M 86.990206,-30.464602 C 86.992383,-28.447223 86.386044,-26.782834 85.232736,-25.640382 C 84.083335,-24.494188 82.388864,-23.871818 80.321324,-23.836448 C 78.25644,-23.796876 75.821897,-24.344366 73.264813,-25.423342 C 70.708592,-26.498522 68.03405,-28.103411 65.51267,-30.075104" />
      <path d="M 56.123952,-40.416001 C 54.518777,-43.015882 53.437887,-45.610593 52.998165,-47.919547 C 52.553557,-50.230694 52.750949,-52.251744 53.568995,-53.764146 C 54.38232,-55.280433 55.814767,-56.285226 57.711435,-56.669871 C 59.60458,-57.059241 61.958386,-56.827735 64.518318,-56.000387 C 67.076697,-55.177572 69.836395,-53.760465 72.498983,-51.902308 C 75.162329,-50.047498 77.723563,-47.755126 79.905719,-45.273085 C 82.090778,-42.79247 83.892656,-40.126848 85.116502,-37.564471 C 86.34476,-35.00129 86.992683,-32.54617 86.990206,-30.464602" />
      <path d="M -69.99334,42.935069 C -69.993026,43.846143 -70.134912,44.674842 -70.410163,45.36957 C -70.684826,46.064891 -71.092687,46.625818 -71.608353,47.01743" />
      <path d="M -71.608353,47.01743 C -72.206534,47.473352 -72.950193,47.699526 -73.777268,47.677075 C -74.603853,47.65609 -75.51294,47.386504 -76.428661,46.890816 C -77.344347,46.39646 -78.265654,45.676548 -79.115696,44.791161 C -79.966161,43.906747 -80.744421,42.857836 -81.385527,41.731964 C -82.027444,40.606541 -82.531498,39.405402 -82.855623,38.228787 C -83.180809,37.052024 -83.325708,35.901084 -83.278227,34.87202 C -83.231881,33.842234 -82.993206,32.935462 -82.582121,32.227377 C -82.172051,31.518117 -81.590025,31.008329 -80.884617,30.740556" />
      <path d="M -80.884617,30.740556 C -79.920688,30.370541 -78.724971,30.461266 -77.480592,30.998836 C -76.236709,31.531627 -74.948959,32.5092 -73.814562,33.781839 C -72.678498,35.051341 -71.700163,36.611009 -71.029391,38.221979 C -70.355308,39.832432 -69.991379,41.487979 -69.99334,42.935069" />
      <path d="M -80.884617,30.740556 C -79.220831,30.108641 -77.651026,29.425812 -76.083927,28.727126 C -74.518098,28.029014 -72.931214,27.322743 -71.288389,26.68242 C -69.335025,25.916283 -67.327679,25.247282 -65.302575,24.632929 C -63.27667,24.018316 -61.230584,23.449927 -59.178093,22.878012 C -55.039927,21.727583 -50.870131,20.555308 -46.809065,19.124564 C -42.750686,17.699537 -38.810022,16.006745 -35.173687,13.959768 C -32.884248,12.673939 -30.722535,11.242612 -28.852527,9.72291 C -26.971696,8.20268 -25.378043,6.593099 -23.84205,4.90035 C -22.693185,3.637891 -21.558988,2.320172 -20.323266,0.986459 C -19.090573,-0.345902 -17.751324,-1.688532 -16.274162,-2.964335 C -15.080895,-3.997348 -13.801484,-4.985853 -12.455308,-5.912115 C -11.109304,-6.839169 -9.69764,-7.705259 -8.244126,-8.514492 C -5.33482,-10.134 -2.269177,-11.526999 0.839143,-12.800674 C 4.348581,-14.236363 7.914692,-15.524365 11.468947,-16.790151 C 15.023651,-18.055185 18.5665,-19.298004 22.04154,-20.623004 C 26.775622,-22.425199 31.378196,-24.39778 35.650269,-26.726432 C 38.125012,-28.069687 40.48181,-29.526832 42.774021,-31.073929 C 45.068329,-32.619181 47.315479,-34.252054 49.627559,-35.896968 C 51.202452,-37.019123 52.806572,-38.143916 54.428031,-39.256503 C 56.047003,-40.370021 57.687558,-41.471313 59.26819,-42.571608 C 59.879369,-42.998879 60.457757,-43.407724 61.019343,-43.823116 C 61.579006,-44.236842 62.12316,-44.655427 62.613681,-45.065223 C 63.102845,-45.472738 63.534275,-45.875119 63.825676,-46.193141 C 64.121133,-46.509594 64.257167,-46.734333 64.253025,-46.732793" />
      <path d="M 73.698862,-32.465556 C 73.699261,-32.466906 73.564971,-32.479536 73.363291,-32.472573 C 73.160595,-32.46661 72.889668,-32.442913 72.589501,-32.397977 C 71.984856,-32.308916 71.275335,-32.137981 70.575245,-31.931765 C 69.871022,-31.724854 69.167001,-31.484386 68.46809,-31.228858 C 67.76703,-30.97169 67.071778,-30.703087 66.332534,-30.406555 C 64.299381,-29.589484 62.245783,-28.718878 60.162348,-27.867131 C 58.080226,-27.012203 55.968268,-26.176134 53.853816,-25.342257 C 51.425307,-24.382848 48.994649,-23.424791 46.61925,-22.389857 C 44.243091,-21.356892 41.922191,-20.247049 39.692652,-19.037247 C 36.582666,-17.355654 33.65653,-15.491175 30.86365,-13.518626 C 28.068088,-11.545903 25.396537,-9.46836 22.723301,-7.355959 C 19.507278,-4.816786 16.292483,-2.222434 12.822661,0.2846 C 11.088059,1.536659 9.289447,2.76442 7.398485,3.933887 C 5.508213,5.102978 3.523858,6.213495 1.435741,7.220684 C -1.320368,8.554572 -4.261039,9.692624 -7.280038,10.599043 C -10.298082,11.51406 -13.377417,12.195563 -16.38505,12.848535 C -18.355686,13.277627 -20.304054,13.704637 -22.210129,14.198119 C -24.116392,14.690286 -25.97902,15.251837 -27.784021,15.910144 C -29.589695,16.569523 -31.337419,17.315952 -33.027192,18.149429 C -34.716117,18.98003 -36.349781,19.887558 -37.912874,20.848388 C -39.680214,21.93431 -41.354557,23.087725 -42.951374,24.291169 C -44.549397,25.494894 -46.074584,26.750332 -47.571652,28.045908 C -49.069,29.341424 -50.537682,30.676965 -52.028539,32.039106 C -53.520097,33.400988 -55.032775,34.79056 -56.638122,36.188722 C -57.797214,37.197763 -58.994704,38.200753 -60.255818,39.18386 C -61.514313,40.166825 -62.843407,41.128872 -64.195477,42.041053 C -65.545604,42.954519 -66.907914,43.814177 -68.167111,44.63233 C -69.428705,45.450954 -70.582289,46.235523 -71.608353,47.01743" />
    </g>
    <g fill="none" stroke="rgb(140,140,140)" stroke-width="0.28354797441747" id="Hidden" stroke-dasharray="3.402576 0.850644">
      <path d="M 65.51267,-30.075104 C 63.649212,-31.530498 61.870202,-33.183097 60.27554,-34.940097 C 58.680143,-36.696683 57.269882,-38.556803 56.123952,-40.416001" />
      <path d="M 64.253025,-46.732793 C 64.253187,-46.733992 64.199041,-46.62979 64.145451,-46.439582 C 64.090975,-46.24948 64.036464,-45.973697 64.011976,-45.634581 C 63.959273,-44.954956 64.03673,-44.029465 64.306549,-43.006474 C 64.570402,-41.988414 65.020421,-40.879163 65.605475,-39.810305 C 66.189625,-38.739321 66.90881,-37.70873 67.686582,-36.790597 C 68.24953,-36.126025 68.824514,-35.540132 69.412799,-35.011699 C 70.000113,-34.484797 70.603349,-34.019007 71.192468,-33.631674 C 71.779249,-33.244673 72.355793,-32.938045 72.832238,-32.740642 C 73.069203,-32.641737 73.279808,-32.570289 73.4371,-32.526022 C 73.593523,-32.481401 73.697761,-32.464576 73.698862,-32.465556" />
    </g>
  </g>
</svg>