<?xml version='1.0' encoding='utf-8'?>
<svg width="140.792891mm" height="83.516209mm" viewBox="-78.895954 -47.129304 159.464757 94.592077" version="1.1" xmlns="http://www.w3.org/2000/svg">
  <g transform="scale(1,-1)" stroke-linecap="round">
    <g fill="none" stroke="rgb(0,0,0)" stroke-width="0.4530477506884286" id="Visible">
      <path d="M -54.320685,35.657924 C -53.876248,34.178115 -53.737434,32.51287 -53.8571,30.883242 C -53.941724,29.710313 -54.157602,28.55716 -54.460709,27.504991 C -54.763293,26.452214 -55.152633,25.500683 -55.570349,24.714919 C -55.921147,24.054139 -56.29149,23.50996 -56.64426,23.105567 C -57.266387,22.390021 -57.829066,22.120143 -58.151389,22.298434" />
      <path d="M -43.199181,32.391897 C -42.721178,32.132428 -42.280095,31.814545 -41.875934,31.438249 C -40.863697,30.499055 -40.111992,29.202505 -39.668847,27.713748" />
      <line x1="-54.320685" y1="35.657924" x2="-65.835468" y2="41.901198" />
      <line x1="-39.668847" y1="27.713748" x2="-51.183524" y2="33.956965" />
      <path d="M -67.736025,43.461836 A 8.0,4.471567915438884 61.533605744064964 0,1 -69.379754,46.586913" />
      <path d="M -69.379754,46.586913 A 8.0000004136213,4.471568146630851 61.533605744064964 1,1 -77.006046,32.521363" />
      <path d="M -77.006046,32.521363 A 8.0,4.471567915438884 61.533605744064964 0,1 -68.491919,39.093302" />
      <path d="M -68.491919,39.093302 C -68.571673,37.642869 -68.856464,36.214114 -69.26255,34.957162 C -69.86705,33.073158 -70.740551,31.596106 -71.497051,30.832091 C -72.038429,30.27948 -72.515799,30.084525 -72.803227,30.24261" />
      <path d="M -57.851016,40.336071 C -57.014883,39.8834 -56.282643,39.240094 -55.687126,38.443379 C -55.090854,37.647571 -54.631351,36.698364 -54.320685,35.657924" />
      <path d="M -39.668847,27.713748 C -39.247139,26.308818 -39.10007,24.736947 -39.18926,23.18684 C -39.279517,21.573858 -39.624176,19.989384 -40.104787,18.637499" />
      <path d="M -69.24927,42.462521 C -69.302244,42.625689 -69.089319,42.865844 -68.698811,43.081952 C -68.31329,43.298973 -67.763539,43.483384 -67.289218,43.558538" />
      <path d="M -68.491919,39.093302 C -68.60063,39.096799 -68.675176,39.180192 -68.721818,39.290696 C -68.793922,39.46357 -68.815776,39.689706 -68.828345,39.918323" />
      <line x1="-25.017014" y1="19.769575" x2="-36.532269" y2="26.013107" />
      <path d="M -40.104787,18.637499 C -40.685617,16.993628 -41.461957,15.704931 -42.148644,14.989946 C -42.708239,14.40243 -43.204262,14.191663 -43.499555,14.354261" />
      <path d="M -28.547344,24.447723 C -27.711322,23.995127 -26.978944,23.351741 -26.383439,22.555015 C -25.787158,21.759174 -25.32771,20.810096 -25.017014,19.769575" />
      <path d="M -67.289218,43.558538 C -66.998818,43.605817 -66.730809,43.615269 -66.534527,43.583524 C -66.337302,43.552328 -66.212925,43.480213 -66.183471,43.379513" />
      <path d="M -10.365175,11.8254 C -10.172984,11.179222 -10.036215,10.507194 -9.954869,9.809318 C -9.816171,8.633442 -9.835366,7.408233 -9.982934,6.224279 C -10.129698,5.040065 -10.404379,3.897451 -10.75541,2.879895 C -10.963975,2.278392 -11.192173,1.726624 -11.440004,1.224593 C -11.997101,0.089336 -12.621962,-0.746199 -13.156008,-1.192224 C -13.586188,-1.553616 -13.956429,-1.665005 -14.195881,-1.534088" />
      <path d="M -25.017014,19.769575 C -24.798493,19.039373 -24.652614,18.264584 -24.576545,17.470835 C -24.35801,15.245432 -24.712748,12.877665 -25.365155,10.947918 C -25.890787,9.375713 -26.600212,8.09866 -27.260107,7.311578 C -27.91358,6.526505 -28.511743,6.223669 -28.847716,6.410086" />
      <path d="M -13.895506,16.503547 C -13.591541,16.338693 -13.301998,16.149675 -13.026875,15.936493 C -11.786131,14.980249 -10.871565,13.530759 -10.365175,11.8254" />
      <line x1="-10.365175" y1="11.8254" x2="-21.880001" y2="18.068698" />
      <line x1="4.286661" y1="3.881226" x2="-7.228381" y2="10.124641" />
      <path d="M 0.756328,8.559374 C 1.416728,8.201577 2.012847,7.725385 2.527397,7.147718 C 3.316388,6.264259 3.911067,5.140635 4.286661,3.881226" />
      <path d="M 33.590336,-12.007124 C 34.066089,-13.58985 34.190689,-15.385022 34.02568,-17.121374 C 33.901276,-18.45326 33.610109,-19.748428 33.221791,-20.889225 C 32.834227,-22.031229 32.350475,-23.018375 31.860753,-23.765977 C 31.443387,-24.404505 31.022179,-24.87003 30.654348,-25.138854 C 30.2862,-25.408804 29.971812,-25.482318 29.759628,-25.366611" />
      <path d="M 4.286661,3.881226 C 4.59851,2.840172 4.761481,1.708009 4.787241,0.560354 C 4.816195,-0.687432 4.682764,-1.952793 4.430659,-3.134777 C 4.179359,-4.317328 3.810001,-5.4161 3.388307,-6.345672 C 2.751881,-7.753946 1.998271,-8.763341 1.385491,-9.224548 C 1.002466,-9.515534 0.674676,-9.597668 0.455956,-9.478263" />
      <path d="M 15.408167,0.615199 C 15.600532,0.510891 15.787244,0.3968 15.968302,0.272926 C 17.364381,-0.675423 18.391663,-2.217866 18.938497,-4.062949" />
      <path d="M 18.938497,-4.062949 C 19.333403,-5.379222 19.488087,-6.842867 19.431938,-8.297057 C 19.377719,-9.751338 19.113732,-11.195179 18.721832,-12.474233 C 18.279239,-13.925571 17.674243,-15.161101 17.072306,-16.02443 C 16.69417,-16.568551 16.318246,-16.967769 15.986508,-17.206291 C 15.625203,-17.466789 15.316858,-17.536432 15.107794,-17.422438" />
      <path d="M 30.060002,-7.328975 C 30.42891,-7.529092 30.776328,-7.764558 31.102256,-8.035373 C 32.255615,-8.989368 33.107545,-10.38284 33.590336,-12.007124" />
      <line x1="18.938497" y1="-4.062949" x2="7.423755" y2="2.180304" />
      <line x1="33.590336" y1="-12.007124" x2="22.075278" y2="-5.763701" />
      <line x1="48.242169" y1="-19.951297" x2="36.727109" y2="-13.707872" />
      <path d="M 44.711839,-15.27315 C 45.548008,-15.725853 46.280138,-16.369062 46.875686,-17.165781 C 47.471973,-17.961568 47.931546,-18.910954 48.242169,-19.951297" />
      <path d="M 77.545844,-35.839647 Q 77.590492,-35.988937 77.631126,-36.140605" />
      <path d="M 77.719047,-36.418609 C 78.121403,-36.16744 78.775452,-35.941448 79.322539,-35.869238 C 79.595759,-35.831645 79.839719,-35.82989 80.017321,-35.864085 C 80.195645,-35.897899 80.30704,-35.967499 80.334895,-36.062232" />
      <path d="M 80.334895,-36.062232 C 80.379283,-36.202984 80.230674,-36.399982 79.936841,-36.590037 C 79.646121,-36.780282 79.215576,-36.960061 78.783287,-37.071689" />
      <path d="M 48.242169,-19.951297 C 48.683291,-21.420201 48.823418,-23.071784 48.708328,-24.68992 C 48.632714,-25.771043 48.445743,-26.835469 48.181062,-27.820408 C 47.790818,-29.277629 47.230011,-30.555508 46.646975,-31.498532 C 46.167353,-32.276922 45.674764,-32.829197 45.25628,-33.118607 C 44.909553,-33.359415 44.613989,-33.42115 44.411466,-33.310787" />
      <path d="M 59.363677,-23.217325 C 59.715583,-23.408207 60.047995,-23.631316 60.360913,-23.886653 C 61.536922,-24.841716 62.405037,-26.249984 62.894008,-27.895473" />
      <path d="M 62.894008,-27.895473 C 63.334869,-29.363517 63.475091,-31.014029 63.36036,-32.631259 C 63.243422,-34.322335 62.849612,-35.970747 62.320727,-37.343842 C 62.02753,-38.107733 61.694363,-38.787602 61.352457,-39.354708 C 60.736453,-40.378916 60.094353,-41.026793 59.609602,-41.231945 C 59.389236,-41.324782 59.207136,-41.332454 59.063302,-41.254961" />
      <path d="M 74.015511,-31.161498 C 74.682831,-31.523036 75.284503,-32.005488 75.80272,-32.591326 C 76.584329,-33.472494 77.173599,-34.591042 77.545844,-35.839647" />
      <line x1="62.894008" y1="-27.895473" x2="51.379048" y2="-21.652102" />
      <line x1="77.545844" y1="-35.839647" x2="66.030561" y2="-29.596101" />
      <path d="M 77.704033,-36.427913 L 77.719047,-36.418609" />
      <path d="M 77.704033,-36.427913 Q 77.669354,-36.283287 77.631126,-36.140605" />
      <path d="M 69.51232,-46.920382 A 8.0,4.471567915438884 61.533605744064964 0,1 78.801996,-36.520728" />
      <path d="M 77.704033,-36.427913 Q 78.259792,-36.469625 78.801996,-36.520728" />
      <path d="M -24.678499,5.723923 C -24.176328,6.349107 -23.645183,7.237106 -23.176282,8.329952 C -22.707083,9.421214 -22.301628,10.716127 -22.042708,12.111853 C -21.638774,14.264496 -21.599679,16.654329 -22.091846,18.808969 C -22.575415,20.967175 -23.592983,22.871981 -25.064193,24.152485" />
      <path d="M -44.140486,14.590745 C -44.164114,14.062996 -44.017647,13.734676 -43.752342,13.643348 C -43.487683,13.55044 -43.10519,13.694566 -42.674327,14.068652 C -42.243615,14.441293 -41.765631,15.043287 -41.314071,15.826726 C -40.862177,16.609116 -40.437677,17.571872 -40.104787,18.637499" />
      <path d="M -71.543264,27.919679 C -71.125682,27.874234 -70.4907,28.283909 -69.811655,29.133954 C -69.133139,29.979063 -68.415582,31.26234 -67.847425,32.828494 C -67.277535,34.391543 -66.8616,36.231922 -66.738711,38.105881 C -66.612452,39.979637 -66.781613,41.880252 -67.289218,43.558538" />
      <path d="M 0.700921,-11.406535 C 1.037146,-11.662889 1.651115,-11.421198 2.344122,-10.681405 C 3.036395,-9.947709 3.801153,-8.718918 4.418866,-7.168868 C 5.038728,-5.622479 5.505902,-3.762123 5.662355,-1.865944 C 5.822889,0.03028 5.670173,1.953961 5.162695,3.628861 C 4.698884,5.174267 3.936668,6.505131 2.937447,7.479796 C 1.940525,8.45833 0.70932,9.079162 -0.629446,9.310736" />
      <path d="M 46.623671,-35.523029 C 47.208917,-35.334834 48.044807,-34.50616 48.835758,-33.122145 C 49.627082,-31.746696 50.362069,-29.823214 50.755778,-27.682444 C 51.078694,-25.944692 51.174803,-24.072887 50.959843,-22.296988 C 50.748123,-20.520056 50.224337,-18.844429 49.396307,-17.47086 C 48.571422,-16.094073 47.443694,-15.023176 46.110346,-14.367363 C 44.779033,-13.707217 43.245394,-13.463056 41.664436,-13.620859" />
      <path d="M 77.719047,-36.418609 Q 77.676808,-36.278307 77.631126,-36.140605" />
      <line x1="-43.199181" y1="32.391897" x2="-52.278152" y2="37.314484" />
      <line x1="-58.151389" y1="22.298434" x2="-69.656174" y2="28.536289" />
      <line x1="-57.851016" y1="40.336071" x2="-69.379754" y2="46.586913" />
      <line x1="-72.803227" y1="30.24261" x2="-77.006046" y2="32.521363" />
      <path d="M -24.678499,5.723923 C -23.937055,6.647206 -23.220648,7.962647 -22.672948,9.52257 C -22.124624,11.079953 -21.751655,12.872705 -21.672812,14.68909 C -21.59167,16.505329 -21.805699,18.343769 -22.370035,19.990688 C -22.929817,21.638196 -23.849029,23.092142 -25.064193,24.152485" />
      <path d="M -44.140486,14.590745 C -44.152023,14.306107 -44.136872,14.023977 -44.071776,13.734981 C -44.006536,13.447429 -43.89135,13.15301 -43.698921,12.882796 C -43.520977,12.630439 -43.271814,12.405216 -42.983917,12.254837 C -42.696906,12.102677 -42.37116,12.02536 -42.063981,12.020726 C -41.581868,12.012987 -41.159402,12.158855 -40.797605,12.357185 C -40.434518,12.558991 -40.116154,12.817748 -39.807407,13.129635 C -39.123861,13.824252 -38.462049,14.823255 -37.892645,16.060058 C -37.324224,17.294351 -36.854061,18.761384 -36.578802,20.326062 C -36.302408,21.889908 -36.224108,23.549304 -36.407187,25.147609 C -36.58826,26.745369 -37.031243,28.282909 -37.74164,29.590076 C -38.156155,30.35779 -38.668254,31.064986 -39.265889,31.671803 C -39.863107,32.279341 -40.545106,32.786903 -41.288305,33.17475 C -42.774656,33.954559 -44.502969,34.242055 -46.259831,34.051371" />
      <path d="M -58.786564,22.642824 C -58.810451,22.293871 -58.792977,21.952197 -58.703375,21.595844 C -58.635888,21.337458 -58.525217,21.071545 -58.352521,20.829441 C -58.181271,20.587787 -57.947997,20.369943 -57.674365,20.219847 C -57.395255,20.063321 -57.077411,19.980606 -56.773695,19.966766 C -56.468718,19.951832 -56.17787,20.005774 -55.918735,20.093024 C -55.408759,20.270984 -55.003906,20.55927 -54.613335,20.923444 C -54.227145,21.288928 -53.857673,21.736585 -53.504919,22.266416 C -52.799807,23.324888 -52.150187,24.721047 -51.682365,26.328198 C -51.216326,27.919605 -50.941008,29.72093 -50.961266,31.496641 C -50.97899,33.274072 -51.292268,35.031077 -51.937248,36.575823 C -52.578833,38.121622 -53.555822,39.452821 -54.81151,40.402598 C -56.061195,41.356289 -57.597004,41.918689 -59.196356,42.028111 C -59.759077,42.06823 -60.330778,42.057337 -60.911458,41.995432" />
      <path d="M -73.437865,30.586708 C -73.458416,30.289445 -73.449647,29.993685 -73.390078,29.692467 C -73.330117,29.392633 -73.218304,29.084257 -73.022177,28.799131 C -72.861521,28.564081 -72.64121,28.3502 -72.383107,28.196798 C -72.125842,28.042181 -71.830785,27.948044 -71.543264,27.919679" />
      <path d="M -69.24927,42.462521 L -69.05877,41.715506 L -68.922033,40.930067 L -68.839871,40.11544 L -68.828345,39.918323" />
      <line x1="-28.547344" y1="24.447723" x2="-37.625759" y2="29.370008" />
      <line x1="-43.499555" y1="14.354261" x2="-55.004021" y2="20.591942" />
      <path d="M -66.183471,43.379513 C -65.733822,41.879344 -65.560342,40.23712 -65.624851,38.606242 C -65.71121,36.324618 -66.269364,34.077037 -67.045506,32.286642 C -67.350162,31.580055 -67.687775,30.942663 -68.040559,30.389164 C -68.393686,29.834975 -68.763095,29.365304 -69.148784,28.98015 C -69.549447,28.585664 -69.964715,28.268871 -70.481259,28.069233 C -70.796192,27.949569 -71.160047,27.880501 -71.543264,27.919679" />
      <path d="M 0.700921,-11.406535 C 0.927415,-11.577607 1.19619,-11.699738 1.469742,-11.76106 C 1.743617,-11.823497 2.022268,-11.825126 2.277227,-11.785289 C 2.755247,-11.707336 3.14005,-11.511548 3.494316,-11.264087 C 3.847173,-11.014213 4.16886,-10.704686 4.482007,-10.337697 C 5.106296,-9.601892 5.692203,-8.634905 6.207294,-7.448996 C 6.76316,-6.166839 7.214817,-4.640944 7.45265,-3.03911 C 7.692438,-1.436947 7.720546,0.240903 7.479921,1.835798 C 7.241098,3.43115 6.732045,4.943246 5.944014,6.226237 C 5.15934,7.509839 4.09055,8.563987 2.820749,9.259905 C 1.307141,10.100507 -0.489388,10.415566 -2.304095,10.218725" />
      <path d="M -14.830644,-1.189922 C -14.8514,-1.486733 -14.842105,-1.781663 -14.783413,-2.080399 C -14.724102,-2.37797 -14.615479,-2.682759 -14.420631,-2.969083 C -14.241799,-3.233683 -13.988717,-3.470163 -13.690275,-3.628222 C -13.406079,-3.781631 -13.084495,-3.858827 -12.779116,-3.867204 C -12.472377,-3.876621 -12.181843,-3.817219 -11.923042,-3.725536 C -11.57276,-3.598045 -11.274419,-3.417324 -10.991799,-3.196983 C -10.711887,-2.975924 -10.443753,-2.714846 -10.187398,-2.413747 C -9.673013,-1.812729 -9.182202,-1.049376 -8.737606,-0.141624 C -8.294022,0.764926 -7.90052,1.812998 -7.601473,2.948195 C -7.30181,4.081218 -7.100572,5.309658 -7.03158,6.534352 C -6.941542,8.101945 -7.071606,9.704356 -7.458543,11.182452 C -7.84376,12.661844 -8.488587,14.019383 -9.380776,15.128906 C -10.270298,16.239867 -11.408488,17.099747 -12.707565,17.619317 C -14.0037,18.143055 -15.460594,18.317892 -16.907218,18.168005 C -16.923518,18.166337 -16.939818,18.164668 -16.956117,18.163" />
      <path d="M -29.482358,6.754186 C -29.502935,6.456034 -29.494083,6.15943 -29.434044,5.857315 C -29.373623,5.556615 -29.260849,5.247224 -29.063267,4.961689 C -28.889155,4.707824 -28.64394,4.479293 -28.358274,4.324685 C -28.073569,4.168337 -27.748414,4.085912 -27.44036,4.077267 C -27.131921,4.067226 -26.846966,4.123745 -26.588123,4.214094 C -26.330413,4.307304 -26.093254,4.428507 -25.876648,4.577705 C -25.442776,4.87369 -25.057116,5.252879 -24.678499,5.723923" />
      <path d="M -25.064193,24.152485 C -25.928522,24.912671 -26.959806,25.483456 -28.07744,25.812742 C -29.195188,26.144442 -30.397099,26.237425 -31.608261,26.107341" />
      <path d="M -44.134024,14.698268 L -44.140486,14.590745" />
      <line x1="-13.895506" y1="16.503547" x2="-22.974515" y2="21.426155" />
      <line x1="-28.847716" y1="6.410086" x2="-40.352599" y2="12.647993" />
      <line x1="0.756328" y1="8.559374" x2="-8.322438" y2="13.48185" />
      <line x1="-14.195881" y1="-1.534088" x2="-25.700637" y2="4.703751" />
      <path d="M 46.623671,-35.523029 C 47.124979,-35.352943 47.52392,-35.074905 47.907575,-34.724777 C 48.286811,-34.373325 48.64963,-33.943263 48.996031,-33.434591 C 49.688984,-32.41782 50.330892,-31.079107 50.807059,-29.526739 C 51.331707,-27.822899 51.65344,-25.819719 51.596996,-23.85681 C 51.546523,-21.891392 51.127694,-19.966278 50.309476,-18.343311 C 49.496253,-16.717568 48.27972,-15.39606 46.771485,-14.57012 C 45.268155,-13.737734 43.477463,-13.414236 41.651577,-13.613887" />
      <path d="M 29.124345,-25.022163 C 29.101846,-25.350734 29.117088,-25.673372 29.192715,-26.008753 C 29.256926,-26.279824 29.366561,-26.560607 29.545082,-26.816506 C 29.721879,-27.071809 29.967561,-27.302228 30.25729,-27.456482 C 30.540366,-27.610928 30.861271,-27.689646 31.166452,-27.699422 C 31.472973,-27.710255 31.763772,-27.652145 32.02279,-27.561484 C 32.370892,-27.436341 32.667454,-27.258421 32.948183,-27.041589 C 33.226212,-26.824027 33.492438,-26.567159 33.746859,-26.270984 C 34.257409,-25.679791 34.744553,-24.92925 35.187403,-24.036055 C 35.629228,-23.14403 36.02285,-22.112184 36.325127,-20.992815 C 36.627958,-19.875582 36.835768,-18.662593 36.914727,-17.449916 C 37.019281,-15.882258 36.903428,-14.252476 36.522627,-12.74994 C 36.143934,-11.245203 35.498325,-9.863298 34.601686,-8.737395 C 33.707576,-7.609725 32.562589,-6.740445 31.254579,-6.215911 C 29.948629,-5.687921 28.481491,-5.509311 26.99958,-5.669625" />
      <path d="M 14.473145,-17.078334 C 14.452791,-17.371546 14.461177,-17.663342 14.518548,-17.960307 C 14.576337,-18.256014 14.683836,-18.559631 14.872997,-18.842537 C 15.04967,-19.108692 15.300904,-19.347744 15.598695,-19.508647 C 15.880609,-19.663862 16.200733,-19.743908 16.505628,-19.754944 C 16.811838,-19.767053 17.102819,-19.710152 17.361977,-19.620454 C 17.710018,-19.496727 18.006361,-19.320124 18.286728,-19.104829 C 18.564378,-18.888788 18.830154,-18.63366 19.084054,-18.339445 C 19.593591,-17.752171 20.079739,-17.006488 20.522317,-16.118565 C 20.96386,-15.231802 21.357871,-14.205648 21.661615,-13.091697 C 21.965885,-11.979882 22.176356,-10.771963 22.259063,-9.563131 C 22.369123,-7.991429 22.258241,-6.355469 21.880969,-4.846301 C 21.505825,-3.334917 20.862327,-1.945857 19.965978,-0.813585 C 19.072185,0.320462 17.92566,1.195309 16.614645,1.723479 C 15.305724,2.255142 13.83416,2.435396 12.347747,2.274548" />
      <path d="M -0.178219,-9.134415 C -0.20414,-9.524914 -0.184283,-9.918118 -0.056916,-10.317253 C 0.068951,-10.711301 0.314992,-11.120798 0.700921,-11.406535" />
      <line x1="15.408167" y1="0.615199" x2="6.32924" y2="5.537761" />
      <line x1="0.455956" y1="-9.478263" x2="-11.048495" y2="-3.24059" />
      <line x1="30.060002" y1="-7.328975" x2="20.981217" y2="-2.406489" />
      <line x1="15.107794" y1="-17.422438" x2="3.603053" y2="-11.184608" />
      <line x1="44.711839" y1="-15.27315" x2="35.633058" y2="-10.350667" />
      <line x1="29.759628" y1="-25.366611" x2="18.255157" y2="-19.128928" />
      <path d="M 80.334895,-36.062232 C 80.021665,-35.012867 79.568462,-34.018752 78.979272,-33.146312 C 78.390965,-32.27304 77.667336,-31.521627 76.837088,-30.935207 C 76.00741,-30.34787 75.071779,-29.925711 74.074869,-29.686152 C 73.078217,-29.445587 72.020953,-29.387807 70.954982,-29.50209" />
      <path d="M 58.428644,-40.910851 C 58.407981,-41.21102 58.417031,-41.509597 58.478177,-41.813808 C 58.539686,-42.116538 58.654679,-42.428264 58.855699,-42.714762 C 59.031257,-42.967231 59.277553,-43.19361 59.563357,-43.346101 C 59.848242,-43.500331 60.172634,-43.580673 60.479596,-43.588043 C 60.954538,-43.600095 61.373942,-43.461188 61.732638,-43.269751 C 62.092764,-43.074975 62.407885,-42.824158 62.712883,-42.522251 C 63.397185,-41.840502 64.059036,-40.856066 64.631489,-39.63267 C 65.202838,-38.411802 65.678713,-36.956971 65.962947,-35.400965 C 66.248265,-33.845826 66.338677,-32.191603 66.17007,-30.59364 C 66.00342,-28.996245 65.577297,-27.454294 64.884043,-26.137322 C 64.473877,-25.353148 63.963434,-24.62899 63.364545,-24.00687 C 62.766105,-23.383993 62.080022,-22.862735 61.330525,-22.463998 C 59.831612,-21.662202 58.081964,-21.364627 56.30299,-21.557831" />
      <path d="M 43.77683,-32.966689 C 43.756374,-33.261939 43.764953,-33.55573 43.823425,-33.854838 C 43.882305,-34.152627 43.991952,-34.458643 44.184635,-34.742719 C 44.435007,-35.120506 44.849198,-35.43606 45.306667,-35.562928 C 45.764934,-35.69773 46.236671,-35.652521 46.623671,-35.523029" />
      <line x1="59.363677" y1="-23.217325" x2="50.284987" y2="-18.294891" />
      <line x1="44.411466" y1="-33.310787" x2="32.907008" y2="-27.07311" />
      <line x1="74.015511" y1="-31.161498" x2="64.936779" y2="-26.239041" />
      <line x1="59.063302" y1="-41.254961" x2="47.558795" y2="-35.017257" />
      <line x1="69.51232" y1="-46.920382" x2="62.21026" y2="-42.96123" />
    </g>
    <g fill="none" stroke="rgb(140,140,140)" stroke-width="0.2831548441802679" id="Hidden" stroke-dasharray="3.397858 0.849465">
      <path d="M -58.151389,22.298434 C -58.522396,22.493747 -58.572977,23.270926 -58.172192,24.391753 C -57.751039,25.587103 -56.80677,27.164292 -55.43312,28.643967 C -54.975021,29.140065 -54.476443,29.615865 -53.937387,30.071367 C -52.29054,31.464465 -50.297054,32.559298 -48.328977,32.981573 C -46.485156,33.387516 -44.677031,33.199657 -43.199181,32.391897" />
      <line x1="-65.835468" y1="41.901198" x2="-66.460218" y2="42.239936" />
      <path d="M -66.460218,42.239936 C -65.901561,40.386529 -65.830545,38.240857 -66.13233,36.240984 C -66.262511,35.366569 -66.460468,34.520631 -66.705048,33.737476 C -67.039606,32.664536 -67.461879,31.710748 -67.904445,30.945647 C -68.34688,30.179314 -68.80896,29.601827 -69.219696,29.24895 C -69.663128,28.866624 -70.045625,28.74628 -70.290924,28.880448" />
      <path d="M -70.290924,28.880448 C -70.60807,29.049186 -70.69317,29.641634 -70.455298,30.517292 C -70.295086,31.111386 -69.987533,31.832977 -69.532376,32.610992 C -69.078075,33.388681 -68.476035,34.222316 -67.749523,35.031892 C -66.59839,36.318629 -65.128315,37.53775 -63.527325,38.401639 C -61.732691,39.377967 -59.782171,39.891942 -58.009865,39.747749 C -57.273678,39.690246 -56.568099,39.523516 -55.913906,39.249369" />
      <path d="M -55.913906,39.249369 Q -55.61904,39.125892 -55.338714,38.97391" />
      <path d="M -55.338714,38.97391 C -54.745105,38.651421 -54.209302,38.239996 -53.731303,37.739637 C -52.861058,36.830858 -52.209357,35.641144 -51.808382,34.295762" />
      <line x1="-51.183524" y1="33.956965" x2="-51.808382" y2="34.295762" />
      <path d="M -67.71637,42.921017 A 8.0,4.471567915438884 61.533605744064964 0,1 -67.736025,43.461836" />
      <path d="M -67.71637,42.921017 Q -67.174239,42.86987 -66.648642,42.809614" />
      <path d="M -66.648642,42.809614 Q -66.546874,42.529755 -66.460218,42.239936" />
      <path d="M -72.803227,30.24261 C -72.812419,30.248065 -72.821612,30.25352 -72.830804,30.258974 C -73.048983,30.399166 -73.146973,30.755275 -73.086592,31.279526 C -73.027244,31.802683 -72.809131,32.493487 -72.422352,33.274208 C -71.845677,34.443958 -70.881728,35.814919 -69.620818,37.069738 C -68.492663,38.196616 -67.130433,39.224111 -65.678317,39.952375 C -64.496874,40.54723 -63.257913,40.943951 -62.055451,41.079228 C -60.852702,41.216548 -59.686677,41.091958 -58.643585,40.697936 C -58.370575,40.595126 -58.106385,40.474505 -57.851016,40.336071" />
      <path d="M -22.50471,18.407413 C -22.019395,16.793331 -21.899776,14.958211 -22.079379,13.189978 C -22.159082,12.394673 -22.297185,11.613427 -22.479965,10.871868 C -22.811904,9.521647 -23.293636,8.306021 -23.815072,7.351614 C -24.336148,6.39479 -24.895355,5.699652 -25.372817,5.327121 C -25.76997,5.015639 -26.110455,4.925033 -26.335414,5.047924" />
      <path d="M -26.335414,5.047924 C -26.658453,5.219518 -26.740525,5.831301 -26.486468,6.73315" />
      <path d="M -37.156544,26.351586 C -36.829683,25.260648 -36.666558,24.069583 -36.653129,22.865606 C -36.624247,20.700793 -37.092299,18.505937 -37.779644,16.775231 C -38.121541,15.908199 -38.514072,15.155084 -38.909408,14.557324 C -39.597559,13.513282 -40.289452,12.955055 -40.741387,12.939778 C -40.833861,12.935959 -40.915816,12.953399 -40.987252,12.992099" />
      <path d="M -40.987252,12.992099 C -41.374496,13.195194 -41.411676,14.032662 -40.955044,15.229552 C -40.697474,15.909112 -40.284306,16.698961 -39.723291,17.52003 C -39.140606,18.374014 -38.398001,19.260604 -37.531938,20.085199 C -36.899358,20.688032 -36.201613,21.257553 -35.460542,21.760145 C -34.485245,22.422334 -33.434511,22.967224 -32.369201,23.335395 C -31.303978,23.704632 -30.224288,23.896802 -29.193392,23.881745 C -28.056439,23.866712 -26.979704,23.598846 -26.035041,23.085561" />
      <path d="M -26.035041,23.085561 C -24.885281,22.464583 -23.934823,21.478867 -23.259586,20.237887 C -22.951243,19.671114 -22.699617,19.060956 -22.50471,18.407413" />
      <path d="M -51.808382,34.295762 C -51.305773,32.625057 -51.19598,30.717342 -51.402788,28.892379 C -51.60459,27.073016 -52.116084,25.345623 -52.741419,23.992933 C -53.462165,22.422497 -54.324626,21.36969 -54.963312,21.022916 C -55.237086,20.871618 -55.470307,20.844476 -55.639085,20.936272" />
      <path d="M -55.639085,20.936272 C -55.900453,21.076446 -56.005629,21.503185 -55.898468,22.143167 C -55.827156,22.572585 -55.66091,23.096676 -55.394983,23.68018 C -55.017426,24.510455 -54.435297,25.461713 -53.672368,26.410991 C -52.910854,27.360288 -51.968436,28.306525 -50.907547,29.12727 C -49.235984,30.427342 -47.26715,31.395583 -45.354041,31.708176 C -43.671453,31.99136 -42.041085,31.768589 -40.686877,31.029735" />
      <path d="M -40.686877,31.029735 C -40.260938,30.798623 -39.863943,30.520702 -39.49589,30.195971 C -38.417291,29.248025 -37.618585,27.904845 -37.156544,26.351586" />
      <path d="M -68.811676,42.247641 C -69.058572,42.270453 -69.215917,42.34764 -69.24927,42.462521" />
      <path d="M -68.828345,39.918323 C -68.847425,40.331469 -68.832038,40.767924 -68.824403,41.198092 C -68.8164,41.550349 -68.812158,41.900199 -68.811676,42.247641" />
      <line x1="-36.532269" y1="26.013107" x2="-37.156544" y2="26.351586" />
      <path d="M -43.499555,14.354261 C -43.666015,14.444257 -43.769907,14.6495 -43.794576,14.953787 C -43.849753,15.591662 -43.540158,16.67937 -42.824833,17.939164 C -42.009453,19.387022 -40.651939,21.047827 -38.956021,22.397424 C -37.743342,23.367244 -36.365548,24.173836 -34.957772,24.670855 C -33.871056,25.056277 -32.767687,25.258197 -31.715031,25.244035 C -30.662057,25.231231 -29.659903,25.002142 -28.767189,24.561431 C -28.693159,24.524953 -28.619878,24.48705 -28.547344,24.447723" />
      <path d="M -66.183471,43.379513 C -66.135211,43.22819 -66.312247,43.011832 -66.648642,42.809614" />
      <line x1="-67.71637" y1="42.921017" x2="-68.811676" y2="42.247641" />
      <path d="M -14.195881,-1.534088 C -14.483196,-1.380494 -14.581001,-0.879961 -14.417919,-0.133176 C -14.319004,0.322937 -14.123819,0.869071 -13.829157,1.4688 C -13.440677,2.260802 -12.876985,3.146496 -12.159274,4.027042 C -11.442603,4.907626 -10.571842,5.782334 -9.596643,6.553349 C -8.629673,7.319076 -7.560012,7.982052 -6.454925,8.465368 C -5.350073,8.94988 -4.209933,9.254237 -3.108197,9.334271" />
      <path d="M 21.4508,-5.425111 C 21.835929,-6.709209 21.992694,-8.132483 21.947944,-9.551498" />
      <path d="M 6.798965,2.519063 C 7.38053,0.591365 7.432624,-1.652692 7.089321,-3.719745 C 6.872607,-5.04506 6.50078,-6.294711 6.05517,-7.353656 C 5.456483,-8.782172 4.726865,-9.854431 4.103859,-10.415083 C 3.63327,-10.841825 3.225207,-10.981202 2.968259,-10.840425" />
      <path d="M 2.968259,-10.840425 C 2.811955,-10.754982 2.715889,-10.577197 2.680062,-10.307071 C 2.633683,-9.941639 2.713264,-9.414736 2.936054,-8.779404 C 3.158045,-8.144675 3.523453,-7.401905 4.027598,-6.620701 C 4.761186,-5.480837 5.794576,-4.261093 7.035033,-3.192959 C 7.5322,-2.763296 8.056773,-2.364288 8.608754,-1.995935 C 10.101752,-0.999772 11.76521,-0.29055 13.381248,-0.04819 C 15.01864,0.203496 16.600504,-0.02712 17.920469,-0.746963" />
      <path d="M 17.920469,-0.746963 C 18.85904,-1.254782 19.66612,-2.003608 20.297053,-2.938686 C 20.791732,-3.670154 21.178008,-4.512274 21.4508,-5.425111" />
      <path d="M -7.852872,10.463238 C -7.48065,9.221972 -7.321453,7.849964 -7.352014,6.478143 C -7.381029,5.106317 -7.599028,3.735399 -7.940593,2.496197 C -8.385027,0.875042 -9.039708,-0.513762 -9.694353,-1.462503 C -9.986866,-1.888031 -10.278682,-2.22769 -10.550209,-2.472926 C -11.019865,-2.898112 -11.427015,-3.036791 -11.683577,-2.896251" />
      <path d="M -11.683577,-2.896251 C -11.960959,-2.747759 -12.061975,-2.276189 -11.921325,-1.57093 C -11.807074,-0.99252 -11.530286,-0.258452 -11.086305,0.549772 C -10.643412,1.357515 -10.033127,2.238776 -9.28061,3.098888 C -8.428133,4.074954 -7.391618,5.022537 -6.247049,5.810141 C -5.103383,6.599087 -3.851854,7.226941 -2.593058,7.598797 C -1.549238,7.908524 -0.500168,8.043107 0.494713,7.978387 C 1.489966,7.914805 2.431018,7.652038 3.268631,7.197212" />
      <path d="M 3.268631,7.197212 C 4.299323,6.639862 5.170023,5.791643 5.824936,4.727133 C 6.234045,4.063957 6.560071,3.31835 6.798965,2.519063" />
      <path d="M -26.486468,6.73315 C -26.198104,7.773814 -25.451392,9.198997 -24.292814,10.616409 C -23.132305,12.044511 -21.559191,13.44909 -19.810812,14.436697 C -18.996303,14.898689 -18.146274,15.27178 -17.292295,15.528812 C -16.244499,15.844976 -15.190986,15.985151 -14.191074,15.924672 C -13.190851,15.865358 -12.244308,15.605243 -11.402216,15.151652 C -11.395878,15.14823 -11.38954,15.144808 -11.383202,15.141385" />
      <path d="M -11.383202,15.141385 C -10.547244,14.688831 -9.814811,14.045419 -9.219305,13.248683 C -8.623016,12.452827 -8.163581,11.503785 -7.852872,10.463238" />
      <path d="M -28.847716,6.410086 C -29.035082,6.511229 -29.143006,6.758807 -29.148339,7.128434 C -29.157077,7.645069 -28.961495,8.403854 -28.539963,9.290851 C -28.120389,10.176745 -27.474391,11.189564 -26.633616,12.185324 C -26.129724,12.782793 -25.556832,13.373849 -24.929721,13.927699 C -23.329341,15.347697 -21.365175,16.50245 -19.400028,17.004125 C -18.71432,17.181651 -18.037655,17.279554 -17.370032,17.297834 C -16.116935,17.331493 -14.927044,17.064424 -13.895506,16.503547" />
      <line x1="-21.880001" y1="18.068698" x2="-22.50471" y2="18.407413" />
      <line x1="-7.228381" y1="10.124641" x2="-7.852872" y2="10.463238" />
      <path d="M -3.108197,9.334271 C -1.71295,9.438391 -0.381614,9.178685 0.756328,8.559374" />
      <path d="M 29.759628,-25.366611 Q 29.641814,-25.302653 29.568053,-25.164965" />
      <path d="M 50.754473,-21.313459 C 51.242012,-22.934832 51.360425,-24.779265 51.177382,-26.554864 C 51.10447,-27.259193 50.99091,-27.943573 50.836701,-28.608005 C 50.430769,-30.375417 49.762801,-31.925081 49.073282,-32.997546 C 48.812771,-33.402073 48.556762,-33.737868 48.305256,-34.004931 C 47.733244,-34.616787 47.224385,-34.83862 46.923769,-34.672949" />
      <path d="M 46.923769,-34.672949 C 46.883355,-34.651032 46.846727,-34.622478 46.813884,-34.587284 C 46.607178,-34.36743 46.559059,-33.88359 46.715377,-33.211258 C 46.87004,-32.540447 47.22975,-31.682083 47.795192,-30.753137 C 48.364116,-29.816279 49.142874,-28.808752 50.085356,-27.866614 C 51.026491,-26.923933 52.13133,-26.047848 53.317008,-25.359586" />
      <path d="M 36.102639,-13.369287 C 36.576554,-14.945978 36.702076,-16.733485 36.539833,-18.463669 C 36.414927,-19.81936 36.116949,-21.137628 35.719358,-22.29456 C 35.32257,-23.4528 34.827218,-24.449169 34.328632,-25.195392 C 33.918471,-25.810647 33.506579,-26.257823 33.147119,-26.515169 C 32.787357,-26.773564 32.480366,-26.842399 32.271931,-26.728773" />
      <path d="M 32.271931,-26.728773 C 31.935137,-26.550109 31.860987,-25.893446 32.153867,-24.93041 C 32.244893,-24.627965 32.371136,-24.300733 32.532597,-23.948714 C 33.159931,-22.576051 34.360173,-20.878495 35.968634,-19.410204 C 37.195832,-18.284105 38.651831,-17.299531 40.171011,-16.661383 C 41.31,-16.180692 42.482605,-15.893709 43.608792,-15.845892 C 44.735306,-15.796397 45.815244,-15.986376 46.777502,-16.415346 C 46.929352,-16.482881 47.078232,-16.556203 47.224142,-16.635312" />
      <path d="M 47.224142,-16.635312 C 48.060218,-17.087943 48.792536,-17.731299 49.388045,-18.528018 C 49.98432,-19.323844 50.443788,-20.272968 50.754473,-21.313459" />
      <path d="M 21.947944,-9.551498 C 21.892428,-11.417187 21.485826,-13.267729 20.909576,-14.789251 C 20.577453,-15.670434 20.191445,-16.442785 19.798485,-17.063814 C 19.539367,-17.471318 19.284176,-17.810992 19.032913,-18.082836 C 18.44829,-18.719982 17.926142,-18.953431 17.620098,-18.7846" />
      <path d="M 17.620098,-18.7846 C 17.506024,-18.722542 17.423507,-18.609753 17.372547,-18.446232 C 17.230998,-17.994174 17.366136,-17.155407 17.832236,-16.111644 C 18.186107,-15.315968 18.73074,-14.404375 19.446469,-13.487224 C 20.160947,-12.57011 21.046625,-11.648342 22.049614,-10.833308 C 23.069032,-10.003391 24.209785,-9.284933 25.39032,-8.772372 C 26.570554,-8.25825 27.790367,-7.950722 28.960003,-7.901586 C 30.263465,-7.844322 31.503065,-8.109581 32.572306,-8.691138" />
      <path d="M 32.572306,-8.691138 C 33.284764,-9.077067 33.922256,-9.600974 34.463473,-10.241096 C 35.193162,-11.10201 35.746245,-12.174767 36.102639,-13.369287" />
      <path d="M 0.455956,-9.478263 C 0.147839,-9.314162 0.058398,-8.750083 0.272528,-7.913982 C 0.45645,-7.188607 0.869535,-6.26068 1.508368,-5.269281 C 2.145178,-4.278445 3.008042,-3.225635 4.03848,-2.265225 C 4.67945,-1.667046 5.384267,-1.104547 6.130761,-0.611009 C 7.622814,0.378629 9.282956,1.080814 10.894676,1.317837 C 12.522941,1.56332 14.095103,1.331215 15.408167,0.615199" />
      <path d="M 15.107794,-17.422438 C 14.98365,-17.354846 14.897048,-17.227574 14.847987,-17.040622 C 14.74835,-16.658039 14.827069,-16.03039 15.115983,-15.249136 C 15.403194,-14.46912 15.9011,-13.536521 16.595104,-12.576593 C 17.288058,-11.616164 18.177531,-10.629602 19.20554,-9.748329 C 20.232426,-8.866198 21.397753,-8.090463 22.612932,-7.529162 C 23.598399,-7.072821 24.616259,-6.75693 25.613597,-6.616611 C 26.611045,-6.475354 27.587897,-6.509854 28.494254,-6.729452 C 29.04665,-6.862981 29.568566,-7.062823 30.060002,-7.328975" />
      <line x1="7.423755" y1="2.180304" x2="6.798965" y2="2.519063" />
      <line x1="22.075278" y1="-5.763701" x2="21.4508" y2="-5.425111" />
      <line x1="36.727109" y1="-13.707872" x2="36.102639" y2="-13.369287" />
      <path d="M 29.568053,-25.164965 C 29.421671,-24.892366 29.417163,-24.403701 29.58671,-23.761783 C 29.743194,-23.166295 30.050798,-22.437298 30.509878,-21.650276 C 30.786412,-21.173977 31.115105,-20.685826 31.495957,-20.185825 C 32.535517,-18.822176 33.963546,-17.442194 35.587686,-16.399349 C 36.816517,-15.606763 38.153532,-15.00822 39.479013,-14.706453 C 40.804603,-14.401927 42.118266,-14.395068 43.303244,-14.713625 C 43.797965,-14.845941 44.267497,-15.03245 44.711839,-15.27315" />
      <path d="M 78.783287,-37.071689 C 78.38314,-37.176267 77.987443,-37.221362 77.70669,-37.194104" />
      <path d="M 78.026447,-33.646602 C 77.918917,-33.782271 77.8447,-33.955218 77.798031,-34.121421 C 77.740797,-34.325087 77.715775,-34.524702 77.700388,-34.717731 C 77.684861,-34.946031 77.678415,-35.169607 77.681048,-35.38846 C 77.685946,-35.993194 77.708486,-36.586201 77.70669,-37.194104" />
      <path d="M 78.026447,-33.646602 Q 77.350656,-32.970502 76.527814,-32.52366" />
      <path d="M 76.527814,-32.52366 C 76.332033,-32.417516 76.130945,-32.321804 75.924551,-32.236524 C 74.338019,-31.57448 72.444182,-31.570641 70.566206,-32.152201 C 69.11524,-32.59569 67.679332,-33.378436 66.407784,-34.348836 C 65.096698,-35.345936 63.963535,-36.537448 63.116468,-37.697616 C 62.607023,-38.39374 62.198933,-39.077561 61.900387,-39.700662 C 61.429303,-40.68154 61.233628,-41.507334 61.281602,-42.029529 C 61.307987,-42.327272 61.411335,-42.528298 61.575606,-42.617123" />
      <path d="M 61.575606,-42.617123 C 61.943942,-42.822827 62.629047,-42.434924 63.354535,-41.474892 C 63.783344,-40.909966 64.223779,-40.15112 64.612832,-39.24715 C 65.002198,-38.344056 65.339663,-37.296039 65.570796,-36.175953 C 65.803156,-35.053461 65.928174,-33.858863 65.908821,-32.677588 C 65.890345,-31.49623 65.72715,-30.32852 65.406311,-29.257635" />
      <path d="M 65.406311,-29.257635 C 65.120355,-28.300348 64.708834,-27.420304 64.180249,-26.666097 C 63.652231,-25.911279 63.00709,-25.282394 62.268972,-24.811211 C 62.140665,-24.729215 62.009668,-24.651974 61.875981,-24.579487" />
      <path d="M 61.875981,-24.579487 C 61.189944,-24.207208 60.434609,-23.962976 59.636564,-23.85241 C 58.410584,-23.680735 57.083621,-23.82916 55.770701,-24.253196 C 54.936878,-24.521485 54.109203,-24.898955 53.317008,-25.359586" />
      <path d="M 44.411466,-33.310787 C 44.167692,-33.179762 44.05945,-32.799944 44.133536,-32.229177 C 44.238527,-31.391455 44.750665,-30.135235 45.672186,-28.787605 C 46.320906,-27.835706 47.169184,-26.84319 48.164577,-25.940793 C 49.740164,-24.504868 51.690383,-23.316132 53.65534,-22.771566 C 54.978783,-22.39984 56.304035,-22.315532 57.51525,-22.555823 C 58.172004,-22.685335 58.788146,-22.905836 59.363677,-23.217325" />
      <path d="M 59.063302,-41.254961 C 58.79228,-41.109755 58.689454,-40.65627 58.816413,-39.977196 C 58.92218,-39.405687 59.190856,-38.675684 59.627935,-37.868821 C 60.063911,-37.062459 60.668497,-36.179885 61.416986,-35.316452 C 62.537099,-34.020123 63.98583,-32.773533 65.578509,-31.871511 C 66.77872,-31.188768 68.057492,-30.701749 69.311058,-30.489332 C 70.564838,-30.274613 71.793126,-30.335112 72.897944,-30.686994 C 73.287176,-30.810493 73.659698,-30.968661 74.015511,-31.161498" />
      <line x1="51.379048" y1="-21.652102" x2="50.754473" y2="-21.313459" />
      <line x1="66.030561" y1="-29.596101" x2="65.406311" y2="-29.257635" />
      <path d="M 78.026447,-33.646602 A 8.0,4.471567915438884 61.533605744064964 0,1 77.138612,-32.854832" />
      <path d="M 77.138612,-32.854832 A 8.000000413621297,4.471568146630849 61.533605744064964 1,1 69.51232,-46.920382" />
      <line x1="78.801996" y1="-36.520728" x2="77.70669" y2="-37.194104" />
      <line x1="-52.278152" y1="37.314484" x2="-55.338714" y2="38.97391" />
      <line x1="-69.656174" y1="28.536289" x2="-70.290924" y2="28.880448" />
      <path d="M -46.259831,34.051371 C -48.348342,33.832949 -50.482062,32.938601 -52.334119,31.66354 C -53.265225,31.024957 -54.146361,30.28241 -54.920479,29.49952 C -55.69633,28.716247 -56.372732,27.891726 -56.930228,27.080255 C -57.488174,26.268159 -57.925877,25.471084 -58.236816,24.727871 C -58.546661,23.982202 -58.738422,23.296276 -58.786564,22.642824" />
      <path d="M -60.911458,41.995432 C -62.391891,41.839222 -63.896952,41.34831 -65.306808,40.615932 C -66.717808,39.885076 -68.034533,38.915562 -69.167687,37.839561 C -70.301948,36.764082 -71.251936,35.584009 -71.958884,34.448717 C -72.667264,33.310883 -73.131991,32.229432 -73.334939,31.291488 C -73.38709,31.052509 -73.421399,30.817582 -73.437865,30.586708" />
      <line x1="-37.625759" y1="29.370008" x2="-40.686877" y2="31.029735" />
      <line x1="-55.004021" y1="20.591942" x2="-55.639085" y2="20.936272" />
      <path d="M -2.304095,10.218725 C -3.592709,10.082416 -4.894156,9.695801 -6.136991,9.116325 C -7.380192,8.537739 -8.564998,7.767253 -9.629805,6.886845 C -10.695043,6.007012 -11.63979,5.01763 -12.41407,4.016432 C -13.189178,3.015772 -13.792619,2.003083 -14.197151,1.09079 C -14.560926,0.263045 -14.776598,-0.474701 -14.830644,-1.189922" />
      <path d="M -16.956117,18.163 C -18.428958,18.009241 -19.939961,17.51598 -21.355489,16.780965 C -22.772497,16.04723 -24.094843,15.07169 -25.229883,13.990186 C -26.366208,12.909091 -27.31525,11.725796 -28.019875,10.589855 C -28.725958,9.451665 -29.186858,8.368409 -29.385818,7.428908 C -29.434448,7.200344 -29.466628,6.975436 -29.482358,6.754186" />
      <path d="M -31.608261,26.107341 C -33.186862,25.940059 -34.780286,25.395666 -36.260895,24.59047 C -37.742484,23.786794 -39.111912,22.723788 -40.266838,21.557533 C -41.423096,20.391839 -42.36286,19.126102 -43.021242,17.938168 C -43.3516,17.341489 -43.610608,16.771478 -43.798264,16.228136 C -43.986153,15.687764 -44.098073,15.177808 -44.134024,14.698268" />
      <line x1="-22.974515" y1="21.426155" x2="-26.035041" y2="23.085561" />
      <line x1="-40.352599" y1="12.647993" x2="-40.987252" y2="12.992099" />
      <line x1="-8.322438" y1="13.48185" x2="-11.383202" y2="15.141385" />
      <line x1="-25.700637" y1="4.703751" x2="-26.335414" y2="5.047924" />
      <path d="M 41.651577,-13.613887 C 40.439493,-13.742105 39.213688,-14.095227 38.075451,-14.599954" />
      <path d="M 33.408027,-17.757627 C 32.121945,-18.972996 31.078468,-20.322167 30.351087,-21.580747 C 29.98763,-22.213377 29.703042,-22.817237 29.497324,-23.392326 C 29.292271,-23.966429 29.161576,-24.502866 29.124345,-25.022163" />
      <path d="M 26.99958,-5.669625 C 26.139009,-5.761098 25.274642,-5.964234 24.439998,-6.254701 C 23.203036,-6.682935 21.984875,-7.323868 20.865071,-8.098885 C 19.744255,-8.873565 18.721272,-9.782704 17.847462,-10.736765 C 16.972837,-11.690894 16.247067,-12.687837 15.698802,-13.6385 C 15.149822,-14.590801 14.778234,-15.492231 14.592826,-16.298102 C 14.531384,-16.563329 14.49149,-16.823406 14.473145,-17.078334" />
      <path d="M 12.347747,2.274548 C 11.486392,2.182981 10.621259,1.97953 9.785971,1.688699 C 8.548076,1.259913 7.329002,0.618077 6.208552,-0.157943 C 5.087085,-0.933626 4.063712,-1.843873 3.189851,-2.798897 C 2.315173,-3.753994 1.589683,-4.751739 1.04203,-5.702885 C 0.493663,-6.655688 0.123014,-7.557256 -0.061128,-8.36325 C -0.122511,-8.625879 -0.161541,-8.882934 -0.178219,-9.134415" />
      <line x1="6.32924" y1="5.537761" x2="3.268631" y2="7.197212" />
      <line x1="-11.048495" y1="-3.24059" x2="-11.683577" y2="-2.896251" />
      <line x1="20.981217" y1="-2.406489" x2="17.920469" y2="-0.746963" />
      <line x1="3.603053" y1="-11.184608" x2="2.968259" y2="-10.840425" />
      <line x1="35.633058" y1="-10.350667" x2="32.572306" y2="-8.691138" />
      <line x1="18.255157" y1="-19.128928" x2="17.620098" y2="-18.7846" />
      <path d="M 70.954982,-29.50209 C 70.020819,-29.601446 69.080371,-29.832508 68.167809,-30.168811 C 66.934964,-30.621495 65.724829,-31.283557 64.616747,-32.074595 C 63.507626,-32.865334 62.5001,-33.785437 61.644413,-34.744497 C 60.787891,-35.703711 60.08279,-36.699559 59.556009,-37.644317 C 59.028582,-38.590952 58.679096,-39.481464 58.516351,-40.279089 C 58.472561,-40.492809 58.443325,-40.703397 58.428644,-40.910851" />
      <path d="M 56.30299,-21.557831 C 54.202759,-21.777398 52.056917,-22.680814 50.197049,-23.967454 C 48.505007,-25.13065 47.026817,-26.61471 45.945904,-28.08875 C 45.403515,-28.825883 44.956226,-29.559198 44.61172,-30.255819 C 44.266521,-30.955196 44.025367,-31.610936 43.888259,-32.223038 C 43.831404,-32.47552 43.794261,-32.723404 43.77683,-32.966689" />
      <path d="M 38.075451,-14.599954 C 36.36793,-15.35215 34.758091,-16.477156 33.408027,-17.757627" />
      <line x1="50.284987" y1="-18.294891" x2="47.224142" y2="-16.635312" />
      <line x1="32.907008" y1="-27.07311" x2="32.271931" y2="-26.728773" />
      <line x1="64.936779" y1="-26.239041" x2="61.875981" y2="-24.579487" />
      <line x1="47.558795" y1="-35.017257" x2="46.923769" y2="-34.672949" />
      <line x1="77.138612" y1="-32.854832" x2="76.527814" y2="-32.52366" />
      <line x1="62.21026" y1="-42.96123" x2="61.575606" y2="-42.617123" />
      <path d="M -26.486468,6.73315 C -26.860237,5.662198 -26.821325,4.889493 -26.459067,4.673133 C -26.102225,4.448882 -25.427088,4.788269 -24.678499,5.723923" />
      <path d="M -25.064193,24.152485 C -26.406925,25.334712 -28.122657,25.988428 -29.989142,26.043444 C -31.853593,26.106846 -33.859896,25.573427 -35.72765,24.612887 C -37.597542,23.658082 -39.320171,22.285469 -40.676421,20.828792 C -42.037939,19.372752 -43.028572,17.844837 -43.580106,16.596309 C -43.938598,15.789173 -44.11866,15.097872 -44.140486,14.590745" />
      <path d="M -55.913906,39.249369 C -56.721868,39.673152 -57.63455,39.925633 -58.611108,39.99141 C -59.587264,40.058178 -60.626789,39.938092 -61.67748,39.643721 C -62.728039,39.35033 -63.78912,38.882856 -64.804794,38.281521 C -65.820644,37.68099 -66.790425,36.947147 -67.663187,36.142909 C -68.615602,35.266402 -69.451528,34.306988 -70.123374,33.364418 C -70.796249,32.421873 -71.30448,31.497629 -71.629493,30.692242 C -71.955695,29.886196 -72.098563,29.200445 -72.073136,28.716977 C -72.048829,28.232265 -71.856637,27.950887 -71.543264,27.919679" />
      <path d="M 21.947944,-9.551498 C 22.104996,-7.465205 21.831351,-5.265705 21.008879,-3.43844 C 20.600273,-2.524131 20.059303,-1.702687 19.396901,-1.02306 C 18.7351,-0.342799 17.952015,0.195135 17.075541,0.559639 C 16.199555,0.924967 15.230517,1.116568 14.210081,1.126553 C 13.189938,1.137437 12.118886,0.966684 11.04686,0.631744 C 8.901538,-0.031704 6.760974,-1.374104 5.01461,-2.98897 C 4.086177,-3.843426 3.267167,-4.767925 2.595501,-5.679172 C 1.923024,-6.590456 1.398244,-7.487445 1.03621,-8.287832 C 0.673271,-9.088734 0.473118,-9.792043 0.425273,-10.329997 C 0.376583,-10.868869 0.479906,-11.241668 0.700921,-11.406535" />
      <path d="M -0.629446,9.310736 C -1.429195,9.450645 -2.26607,9.454298 -3.108197,9.334271" />
      <path d="M 53.317008,-25.359586 C 51.87926,-26.104517 50.507671,-27.156455 49.358537,-28.325656 C 48.207106,-29.492982 47.281975,-30.772024 46.674301,-31.919265 C 46.063019,-33.067487 45.770894,-34.077359 45.786398,-34.73294 C 45.798197,-35.392263 46.116325,-35.692171 46.623671,-35.523029" />
      <path d="M 41.664436,-13.620859 C 40.469408,-13.737876 39.249189,-14.081046 38.075451,-14.599954" />
      <path d="M 38.075451,-14.599954 C 36.352606,-15.358544 34.736101,-16.49734 33.408027,-17.757627" />
      <path d="M 33.408027,-17.757627 C 32.561686,-18.558712 31.830385,-19.406247 31.239062,-20.226285 C 30.647001,-21.046583 30.19501,-21.838594 29.887187,-22.535789 C 29.592202,-23.202962 29.428737,-23.783054 29.382927,-24.232393 C 29.336613,-24.682415 29.407678,-25.001399 29.568053,-25.164965" />
    </g>
  </g>
</svg>