<?xml version='1.0' encoding='utf-8'?>
<svg width="169.699902mm" height="320.14782mm" viewBox="-50.219226 -75.536926 84.849951 160.07391" version="1.1" xmlns="http://www.w3.org/2000/svg">
  <g transform="scale(1,-1)" stroke-linecap="round">
    <g fill="none" stroke="rgb(0,0,0)" stroke-width="0.045" id="Visible">
      <path d="M -15.308862,-84.486984 L -14.231416,-83.837985 L -13.203508,-83.163787 L -12.227888,-82.466196 L -11.307168,-81.747078 L -10.443813,-81.008358 L -9.640134,-80.252014 L -8.898281,-79.48007 L -8.220239,-78.694592 L -7.607825,-77.897682 L -7.062677,-77.091473 L -6.586254,-76.278124 L -6.179832,-75.459811 L -5.844498,-74.638725 L -5.58115,-73.817064" />
      <path d="M -50.169226,-64.360343 L 22.061732,73.97459" />
      <path d="M 31.961227,68.259114 L 32.240414,68.4274 L 32.506617,68.602365 L 32.759174,68.783574 L 32.997456,68.970577 L 33.220874,69.162911 L 33.428872,69.360097 L 33.620933,69.561645 L 33.79658,69.767055 L 33.955378,69.975818 L 34.096932,70.187414 L 34.22089,70.401318 L 34.326945,70.616999 L 34.414833,70.833921 L 34.484336,71.051546" />
      <path d="M 34.484336,71.051546 L 34.580725,71.811513 L 34.447052,72.550366 L 34.087379,73.245648 L 33.51264,73.876227 L 32.740303,74.422936 L 31.793842,74.86916 L 30.702024,75.201335 L 29.498034,75.409364 L 28.218468,75.486926 L 26.902216,75.431662 L 25.589285,75.245253 L 24.31958,74.933364 L 23.131694,74.505475 L 22.061732,73.97459" />
      <path d="M -15.308862,-84.486984 L 31.961227,68.259114" />
      <line x1="-50.169226" y1="-64.360343" x2="-15.308862" y2="-84.486984" />
      <line x1="22.061732" y1="73.97459" x2="31.961227" y2="68.259114" />
      <path d="M -5.58115,-73.817064 Q 14.449505,-1.382422 34.484336,71.051546" />
    </g>
    <g fill="none" stroke="rgb(140,140,140)" stroke-width="0.1" id="Hidden" stroke-dasharray="1.2 0.3">
      <path d="M -5.58115,-73.817064 L -5.230874,-71.099341 L -5.698602,-68.480472 L -6.970425,-66.038335 L -9.008523,-63.84555 L -11.75229,-61.967324 L -15.120135,-60.459509 L -19.011909,-59.366943 L -23.311883,-58.722115 L -27.892191,-58.544199 L -32.616628,-58.838488 L -37.344706,-59.596229 L -41.935826,-60.79489 L -46.253463,-62.398827 L -50.169226,-64.360343" />
    </g>
  </g>
</svg>