<?xml version='1.0' encoding='utf-8'?>
<svg width="157.299715mm" height="188.03856mm" viewBox="-53.18412 -66.294472 118.848674 142.073579" version="1.1" xmlns="http://www.w3.org/2000/svg">
  <g transform="scale(1,-1)" stroke-linecap="round">
    <g fill="none" stroke="rgb(0,0,0)" stroke-width="0.3022222226666669" id="Visible">
      <path d="M 65.513443,-55.501355 L 65.490116,-54.24376 L 65.420199,-53.016467 L 65.303877,-51.82276 L 65.141462,-50.665834 L 64.93339,-49.548787 L 64.680216,-48.474608 L 64.382619,-47.446172 L 64.041396,-46.466232 L 63.657459,-45.537411 L 63.231836,-44.662194 L 62.765666,-43.842926 L 62.260198,-43.081797 L 61.716783,-42.380847 L 61.136877,-41.74195" />
      <path d="M 30.653079,-75.627996 L -53.033009,56.093315" />
      <path d="M -43.133514,61.808791 L -43.13966,62.134718 L -43.158082,62.452739 L -43.188736,62.762064 L -43.231544,63.061924 L -43.286401,63.351576 L -43.35317,63.6303 L -43.431685,63.897404 L -43.521752,64.152225 L -43.623147,64.394129 L -43.735617,64.622516 L -43.858885,64.836819 L -43.992643,65.036506 L -44.136559,65.22108 L -44.290276,65.390084" />
      <path d="M -44.290276,65.390084 L -44.900232,65.853542 L -45.606934,66.107205 L -46.388902,66.14336 L -47.222369,65.960911 L -48.082002,65.565402 L -48.941674,64.968854 L -49.775254,64.1894 L -50.557408,63.250729 L -51.264362,62.181373 L -51.874628,61.013834 L -52.369658,59.783597 L -52.734407,58.528056 L -52.957787,57.285372 L -53.033009,56.093315" />
      <path d="M 65.513443,-55.501355 L -43.133514,61.808791" />
      <line x1="30.653079" y1="-75.627996" x2="65.513443" y2="-55.501355" />
      <line x1="-53.033009" y1="56.093315" x2="-43.133514" y2="61.808791" />
      <path d="M 61.136877,-41.74195 Q 8.421965,11.822427 -44.290276,65.390084" />
    </g>
    <g fill="none" stroke="rgb(140,140,140)" stroke-width="0.18888888916666677" id="Hidden" stroke-dasharray="2.266667 0.566667">
      <path d="M 61.136877,-41.74195 L 58.958398,-40.07974 L 56.456527,-39.17537 L 53.705663,-39.055732 L 50.787607,-39.724385 L 47.789132,-41.161443 L 44.799403,-43.324175 L 41.907326,-46.148267 L 39.198901,-49.54974 L 36.754669,-53.427445 L 34.647311,-57.666072 L 32.939496,-62.139578 L 31.682007,-66.714936 L 30.912238,-71.256088 L 30.653079,-75.627996" />
    </g>
  </g>
</svg>