<?xml version='1.0' encoding='utf-8'?>
<svg width="129.398249mm" height="118.766755mm" viewBox="-69.914236 -56.257632 139.645857 128.172408" version="1.1" xmlns="http://www.w3.org/2000/svg">
  <g transform="scale(1,-1)" stroke-linecap="round">
    <g fill="none" stroke="rgb(0,0,0)" stroke-width="0.43167773159688727" id="Visible">
      <path d="M -69.462645,5.583801 A 0.3,0.1732855408464566 61.05007325121704 0,1 -69.605553,5.075022" />
      <path d="M -69.605553,5.075022 A 0.3000000595854199,0.17328557526409566 61.05007325121704 1,1 -69.315126,5.600048" />
      <path d="M -69.315126,5.600048 A 0.3,0.1732855408464566 61.05007325121704 0,1 -69.462645,5.583801" />
      <path d="M 69.160617,-71.685862 A 0.3,0.1732855408464566 61.05007325121704 1,1 69.451044,-71.160837" />
      <path d="M -69.459744,7.34576 A 0.3,0.17319779895758874 61.04146578497225 0,1 -69.602764,6.837044" />
      <path d="M -69.602764,6.837044 A 0.3,0.17319779895758874 61.04146578497225 1,1 -69.312258,7.362026" />
      <path d="M -69.312258,7.362026 A 0.3,0.17319779895758874 61.04146578497225 0,1 -69.459744,7.34576" />
      <path d="M 66.792477,-68.639084 A 0.3000003693019294,0.17319801216519318 61.04146578497225 1,1 67.082983,-68.114101" />
      <path d="M -69.244819,8.985305 A 0.3,0.17310689504901564 61.03255528925787 0,1 -69.309389,9.124003" />
      <path d="M -69.309389,9.124003 A 0.3,0.17310689504901564 61.03255528925787 0,1 -69.599976,8.599066" />
      <path d="M -69.599976,8.599066 A 0.3,0.17310689504901564 61.03255528925787 0,1 -69.244819,8.985305" />
      <path d="M 64.779493,-65.206065 A 0.3,0.17310689504901564 61.03255528925787 0,1 64.714923,-65.067367" />
      <path d="M 64.424336,-65.592304 A 0.3,0.17310689504901564 61.03255528925787 0,1 64.779493,-65.206065" />
      <path d="M -69.24203,10.747327 A 0.3,0.17301265511288252 61.02332547537546 0,1 -69.306518,10.885979" />
      <path d="M -69.306518,10.885979 A 0.3,0.17301265511288252 61.02332547537546 0,1 -69.59719,10.361089" />
      <path d="M -69.59719,10.361089 A 0.3,0.17301265511288252 61.02332547537546 0,1 -69.24203,10.747327" />
      <path d="M 62.411353,-62.159286 A 0.3,0.17301265511288252 61.02332547537546 0,1 62.346865,-62.020633" />
      <path d="M 62.056193,-62.545524 A 0.3,0.17301265511288252 61.02332547537546 0,1 62.411353,-62.159286" />
      <path d="M -69.278861,12.222771 A 0.3,0.17296140410209498 61.037052901500175 0,1 -69.343351,12.361423" />
      <path d="M -69.343351,12.361423 A 0.3,0.17296140410209498 61.037052901500175 0,1 -69.633897,11.836464" />
      <path d="M -69.633897,11.836464 A 0.3,0.17296140410209498 61.037052901500175 0,1 -69.278861,12.222771" />
      <path d="M 60.23906,-59.46073 A 0.3,0.17296140410209498 61.037052901500175 0,1 60.17457,-59.322077" />
      <path d="M 59.884024,-59.847037 A 0.3,0.17296140410209498 61.037052901500175 0,1 60.23906,-59.46073" />
      <path d="M -69.257694,13.891716 A 0.3,0.1729082606551596 61.04335749392725 0,1 -69.322166,14.030358" />
      <path d="M -69.322166,14.030358 A 0.3,0.1729082606551596 61.04335749392725 0,1 -69.612655,13.505367" />
      <path d="M -69.612655,13.505367 A 0.3,0.1729082606551596 61.04335749392725 0,1 -69.257694,13.891716" />
      <path d="M 57.922532,-56.479675 A 0.3,0.1729082606551596 61.04335749392725 0,1 57.858059,-56.341032" />
      <path d="M 57.567571,-56.866024 A 0.3,0.1729082606551596 61.04335749392725 0,1 57.922532,-56.479675" />
      <path d="M -69.070361,15.61496 A 0.3,0.17261363439154728 60.981008045477864 0,1 -69.134497,15.753416" />
      <path d="M -69.134497,15.753416 A 0.3,0.17261363439154728 60.981008045477864 0,1 -69.425557,15.228741" />
      <path d="M -69.425557,15.228741 A 0.3,0.17261363439154728 60.981008045477864 0,1 -69.070361,15.61496" />
      <path d="M 55.673174,-53.585574 A 0.3,0.17261363439154728 60.981008045477864 0,1 55.609038,-53.447119" />
      <path d="M 55.317979,-53.971794 A 0.3,0.17261363439154728 60.981008045477864 0,1 55.673174,-53.585574" />
      <path d="M -68.728883,17.045085 A 0.3,0.17255128688696478 60.98818944712184 0,1 -68.792998,17.183528" />
      <path d="M -68.792998,17.183528 A 0.30000007957498814,0.1725513326561868 60.98818944712184 0,1 -69.083992,16.658816" />
      <path d="M -69.083992,16.658816 A 0.3,0.17255128688696478 60.98818944712184 0,1 -68.728883,17.045085" />
      <path d="M 53.431592,-50.702494 A 0.3,0.17255128688696478 60.98818944712184 0,1 53.367477,-50.564051" />
      <path d="M 53.076483,-51.088763 A 0.3,0.17255128688696478 60.98818944712184 0,1 53.431592,-50.702494" />
      <path d="M -68.346402,18.595239 A 0.3,0.17248055874553456 60.99709618012045 0,1 -68.410494,18.73367" />
      <path d="M -68.410494,18.73367 A 0.30000031262866794,0.172480738486759 60.99709618012045 0,1 -68.701406,18.208912" />
      <path d="M -68.701406,18.208912 A 0.3,0.17248055874553456 60.99709618012045 0,1 -68.346402,18.595239" />
      <path d="M 50.99201,-47.563029 A 0.3,0.17248055874553456 60.99709618012045 0,1 50.927918,-47.424599" />
      <path d="M 50.637005,-47.949356 A 0.3,0.17248055874553456 60.99709618012045 0,1 50.99201,-47.563029" />
      <path d="M -67.856444,20.040885 A 0.3,0.17240705169955317 61.00716911929098 0,1 -67.920515,20.179302" />
      <path d="M -67.920515,20.179302 A 0.3,0.17240705169955317 61.00716911929098 0,1 -68.211335,19.654494" />
      <path d="M -68.211335,19.654494 A 0.3,0.17240705169955317 61.00716911929098 0,1 -67.856444,20.040885" />
      <path d="M 48.611114,-44.499088 A 0.3,0.17240705169955317 61.00716911929098 0,1 48.547043,-44.36067" />
      <path d="M 48.256223,-44.885478 A 0.3,0.17240705169955317 61.00716911929098 0,1 48.611114,-44.499088" />
      <path d="M -67.213753,21.229334 A 0.3,0.1723347324101919 61.01828400962286 0,1 -67.277806,21.367741" />
      <path d="M -67.277806,21.367741 A 0.3,0.1723347324101919 61.01828400962286 0,1 -67.568524,20.842877" />
      <path d="M -67.568524,20.842877 A 0.3,0.1723347324101919 61.01828400962286 0,1 -67.213753,21.229334" />
      <path d="M 46.463561,-41.735616 A 0.3,0.1723347324101919 61.01828400962286 0,1 46.399509,-41.597209" />
      <path d="M 46.108791,-42.122074 A 0.3,0.1723347324101919 61.01828400962286 0,1 46.463561,-41.735616" />
      <path d="M -66.431064,22.438202 A 0.3,0.1722551359266902 61.03163029438582 0,1 -66.4951,22.576598" />
      <path d="M -66.4951,22.576598 A 0.3,0.1722551359266902 61.03163029438582 0,1 -66.785696,22.051666" />
      <path d="M -66.785696,22.051666 A 0.3,0.1722551359266902 61.03163029438582 0,1 -66.431064,22.438202" />
      <path d="M 44.175285,-38.792102 A 0.3,0.1722551359266902 61.03163029438582 0,1 44.11125,-38.653705" />
      <path d="M 43.820654,-39.178637 A 0.3,0.1722551359266902 61.03163029438582 0,1 44.175285,-38.792102" />
      <path d="M -65.613726,23.397628 A 0.3,0.17218052507648807 61.045635554309165 0,1 -65.677748,23.536017" />
      <path d="M -65.677748,23.536017 A 0.3,0.17218052507648807 61.045635554309165 0,1 -65.968216,23.011014" />
      <path d="M -65.968216,23.011014 A 0.3,0.17218052507648807 61.045635554309165 0,1 -65.613726,23.397628" />
      <path d="M 42.203795,-36.254387 A 0.3,0.17218052507648807 61.045635554309165 0,1 42.139772,-36.115998" />
      <path d="M 41.849305,-36.641001 A 0.3,0.17218052507648807 61.045635554309165 0,1 42.203795,-36.254387" />
      <path d="M -64.668408,24.307661 A 0.3,0.17209896850806553 61.06101821418061 0,1 -64.732417,24.446042" />
      <path d="M -64.732417,24.446042 A 0.3000003640218724,0.17209917733402808 61.06101821418061 0,1 -65.022744,23.92096" />
      <path d="M -65.022744,23.92096 A 0.3,0.17209896850806553 61.06101821418061 0,1 -64.668408,24.307661" />
      <path d="M 40.198356,-33.675027 A 0.3,0.17209896850806553 61.06101821418061 0,1 40.134347,-33.536646" />
      <path d="M 39.84402,-34.061728 A 0.3,0.17209896850806553 61.06101821418061 0,1 40.198356,-33.675027" />
      <path d="M -63.392896,25.207501 A 0.3,0.17199944015769436 61.082450120123184 0,1 -63.456895,25.345875" />
      <path d="M -63.456895,25.345875 A 0.3,0.17199944015769436 61.082450120123184 0,1 -63.747025,24.820685" />
      <path d="M -63.747025,24.820685 A 0.3,0.17199944015769436 61.082450120123184 0,1 -63.392896,25.207501" />
      <path d="M 37.944698,-30.774362 A 0.3,0.17199944015769436 61.082450120123184 0,1 37.8807,-30.635988" />
      <path d="M 37.590569,-31.161178 A 0.3,0.17199944015769436 61.082450120123184 0,1 37.944698,-30.774362" />
      <path d="M -62.119501,25.853 A 0.3,0.1719050145933403 61.10358944243163 0,1 -62.183492,25.991369" />
      <path d="M -62.183492,25.991369 A 0.3000001675742307,0.17190511061617553 61.10358944243163 0,1 -62.473429,25.466072" />
      <path d="M -62.473429,25.466072 A 0.3,0.1719050145933403 61.10358944243163 0,1 -62.119501,25.853" />
      <path d="M 36.043891,-28.32808 A 0.3,0.1719050145933403 61.10358944243163 0,1 35.9799,-28.189711" />
      <path d="M 35.689963,-28.715008 A 0.3,0.1719050145933403 61.10358944243163 0,1 36.043891,-28.32808" />
      <path d="M -60.386525,26.569556 A 0.3,0.17177946099552593 61.13351641112354 0,1 -60.450511,26.707921" />
      <path d="M -60.450511,26.707921 A 0.3000003024354408,0.17177963416951597 61.13351641112354 1,1 -60.740173,26.182472" />
      <path d="M -60.740173,26.182472 A 0.3,0.17177946099552593 61.13351641112354 0,1 -60.386525,26.569556" />
      <path d="M 33.679183,-25.285734 A 0.3,0.17177946099552593 61.13351641112354 0,1 33.615197,-25.147369" />
      <path d="M 33.325535,-25.672817 A 0.3,0.17177946099552593 61.13351641112354 0,1 33.679183,-25.285734" />
      <path d="M -58.319112,27.004025 A 0.3,0.17164111234835744 61.17055846384968 0,1 -58.3831,27.142391" />
      <path d="M -58.3831,27.142391 A 0.3000004178435321,0.17164135141211956 61.17055846384968 0,1 -58.672423,26.616755" />
      <path d="M -58.672423,26.616755 A 0.3,0.17164111234835744 61.17055846384968 0,1 -58.319112,27.004025" />
      <path d="M 31.438195,-22.40055 A 0.3,0.17164111234835744 61.17055846384968 0,1 31.374206,-22.262185" />
      <path d="M 31.084884,-22.78782 A 0.3,0.17164111234835744 61.17055846384968 0,1 31.438195,-22.40055" />
      <path d="M -55.367892,27.268706 A 0.3,0.17144514886019305 61.226823321480346 0,1 -55.431895,27.407077" />
      <path d="M -55.431895,27.407077 A 0.3,0.17144514886019305 61.226823321480346 0,1 -55.720701,26.881158" />
      <path d="M -55.720701,26.881158 A 0.3,0.17144514886019305 61.226823321480346 0,1 -55.367892,27.268706" />
      <path d="M 28.72761,-18.911932 A 0.3,0.17144514886019305 61.226823321480346 0,1 28.663608,-18.773561" />
      <path d="M 28.374802,-19.29948 A 0.3,0.17144514886019305 61.226823321480346 0,1 28.72761,-18.911932" />
      <path d="M -52.328322,27.438287 A 0.3,0.17122095151908903 61.29220469208304 0,1 -52.392343,27.576665" />
      <path d="M -52.392343,27.576665 A 0.300000295181939,0.17122111999019726 61.29220469208304 0,1 -52.680549,27.050416" />
      <path d="M -52.680549,27.050416 A 0.3,0.17122095151908903 61.29220469208304 0,1 -52.328322,27.438287" />
      <path d="M 26.077799,-15.501677 A 0.3,0.17122095151908903 61.29220469208304 0,1 26.013778,-15.363298" />
      <path d="M 25.725573,-15.889547 A 0.3,0.17122095151908903 61.29220469208304 0,1 26.077799,-15.501677" />
      <path d="M -49.131098,27.232703 A 0.3,0.17098332715127182 61.367944567499805 0,1 -49.195154,27.371098" />
      <path d="M -49.195154,27.371098 A 0.3000000432254432,0.17098335178737215 61.367944567499805 0,1 -49.482664,26.844469" />
      <path d="M -49.482664,26.844469 A 0.3,0.17098332715127182 61.367944567499805 0,1 -49.131098,27.232703" />
      <path d="M 23.81828,-12.59355 A 0.3,0.17098332715127182 61.367944567499805 0,1 23.754224,-12.455156" />
      <path d="M 23.466714,-12.981785 A 0.3,0.17098332715127182 61.367944567499805 0,1 23.81828,-12.59355" />
      <path d="M -46.01947,26.987539 A 0.3,0.1707178044854464 61.45148818557306 0,1 -46.083561,27.12595" />
      <path d="M -46.083561,27.12595 A 0.3,0.1707178044854464 61.45148818557306 0,1 -46.370303,26.598903" />
      <path d="M -46.370303,26.598903 A 0.3,0.1707178044854464 61.45148818557306 0,1 -46.01947,26.987539" />
      <path d="M 21.683176,-9.846255 A 0.3,0.1707178044854464 61.45148818557306 0,1 21.619085,-9.707844" />
      <path d="M 21.332343,-10.234891 A 0.3,0.1707178044854464 61.45148818557306 0,1 21.683176,-9.846255" />
      <path d="M -43.071936,26.813435 A 0.3,0.17041711488824543 61.54603382726622 0,1 -43.136068,26.951864" />
      <path d="M -43.136068,26.951864 A 0.3,0.17041711488824543 61.54603382726622 0,1 -43.421939,26.424344" />
      <path d="M -43.421939,26.424344 A 0.3,0.17041711488824543 61.54603382726622 0,1 -43.071936,26.813435" />
      <path d="M 19.580553,-7.138943 A 0.3,0.17041711488824543 61.54603382726622 0,1 19.516421,-7.000513" />
      <path d="M 19.23055,-7.528033 A 0.3,0.17041711488824543 61.54603382726622 0,1 19.580553,-7.138943" />
      <path d="M -40.231913,26.492377 A 0.3,0.17009690531828603 61.648457636574776 0,1 -40.296092,26.630828" />
      <path d="M -40.296092,26.630828 A 0.3,0.17009690531828603 61.648457636574776 1,1 -40.58102,26.102798" />
      <path d="M -40.58102,26.102798 A 0.3,0.17009690531828603 61.648457636574776 0,1 -40.231913,26.492377" />
      <path d="M 17.763571,-4.802304 A 0.3,0.17009690531828603 61.648457636574776 0,1 17.699392,-4.663853" />
      <path d="M 17.414464,-5.191883 A 0.3,0.17009690531828603 61.648457636574776 0,1 17.763571,-4.802304" />
      <path d="M -37.714371,26.344437 A 0.3,0.16974381475099537 61.75962492440209 0,1 -37.778597,26.48291" />
      <path d="M -37.778597,26.48291 A 0.3,0.16974381475099537 61.75962492440209 1,1 -38.0625,25.954328" />
      <path d="M -38.0625,25.954328 A 0.3,0.16974381475099537 61.75962492440209 0,1 -37.714371,26.344437" />
      <path d="M 15.964933,-2.486873 A 0.3,0.16974381475099537 61.75962492440209 0,1 15.900707,-2.348401" />
      <path d="M 15.616804,-2.876983 A 0.3,0.16974381475099537 61.75962492440209 0,1 15.964933,-2.486873" />
      <path d="M -35.826117,26.375289 A 0.3,0.16941049268713468 61.85881995183085 0,1 -35.890373,26.513774" />
      <path d="M -35.890373,26.513774 A 0.3,0.16941049268713468 61.85881995183085 1,1 -36.17336,25.984701" />
      <path d="M -36.17336,25.984701 A 0.3,0.16941049268713468 61.85881995183085 0,1 -35.826117,26.375289" />
      <path d="M 14.421598,-0.500921 A 0.3,0.16941049268713468 61.85881995183085 0,1 14.357342,-0.362436" />
      <path d="M 14.074355,-0.891509 A 0.3,0.16941049268713468 61.85881995183085 0,1 14.421598,-0.500921" />
      <path d="M -34.048941,26.538039 A 0.3,0.1690247643029831 61.97133716195587 0,1 -34.113226,26.676534" />
      <path d="M -34.113226,26.676534 A 0.30000020545327843,0.16902488005862298 61.97133716195587 0,1 -34.395174,26.146906" />
      <path d="M -34.395174,26.146906 A 0.3,0.1690247643029831 61.97133716195587 0,1 -34.048941,26.538039" />
      <path d="M 12.782741,1.607132 A 0.3,0.1690247643029831 61.97133716195587 0,1 12.718456,1.745627" />
      <path d="M 12.436508,1.216 A 0.3,0.1690247643029831 61.97133716195587 0,1 12.782741,1.607132" />
      <path d="M -32.59993,27.055999 A 0.3,0.1685662778847739 62.09263966656936 0,1 -32.664218,27.194491" />
      <path d="M -32.664218,27.194491 A 0.30000030518827675,0.16856644936628015 62.09263966656936 0,1 -32.945044,26.664267" />
      <path d="M -32.945044,26.664267 A 0.3,0.1685662778847739 62.09263966656936 0,1 -32.59993,27.055999" />
      <path d="M 10.917543,4.007525 A 0.3,0.1685662778847739 62.09263966656936 0,1 10.853255,4.146017" />
      <path d="M 10.572429,3.615794 A 0.3,0.1685662778847739 62.09263966656936 0,1 10.917543,4.007525" />
      <path d="M -31.524293,27.812386 A 0.3,0.16807736637734408 62.21427888810284 0,1 -31.588565,27.950864" />
      <path d="M -31.588565,27.950864 A 0.3,0.16807736637734408 62.21427888810284 0,1 -31.868264,27.420046" />
      <path d="M -31.868264,27.420046 A 0.3,0.16807736637734408 62.21427888810284 0,1 -31.524293,27.812386" />
      <path d="M 9.018382,6.449569 A 0.3,0.16807736637734408 62.21427888810284 0,1 8.95411,6.588048" />
      <path d="M 8.67441,6.057229 A 0.3,0.16807736637734408 62.21427888810284 0,1 9.018382,6.449569" />
      <path d="M -30.923776,28.729592 A 0.3,0.1676169940390056 62.31846957287159 0,1 -30.988007,28.868044" />
      <path d="M -30.988007,28.868044 A 0.3,0.1676169940390056 62.31846957287159 0,1 -31.266741,28.336718" />
      <path d="M -31.266741,28.336718 A 0.3,0.1676169940390056 62.31846957287159 0,1 -30.923776,28.729592" />
      <path d="M 7.277668,8.689091 A 0.3,0.1676169940390056 62.31846957287159 0,1 7.213437,8.827543" />
      <path d="M 6.934703,8.296217 A 0.3,0.1676169940390056 62.31846957287159 0,1 7.277668,8.689091" />
      <path d="M -30.607585,29.993844 A 0.3,0.16708049258806978 62.43131973208068 0,1 -30.671746,30.132254" />
      <path d="M -30.671746,30.132254 A 0.3000000091020881,0.167080497657341 62.43131973208068 0,1 -30.949433,29.60038" />
      <path d="M -30.949433,29.60038 A 0.3,0.16708049258806978 62.43131973208068 0,1 -30.607585,29.993844" />
      <path d="M 5.283034,11.255655 A 0.3,0.16708049258806978 62.43131973208068 0,1 5.218873,11.394066" />
      <path d="M 4.941186,10.862192 A 0.3,0.16708049258806978 62.43131973208068 0,1 5.283034,11.255655" />
      <path d="M -30.405941,31.206653 A 0.3,0.1665360708655933 62.53960563317357 0,1 -30.470017,31.345014" />
      <path d="M -30.470017,31.345014 A 0.3000000025688062,0.16653607229158962 62.53960563317357 1,1 -30.746698,30.812616" />
      <path d="M -30.746698,30.812616 A 0.3,0.1665360708655933 62.53960563317357 0,1 -30.405941,31.206653" />
      <path d="M 3.451038,13.61156 A 0.3,0.1665360708655933 62.53960563317357 0,1 3.386963,13.749921" />
      <path d="M 3.110282,13.217523 A 0.3,0.1665360708655933 62.53960563317357 0,1 3.451038,13.61156" />
      <path d="M -30.385573,32.492263 A 0.3,0.16576874045708564 62.69761753304862 0,1 -30.449538,32.63056" />
      <path d="M -30.449538,32.63056 A 0.300000068427079,0.1657687782673213 62.69761753304862 0,1 -30.72475,32.097401" />
      <path d="M -30.72475,32.097401 A 0.3,0.16576874045708564 62.69761753304862 0,1 -30.385573,32.492263" />
      <path d="M 1.615251,15.97372 A 0.3,0.16576874045708564 62.69761753304862 0,1 1.551286,16.112017" />
      <path d="M 1.276074,15.578859 A 0.3,0.16576874045708564 62.69761753304862 0,1 1.615251,15.97372" />
      <path d="M -30.567182,33.864285 A 0.3,0.16520003531947788 62.79755248546547 0,1 -30.631023,34.002514" />
      <path d="M -30.631023,34.002514 A 0.3,0.16520003531947788 62.79755248546547 0,1 -30.905304,33.468876" />
      <path d="M -30.905304,33.468876 A 0.3,0.16520003531947788 62.79755248546547 0,1 -30.567182,33.864285" />
      <path d="M -0.131892,18.221027 A 0.3,0.16520003531947788 62.79755248546547 0,1 -0.195733,18.359256" />
      <path d="M -0.470014,17.825618 A 0.3,0.16520003531947788 62.79755248546547 0,1 -0.131892,18.221027" />
      <path d="M -30.794865,35.357613 A 0.3,0.16451093318694346 62.91197283465592 0,1 -30.858537,35.495751" />
      <path d="M -30.858537,35.495751 A 0.30000002102097706,0.164510944714212 62.91197283465592 1,1 -31.131752,34.961566" />
      <path d="M -31.131752,34.961566 A 0.3,0.16451093318694346 62.91197283465592 0,1 -30.794865,35.357613" />
      <path d="M -2.00784,20.634139 A 0.3,0.16451093318694346 62.91197283465592 0,1 -2.071513,20.772276" />
      <path d="M -2.344728,20.238092 A 0.3,0.16451093318694346 62.91197283465592 0,1 -2.00784,20.634139" />
      <path d="M -31.229101,37.108993 A 0.3,0.16373233281627866 63.034916477157864 0,1 -31.292567,37.24702" />
      <path d="M -31.292567,37.24702 A 0.3,0.16373233281627866 63.034916477157864 0,1 -31.564635,36.712251" />
      <path d="M -31.564635,36.712251 A 0.3,0.16373233281627866 63.034916477157864 0,1 -31.229101,37.108993" />
      <path d="M -4.076908,23.295095 A 0.3,0.16373233281627866 63.034916477157864 0,1 -4.140374,23.433123" />
      <path d="M -4.412442,22.898353 A 0.3,0.16373233281627866 63.034916477157864 0,1 -4.076908,23.295095" />
      <path d="M -31.772841,38.730904 A 0.3,0.16302904360219825 63.13509238892371 0,1 -31.836093,38.86882" />
      <path d="M -31.836093,38.86882 A 0.3000001307141712,0.1630291146362193 63.13509238892371 0,1 -32.107226,38.333575" />
      <path d="M -32.107226,38.333575 A 0.3,0.16302904360219825 63.13509238892371 0,1 -31.772841,38.730904" />
      <path d="M -5.879298,25.614295 A 0.3,0.16302904360219825 63.13509238892371 0,1 -5.942549,25.752211" />
      <path d="M -6.213682,25.216966 A 0.3,0.16302904360219825 63.13509238892371 0,1 -5.879298,25.614295" />
      <path d="M -32.380167,40.29155 A 0.3,0.16236470101418618 63.222051945900745 0,1 -32.443197,40.42935" />
      <path d="M -32.443197,40.42935 A 0.3,0.16236470101418618 63.222051945900745 0,1 -32.713517,39.893695" />
      <path d="M -32.713517,39.893695 A 0.3,0.16236470101418618 63.222051945900745 0,1 -32.380167,40.29155" />
      <path d="M -7.547284,27.759552 A 0.3,0.16236470101418618 63.222051945900745 0,1 -7.610314,27.897353" />
      <path d="M -7.880634,27.361697 A 0.3,0.16236470101418618 63.222051945900745 0,1 -7.547284,27.759552" />
      <path d="M -33.151445,41.892969 A 0.3,0.16176670903334534 63.28464286865346 0,1 -33.214236,42.030648" />
      <path d="M -33.214236,42.030648 A 0.3000001852608402,0.16176680893013345 63.28464286865346 0,1 -33.483971,41.494697" />
      <path d="M -33.483971,41.494697 A 0.3,0.16176670903334534 63.28464286865346 0,1 -33.151445,41.892969" />
      <path d="M -9.141634,29.809227 A 0.3,0.16176670903334534 63.28464286865346 0,1 -9.204425,29.946907" />
      <path d="M -9.47416,29.410956 A 0.3,0.16176670903334534 63.28464286865346 0,1 -9.141634,29.809227" />
      <path d="M -33.673939,43.24868 A 0.3,0.1610830512444186 63.374335444847 0,1 -33.7365,43.386243" />
      <path d="M -33.7365,43.386243 A 0.3,0.1610830512444186 63.374335444847 0,1 -34.005396,42.849871" />
      <path d="M -34.005396,42.849871 A 0.3,0.1610830512444186 63.374335444847 0,1 -33.673939,43.24868" />
      <path d="M -10.594681,31.678516 A 0.3,0.1610830512444186 63.374335444847 0,1 -10.657242,31.816078" />
      <path d="M -10.926138,31.279706 A 0.3,0.1610830512444186 63.374335444847 0,1 -10.594681,31.678516" />
      <path d="M -34.380962,44.764002 A 0.3,0.16038958083201343 63.44880423231621 0,1 -34.443248,44.901427" />
      <path d="M -34.443248,44.901427 A 0.30000005643459304,0.16038961100374918 63.44880423231621 0,1 -34.711447,44.364706" />
      <path d="M -34.711447,44.364706 A 0.3,0.16038958083201343 63.44880423231621 0,1 -34.380962,44.764002" />
      <path d="M -12.12124,33.640869 A 0.3,0.16038958083201343 63.44880423231621 0,1 -12.183527,33.778294" />
      <path d="M -12.451725,33.241573 A 0.3,0.16038958083201343 63.44880423231621 0,1 -12.12124,33.640869" />
      <path d="M -35.134595,46.245 A 0.3,0.1597475925810564 63.51206371251466 0,1 -35.196614,46.382291" />
      <path d="M -35.196614,46.382291 A 0.3,0.1597475925810564 63.51206371251466 0,1 -35.464219,45.845274" />
      <path d="M -35.464219,45.845274 A 0.3,0.1597475925810564 63.51206371251466 0,1 -35.134595,46.245" />
      <path d="M -13.562888,35.495414 A 0.3,0.1597475925810564 63.51206371251466 0,1 -13.624907,35.632706" />
      <path d="M -13.892513,35.095689 A 0.3,0.1597475925810564 63.51206371251466 0,1 -13.562888,35.495414" />
      <path d="M -35.973207,47.897523 A 0.3,0.15896279610830052 63.589122618126275 0,1 -36.034896,48.034652" />
      <path d="M -36.034896,48.034652 A 0.3000002399242285,0.1589629232383879 63.589122618126275 0,1 -36.301779,47.497275" />
      <path d="M -36.301779,47.497275 A 0.3,0.15896279610830052 63.589122618126275 0,1 -35.973207,47.897523" />
      <path d="M -15.173661,37.567617 A 0.3,0.15896279610830052 63.589122618126275 0,1 -15.23535,37.704745" />
      <path d="M -15.502234,37.167369 A 0.3,0.15896279610830052 63.589122618126275 0,1 -15.173661,37.567617" />
      <path d="M -36.78354,49.480645 A 0.3,0.1581696807982438 63.66554891634316 0,1 -36.844892,49.617608" />
      <path d="M -36.844892,49.617608 A 0.3000000180750142,0.15816969032797457 63.66554891634316 0,1 -37.111058,49.079876" />
      <path d="M -37.111058,49.079876 A 0.3,0.1581696807982438 63.66554891634316 0,1 -36.78354,49.480645" />
      <path d="M -16.7109,39.545106 A 0.3,0.1581696807982438 63.66554891634316 0,1 -16.772252,39.68207" />
      <path d="M -17.038418,39.144338 A 0.3,0.1581696807982438 63.66554891634316 0,1 -16.7109,39.545106" />
      <path d="M -37.456074,50.901732 A 0.3,0.1573000976130335 63.75697977012846 0,1 -37.517073,51.038524" />
      <path d="M -37.517073,51.038524 A 0.3,0.1573000976130335 63.75697977012846 0,1 -37.78238,50.500368" />
      <path d="M -37.78238,50.500368 A 0.3,0.1573000976130335 63.75697977012846 0,1 -37.456074,50.901732" />
      <path d="M -18.136503,41.3773 A 0.3,0.1573000976130335 63.75697977012846 0,1 -18.197501,41.514092" />
      <path d="M -18.462809,40.975936 A 0.3,0.1573000976130335 63.75697977012846 0,1 -18.136503,41.3773" />
      <path d="M -38.035852,52.081481 A 0.3,0.15655787045022232 63.8300298892449 0,1 -38.096536,52.218122" />
      <path d="M -38.096536,52.218122 A 0.3,0.15655787045022232 63.8300298892449 0,1 -38.361158,51.679629" />
      <path d="M -38.361158,51.679629 A 0.3,0.15655787045022232 63.8300298892449 0,1 -38.035852,52.081481" />
      <path d="M -19.300351,42.874666 A 0.3,0.15655787045022232 63.8300298892449 0,1 -19.361035,43.011307" />
      <path d="M -19.625656,42.472813 A 0.3,0.15655787045022232 63.8300298892449 0,1 -19.300351,42.874666" />
      <path d="M -38.620014,53.320085 A 0.3,0.15568012429120853 63.92483412436358 0,1 -38.680345,53.456558" />
      <path d="M -38.680345,53.456558 A 0.3000000565254098,0.15568015362415127 63.92483412436358 0,1 -38.944075,52.917627" />
      <path d="M -38.944075,52.917627 A 0.3,0.15568012429120853 63.92483412436358 0,1 -38.620014,53.320085" />
      <path d="M -20.544243,44.474569 A 0.3,0.15568012429120853 63.92483412436358 0,1 -20.604575,44.611042" />
      <path d="M -20.868305,44.072111 A 0.3,0.15568012429120853 63.92483412436358 0,1 -20.544243,44.474569" />
      <path d="M -39.10481,54.621236 A 0.3,0.1538602265335345 64.19772242423353 0,1 -39.164584,54.757454" />
      <path d="M -39.164584,54.757454 A 0.3000000243171191,0.1538602390049927 64.19772242423353 0,1 -39.425744,54.217273" />
      <path d="M -39.425744,54.217273 A 0.3,0.1538602265335345 64.19772242423353 0,1 -39.10481,54.621236" />
      <path d="M -21.910801,46.308484 A 0.3,0.1538602265335345 64.19772242423353 0,1 -21.970576,46.444702" />
      <path d="M -22.231736,45.904521 A 0.3,0.1538602265335345 64.19772242423353 0,1 -21.910801,46.308484" />
      <path d="M -39.489676,55.89802 A 0.3,0.1515593804050437 64.83044156281304 0,1 -39.549412,56.034247" />
      <path d="M -39.549412,56.034247 A 0.30000003127710656,0.15155939620617334 64.83044156281304 0,1 -39.804591,55.491215" />
      <path d="M -39.804591,55.491215 A 0.3,0.1515593804050437 64.83044156281304 0,1 -39.489676,55.89802" />
      <path d="M -22.12384,47.737545 A 0.3,0.1515593804050437 64.83044156281304 0,1 -22.183577,47.873772" />
      <path d="M -22.438756,47.33074 A 0.3,0.1515593804050437 64.83044156281304 0,1 -22.12384,47.737545" />
      <line x1="69.451044" y1="-71.160837" x2="-69.315126" y2="5.600048" />
      <line x1="69.160617" y1="-71.685862" x2="-69.605553" y2="5.075022" />
      <line x1="67.082983" y1="-68.114101" x2="-69.312258" y2="7.362026" />
      <line x1="66.792477" y1="-68.639084" x2="-69.602764" y2="6.837044" />
      <line x1="64.714923" y1="-65.067367" x2="-69.309389" y2="9.124003" />
      <line x1="64.424336" y1="-65.592304" x2="-69.599976" y2="8.599066" />
      <line x1="62.346865" y1="-62.020633" x2="-69.306518" y2="10.885979" />
      <line x1="62.056193" y1="-62.545524" x2="-69.59719" y2="10.361089" />
      <line x1="60.17457" y1="-59.322077" x2="-69.343351" y2="12.361423" />
      <line x1="59.884024" y1="-59.847037" x2="-69.633897" y2="11.836464" />
      <line x1="57.858059" y1="-56.341032" x2="-69.322166" y2="14.030358" />
      <line x1="57.567571" y1="-56.866024" x2="-69.612655" y2="13.505367" />
      <line x1="55.609038" y1="-53.447119" x2="-69.134497" y2="15.753416" />
      <line x1="55.317979" y1="-53.971794" x2="-69.425557" y2="15.228741" />
      <line x1="53.367477" y1="-50.564051" x2="-68.792998" y2="17.183528" />
      <line x1="53.076483" y1="-51.088763" x2="-69.083992" y2="16.658816" />
      <line x1="50.927918" y1="-47.424599" x2="-68.410494" y2="18.73367" />
      <line x1="50.637005" y1="-47.949356" x2="-68.701406" y2="18.208912" />
      <line x1="48.547043" y1="-44.36067" x2="-67.920515" y2="20.179302" />
      <line x1="48.256223" y1="-44.885478" x2="-68.211335" y2="19.654494" />
      <line x1="46.399509" y1="-41.597209" x2="-67.277806" y2="21.367741" />
      <line x1="46.108791" y1="-42.122074" x2="-67.568524" y2="20.842877" />
      <line x1="44.11125" y1="-38.653705" x2="-66.4951" y2="22.576598" />
      <line x1="43.820654" y1="-39.178637" x2="-66.785696" y2="22.051666" />
      <line x1="42.139772" y1="-36.115998" x2="-65.677748" y2="23.536017" />
      <line x1="41.849305" y1="-36.641001" x2="-65.968216" y2="23.011014" />
      <line x1="40.134347" y1="-33.536646" x2="-64.732417" y2="24.446042" />
      <line x1="39.84402" y1="-34.061728" x2="-65.022744" y2="23.92096" />
      <line x1="37.8807" y1="-30.635988" x2="-63.456895" y2="25.345875" />
      <line x1="37.590569" y1="-31.161178" x2="-63.747025" y2="24.820685" />
      <line x1="35.9799" y1="-28.189711" x2="-62.183492" y2="25.991369" />
      <line x1="35.689963" y1="-28.715008" x2="-62.473429" y2="25.466072" />
      <line x1="33.615197" y1="-25.147369" x2="-60.450511" y2="26.707921" />
      <line x1="33.325535" y1="-25.672817" x2="-60.740173" y2="26.182472" />
      <line x1="31.374206" y1="-22.262185" x2="-58.3831" y2="27.142391" />
      <line x1="31.084884" y1="-22.78782" x2="-58.672423" y2="26.616755" />
      <line x1="28.663608" y1="-18.773561" x2="-55.431895" y2="27.407077" />
      <line x1="28.374802" y1="-19.29948" x2="-55.720701" y2="26.881158" />
      <line x1="26.013778" y1="-15.363298" x2="-52.392343" y2="27.576665" />
      <line x1="25.725573" y1="-15.889547" x2="-52.680549" y2="27.050416" />
      <line x1="23.754224" y1="-12.455156" x2="-49.195154" y2="27.371098" />
      <line x1="23.466714" y1="-12.981785" x2="-49.482664" y2="26.844469" />
      <line x1="21.619085" y1="-9.707844" x2="-46.083561" y2="27.12595" />
      <line x1="21.332343" y1="-10.234891" x2="-46.370303" y2="26.598903" />
      <line x1="19.516421" y1="-7.000513" x2="-43.136068" y2="26.951864" />
      <line x1="19.23055" y1="-7.528033" x2="-43.421939" y2="26.424344" />
      <line x1="17.699392" y1="-4.663853" x2="-40.296092" y2="26.630828" />
      <line x1="17.414464" y1="-5.191883" x2="-40.58102" y2="26.102798" />
      <line x1="15.900707" y1="-2.348401" x2="-37.778597" y2="26.48291" />
      <line x1="15.616804" y1="-2.876983" x2="-38.0625" y2="25.954328" />
      <line x1="14.357342" y1="-0.362436" x2="-35.890373" y2="26.513774" />
      <line x1="14.074355" y1="-0.891509" x2="-36.17336" y2="25.984701" />
      <line x1="12.718456" y1="1.745627" x2="-34.113226" y2="26.676534" />
      <line x1="12.436508" y1="1.216" x2="-34.395174" y2="26.146906" />
      <line x1="10.853255" y1="4.146017" x2="-32.664218" y2="27.194491" />
      <line x1="10.572429" y1="3.615794" x2="-32.945044" y2="26.664267" />
      <line x1="8.95411" y1="6.588048" x2="-31.588565" y2="27.950864" />
      <line x1="8.67441" y1="6.057229" x2="-31.868264" y2="27.420046" />
      <line x1="7.213437" y1="8.827543" x2="-30.988007" y2="28.868044" />
      <line x1="6.934703" y1="8.296217" x2="-31.266741" y2="28.336718" />
      <line x1="5.218873" y1="11.394066" x2="-30.671746" y2="30.132254" />
      <line x1="4.941186" y1="10.862192" x2="-30.949433" y2="29.60038" />
      <line x1="3.386963" y1="13.749921" x2="-30.470017" y2="31.345014" />
      <line x1="3.110282" y1="13.217523" x2="-30.746698" y2="30.812616" />
      <line x1="1.551286" y1="16.112017" x2="-30.449538" y2="32.63056" />
      <line x1="1.276074" y1="15.578859" x2="-30.72475" y2="32.097401" />
      <line x1="-0.195733" y1="18.359256" x2="-30.631023" y2="34.002514" />
      <line x1="-0.470014" y1="17.825618" x2="-30.905304" y2="33.468876" />
      <line x1="-2.071513" y1="20.772276" x2="-30.858537" y2="35.495751" />
      <line x1="-2.344728" y1="20.238092" x2="-31.131752" y2="34.961566" />
      <line x1="-4.140374" y1="23.433123" x2="-31.292567" y2="37.24702" />
      <line x1="-4.412442" y1="22.898353" x2="-31.564635" y2="36.712251" />
      <line x1="-5.942549" y1="25.752211" x2="-31.836093" y2="38.86882" />
      <line x1="-6.213682" y1="25.216966" x2="-32.107226" y2="38.333575" />
      <line x1="-7.610314" y1="27.897353" x2="-32.443197" y2="40.42935" />
      <line x1="-7.880634" y1="27.361697" x2="-32.713517" y2="39.893695" />
      <line x1="-9.204425" y1="29.946907" x2="-33.214236" y2="42.030648" />
      <line x1="-9.47416" y1="29.410956" x2="-33.483971" y2="41.494697" />
      <line x1="-10.657242" y1="31.816078" x2="-33.7365" y2="43.386243" />
      <line x1="-10.926138" y1="31.279706" x2="-34.005396" y2="42.849871" />
      <line x1="-12.183527" y1="33.778294" x2="-34.443248" y2="44.901427" />
      <line x1="-12.451725" y1="33.241573" x2="-34.711447" y2="44.364706" />
      <line x1="-13.624907" y1="35.632706" x2="-35.196614" y2="46.382291" />
      <line x1="-13.892513" y1="35.095689" x2="-35.464219" y2="45.845274" />
      <line x1="-15.23535" y1="37.704745" x2="-36.034896" y2="48.034652" />
      <line x1="-15.502234" y1="37.167369" x2="-36.301779" y2="47.497275" />
      <line x1="-16.772252" y1="39.68207" x2="-36.844892" y2="49.617608" />
      <line x1="-17.038418" y1="39.144338" x2="-37.111058" y2="49.079876" />
      <line x1="-18.197501" y1="41.514092" x2="-37.517073" y2="51.038524" />
      <line x1="-18.462809" y1="40.975936" x2="-37.78238" y2="50.500368" />
      <line x1="-19.361035" y1="43.011307" x2="-38.096536" y2="52.218122" />
      <line x1="-19.625656" y1="42.472813" x2="-38.361158" y2="51.679629" />
      <line x1="-20.604575" y1="44.611042" x2="-38.680345" y2="53.456558" />
      <line x1="-20.868305" y1="44.072111" x2="-38.944075" y2="52.917627" />
      <line x1="-21.970576" y1="46.444702" x2="-39.164584" y2="54.757454" />
      <line x1="-22.231736" y1="45.904521" x2="-39.425744" y2="54.217273" />
      <line x1="-22.183577" y1="47.873772" x2="-39.549412" y2="56.034247" />
      <line x1="-22.438756" y1="47.33074" x2="-39.804591" y2="55.491215" />
    </g>
    <g fill="none" stroke="rgb(140,140,140)" stroke-width="0.26979858224805453" id="Hidden" stroke-dasharray="3.237583 0.809396">
      <path d="M 69.303526,-71.177084 A 0.3,0.1732855408464566 61.05007325121704 0,1 69.160617,-71.685862" />
      <path d="M 69.451044,-71.160837 A 0.3,0.1732855408464566 61.05007325121704 0,1 69.303526,-71.177084" />
      <path d="M 66.935497,-68.130368 A 0.3,0.17319779895758874 61.04146578497225 0,1 66.792477,-68.639084" />
      <path d="M 67.082983,-68.114101 A 0.3,0.17319779895758874 61.04146578497225 0,1 66.935497,-68.130368" />
      <path d="M 64.714923,-65.067367 A 0.3,0.17310689504901564 61.03255528925787 0,1 64.424336,-65.592304" />
      <path d="M 62.346865,-62.020633 A 0.30000032227710693,0.17301284097294237 61.02332547537546 0,1 62.056193,-62.545524" />
      <path d="M 60.17457,-59.322077 A 0.3,0.17296140410209498 61.037052901500175 0,1 59.884024,-59.847037" />
      <path d="M 57.858059,-56.341032 A 0.3,0.1729082606551596 61.04335749392725 0,1 57.567571,-56.866024" />
      <path d="M 55.609038,-53.447119 A 0.3,0.17261363439154728 60.981008045477864 0,1 55.317979,-53.971794" />
      <path d="M 53.367477,-50.564051 A 0.30000007957498964,0.1725513326561877 60.98818944712184 0,1 53.076483,-51.088763" />
      <path d="M 50.927918,-47.424599 A 0.3000001177577724,0.1724806264486225 60.99709618012045 0,1 50.637005,-47.949356" />
      <path d="M 48.547043,-44.36067 A 0.3,0.17240705169955317 61.00716911929098 0,1 48.256223,-44.885478" />
      <path d="M 46.399509,-41.597209 A 0.30000009322889953,0.17233478596545007 61.01828400962286 0,1 46.108791,-42.122074" />
      <path d="M 44.11125,-38.653705 A 0.3,0.1722551359266902 61.03163029438582 0,1 43.820654,-39.178637" />
      <path d="M 42.139772,-36.115998 A 0.3,0.17218052507648807 61.045635554309165 0,1 41.849305,-36.641001" />
      <path d="M 40.134347,-33.536646 A 0.3000003640218739,0.1720991773340289 61.06101821418061 0,1 39.84402,-34.061728" />
      <path d="M 37.8807,-30.635988 A 0.300000222192249,0.17199956754750248 61.082450120123184 0,1 37.590569,-31.161178" />
      <path d="M 35.9799,-28.189711 A 0.30000016757423226,0.17190511061617644 61.10358944243163 0,1 35.689963,-28.715008" />
      <path d="M 33.615197,-25.147369 A 0.3,0.17177946099552593 61.13351641112354 1,1 33.325535,-25.672817" />
      <path d="M 31.374206,-22.262185 A 0.3,0.17164111234835744 61.17055846384968 0,1 31.084884,-22.78782" />
      <path d="M 28.663608,-18.773561 A 0.3,0.17144514886019305 61.226823321480346 0,1 28.374802,-19.29948" />
      <path d="M 26.013778,-15.363298 A 0.30000005501146193,0.17122098291613855 61.29220469208304 0,1 25.725573,-15.889547" />
      <path d="M 23.754224,-12.455156 A 0.3000000432254441,0.17098335178737264 61.367944567499805 0,1 23.466714,-12.981785" />
      <path d="M 21.619085,-9.707844 A 0.3,0.1707178044854464 61.45148818557306 0,1 21.332343,-10.234891" />
      <path d="M 19.516421,-7.000513 A 0.3,0.17041711488824543 61.54603382726622 0,1 19.23055,-7.528033" />
      <path d="M 17.699392,-4.663853 A 0.3,0.17009690531828603 61.648457636574776 1,1 17.414464,-5.191883" />
      <path d="M 15.900707,-2.348401 A 0.3,0.16974381475099537 61.75962492440209 1,1 15.616804,-2.876983" />
      <path d="M 14.357342,-0.362436 A 0.3,0.16941049268713468 61.85881995183085 1,1 14.074355,-0.891509" />
      <path d="M 12.718456,1.745627 A 0.3,0.1690247643029831 61.97133716195587 0,1 12.436508,1.216" />
      <path d="M 10.853255,4.146017 A 0.3,0.1685662778847739 62.09263966656936 0,1 10.572429,3.615794" />
      <path d="M 8.95411,6.588048 A 0.30000037531685186,0.1680775766515708 62.21427888810284 0,1 8.67441,6.057229" />
      <path d="M 7.213437,8.827543 A 0.3,0.1676169940390056 62.31846957287159 0,1 6.934703,8.296217" />
      <path d="M 5.218873,11.394066 A 0.30000000910208896,0.16708049765734148 62.43131973208068 0,1 4.941186,10.862192" />
      <path d="M 3.386963,13.749921 A 0.3000000025688062,0.16653607229158962 62.53960563317357 1,1 3.110282,13.217523" />
      <path d="M 1.551286,16.112017 A 0.3,0.16576874045708564 62.69761753304862 0,1 1.276074,15.578859" />
      <path d="M -0.195733,18.359256 A 0.3,0.16520003531947788 62.79755248546547 0,1 -0.470014,17.825618" />
      <path d="M -2.071513,20.772276 A 0.3,0.16451093318694346 62.91197283465592 1,1 -2.344728,20.238092" />
      <path d="M -4.140374,23.433123 A 0.3,0.16373233281627866 63.034916477157864 0,1 -4.412442,22.898353" />
      <path d="M -5.942549,25.752211 A 0.30000013071417403,0.16302911463622083 63.13509238892371 0,1 -6.213682,25.216966" />
      <path d="M -7.610314,27.897353 A 0.3000001053069348,0.16236475800794944 63.222051945900745 0,1 -7.880634,27.361697" />
      <path d="M -9.204425,29.946907 A 0.3000001852608422,0.1617668089301345 63.28464286865346 0,1 -9.47416,29.410956" />
      <path d="M -10.657242,31.816078 A 0.3,0.1610830512444186 63.374335444847 0,1 -10.926138,31.279706" />
      <path d="M -12.183527,33.778294 A 0.3,0.16038958083201343 63.44880423231621 0,1 -12.451725,33.241573" />
      <path d="M -13.624907,35.632706 A 0.3000000956355116,0.15974764350619888 63.51206371251466 0,1 -13.892513,35.095689" />
      <path d="M -15.23535,37.704745 A 0.30000001451430847,0.15896280379908406 63.589122618126275 0,1 -15.502234,37.167369" />
      <path d="M -16.772252,39.68207 A 0.30000001807501736,0.15816969032797623 63.66554891634316 0,1 -17.038418,39.144338" />
      <path d="M -18.197501,41.514092 A 0.30000008966674807,0.15730014462832762 63.75697977012846 0,1 -18.462809,40.975936" />
      <path d="M -19.361035,43.011307 A 0.30000002569890366,0.1565578838614411 63.8300298892449 0,1 -19.625656,42.472813" />
      <path d="M -20.604575,44.611042 A 0.30000005652541056,0.15568015362415166 63.92483412436358 0,1 -20.868305,44.072111" />
      <path d="M -21.970576,46.444702 A 0.3000000243171151,0.15386023900499066 64.19772242423353 0,1 -22.231736,45.904521" />
      <path d="M -22.183577,47.873772 A 0.30000003127710584,0.15155939620617295 64.83044156281304 0,1 -22.438756,47.33074" />
    </g>
  </g>
</svg>