<svg xmlns="http://www.w3.org/2000/svg" width="980" height="455" viewBox="0 0 105.50 49.00">
<polygon points="16.00,22.50 17.00,21.50 28.00,21.50 28.00,20.00 30.50,20.00 30.50,20.90 88.50,20.90 89.50,21.90 89.50,27.10 88.50,28.10 30.50,28.10 30.50,29.00 28.00,29.00 28.00,27.50 17.00,27.50 16.00,26.50" fill="none" stroke="black" stroke-width="0.3"/>
<line x1="10.00" y1="24.50" x2="95.50" y2="24.50" stroke="rgb(90,90,90)" stroke-width="0.15" stroke-dasharray="6,1.5,1,1.5"/>
<line x1="81.70" y1="20.90" x2="81.70" y2="28.10" stroke="rgb(60,60,60)" stroke-width="0.15" stroke-dasharray="1.4,1"/>
<line x1="83.30" y1="20.90" x2="83.30" y2="28.10" stroke="rgb(60,60,60)" stroke-width="0.15" stroke-dasharray="1.4,1"/>
<line x1="16.00" y1="42.00" x2="89.50" y2="42.00" stroke="black" stroke-width="0.15"/>
<path d="M16.00,42.00 l1.60,-0.9 l0,1.8 z" fill="black"/>
<path d="M89.50,42.00 l-1.60,-0.9 l0,1.8 z" fill="black"/>
<text x="52.75" y="41.00" font-family="sans-serif" font-size="2.6" text-anchor="middle">73.5</text>
<line x1="16.00" y1="36.00" x2="28.00" y2="36.00" stroke="black" stroke-width="0.15"/>
<path d="M16.00,36.00 l1.60,-0.9 l0,1.8 z" fill="black"/>
<path d="M28.00,36.00 l-1.60,-0.9 l0,1.8 z" fill="black"/>
<text x="22.00" y="35.00" font-family="sans-serif" font-size="2.6" text-anchor="middle">12</text>
<line x1="82.50" y1="36.00" x2="89.50" y2="36.00" stroke="black" stroke-width="0.15"/>
<path d="M82.50,36.00 l1.60,-0.9 l0,1.8 z" fill="black"/>
<path d="M89.50,36.00 l-1.60,-0.9 l0,1.8 z" fill="black"/>
<text x="86.00" y="35.00" font-family="sans-serif" font-size="2.6" text-anchor="middle">7</text>
<line x1="22.00" y1="21.50" x2="22.00" y2="15.00" stroke="black" stroke-width="0.15"/>
<text x="22.00" y="14.00" font-family="sans-serif" font-size="2.6" text-anchor="middle">Ø6.0</text>
<line x1="29.25" y1="20.00" x2="29.25" y2="9.00" stroke="black" stroke-width="0.15"/>
<text x="29.25" y="8.00" font-family="sans-serif" font-size="2.6" text-anchor="middle">Ø9.0</text>
<line x1="60.00" y1="20.90" x2="60.00" y2="15.00" stroke="black" stroke-width="0.15"/>
<text x="60.00" y="14.00" font-family="sans-serif" font-size="2.6" text-anchor="middle">Ø7.2</text>
<line x1="82.50" y1="20.90" x2="82.50" y2="9.00" stroke="black" stroke-width="0.15"/>
<text x="82.50" y="8.00" font-family="sans-serif" font-size="2.6" text-anchor="middle">Ø1.6 thru</text>
</svg>
