<svg xmlns="http://www.w3.org/2000/svg" width="980" height="457" viewBox="0 0 105.48 49.16">
<polygon points="16.00,22.90 17.23,22.71 18.45,22.79 19.67,23.03 20.90,23.52 22.12,23.66 25.80,23.67 28.25,22.85 36.82,22.84 39.27,22.55 40.50,22.07 77.24,22.01 79.69,22.27 80.91,22.68 82.14,22.78 83.36,22.68 85.81,22.13 87.04,22.00 88.26,22.03 89.48,23.37 89.48,27.79 88.26,29.13 87.04,29.16 85.81,29.03 83.36,28.48 82.14,28.38 80.91,28.48 79.69,28.89 77.24,29.15 40.50,29.09 39.27,28.60 36.82,28.32 28.25,28.31 25.80,27.49 22.12,27.50 20.90,27.64 19.67,28.13 18.45,28.37 17.23,28.45 16.00,28.25" fill="none" stroke="black" stroke-width="0.3"/>
<line x1="10.00" y1="25.58" x2="95.48" y2="25.58" stroke="rgb(90,90,90)" stroke-width="0.15" stroke-dasharray="6,1.5,1,1.5"/>
<line x1="16.00" y1="33.16" x2="16.00" y2="36.16" stroke="rgb(120,120,120)" stroke-width="0.1"/>
<line x1="25.80" y1="33.16" x2="25.80" y2="36.16" stroke="rgb(120,120,120)" stroke-width="0.1"/>
<line x1="16.00" y1="35.16" x2="25.80" y2="35.16" stroke="black" stroke-width="0.15"/>
<path d="M16.00,35.16 l1.60,-0.9 l0,1.8 z" fill="black"/>
<path d="M25.80,35.16 l-1.60,-0.9 l0,1.8 z" fill="black"/>
<text x="20.90" y="34.16" font-family="sans-serif" font-size="2.6" text-anchor="middle">9.8</text>
<line x1="25.80" y1="33.16" x2="25.80" y2="36.16" stroke="rgb(120,120,120)" stroke-width="0.1"/>
<line x1="40.50" y1="33.16" x2="40.50" y2="36.16" stroke="rgb(120,120,120)" stroke-width="0.1"/>
<line x1="25.80" y1="35.16" x2="40.50" y2="35.16" stroke="black" stroke-width="0.15"/>
<path d="M25.80,35.16 l1.60,-0.9 l0,1.8 z" fill="black"/>
<path d="M40.50,35.16 l-1.60,-0.9 l0,1.8 z" fill="black"/>
<text x="33.15" y="34.16" font-family="sans-serif" font-size="2.6" text-anchor="middle">14.7</text>
<line x1="40.50" y1="33.16" x2="40.50" y2="36.16" stroke="rgb(120,120,120)" stroke-width="0.1"/>
<line x1="82.14" y1="33.16" x2="82.14" y2="36.16" stroke="rgb(120,120,120)" stroke-width="0.1"/>
<line x1="40.50" y1="35.16" x2="82.14" y2="35.16" stroke="black" stroke-width="0.15"/>
<path d="M40.50,35.16 l1.60,-0.9 l0,1.8 z" fill="black"/>
<path d="M82.14,35.16 l-1.60,-0.9 l0,1.8 z" fill="black"/>
<text x="61.32" y="34.16" font-family="sans-serif" font-size="2.6" text-anchor="middle">41.6</text>
<line x1="82.14" y1="33.16" x2="82.14" y2="36.16" stroke="rgb(120,120,120)" stroke-width="0.1"/>
<line x1="89.48" y1="33.16" x2="89.48" y2="36.16" stroke="rgb(120,120,120)" stroke-width="0.1"/>
<line x1="82.14" y1="35.16" x2="89.48" y2="35.16" stroke="black" stroke-width="0.15"/>
<path d="M82.14,35.16 l1.60,-0.9 l0,1.8 z" fill="black"/>
<path d="M89.48,35.16 l-1.60,-0.9 l0,1.8 z" fill="black"/>
<text x="85.81" y="34.16" font-family="sans-serif" font-size="2.6" text-anchor="middle">7.3</text>
<line x1="16.00" y1="41.16" x2="16.00" y2="44.16" stroke="rgb(120,120,120)" stroke-width="0.1"/>
<line x1="89.48" y1="41.16" x2="89.48" y2="44.16" stroke="rgb(120,120,120)" stroke-width="0.1"/>
<line x1="16.00" y1="43.16" x2="89.48" y2="43.16" stroke="black" stroke-width="0.15"/>
<path d="M16.00,43.16 l1.60,-0.9 l0,1.8 z" fill="black"/>
<path d="M89.48,43.16 l-1.60,-0.9 l0,1.8 z" fill="black"/>
<text x="52.74" y="42.16" font-family="sans-serif" font-size="2.6" text-anchor="middle">73.5</text>
<line x1="17.23" y1="22.71" x2="17.23" y2="18.00" stroke="black" stroke-width="0.15"/>
<text x="17.23" y="17.00" font-family="sans-serif" font-size="2.6" text-anchor="middle">Ø5.7</text>
<line x1="25.80" y1="23.67" x2="25.80" y2="12.00" stroke="black" stroke-width="0.15"/>
<text x="25.80" y="11.00" font-family="sans-serif" font-size="2.6" text-anchor="middle">Ø3.8</text>
<line x1="57.00" y1="22.07" x2="57.00" y2="18.00" stroke="black" stroke-width="0.15"/>
<text x="57.00" y="17.00" font-family="sans-serif" font-size="2.6" text-anchor="middle">Ø7.0</text>
<line x1="82.14" y1="22.78" x2="82.14" y2="12.00" stroke="black" stroke-width="0.15"/>
<text x="82.14" y="11.00" font-family="sans-serif" font-size="2.6" text-anchor="middle">Ø5.6</text>
</svg>
