<svg xmlns="http://www.w3.org/2000/svg" width="1170" height="459" viewBox="0 0 1169.6 459.0">
<rect x="204.0" y="153.0" width="193.8" height="153.0" rx="25.5" fill="none" stroke="rgb(170,120,20)" stroke-width="1.6"/>
<circle cx="258.4" cy="251.6" r="41.7" fill="none" stroke="rgb(170,120,20)" stroke-width="1.0"/>
<rect x="282.2" y="166.6" width="105.4" height="170.0" rx="0.0" fill="none" stroke="rgb(170,120,20)" stroke-width="1.0"/>
<circle cx="219.3" cy="285.6" r="7.7" fill="none" stroke="rgb(170,120,20)" stroke-width="0.8"/>
<circle cx="219.3" cy="173.4" r="7.7" fill="none" stroke="rgb(170,120,20)" stroke-width="0.8"/>
<circle cx="382.5" cy="285.6" r="7.7" fill="none" stroke="rgb(170,120,20)" stroke-width="0.8"/>
<circle cx="382.5" cy="173.4" r="7.7" fill="none" stroke="rgb(170,120,20)" stroke-width="0.8"/>
<text x="300.9" y="324.0" font-family="sans-serif" font-size="12" fill="rgb(150,100,10)" text-anchor="middle">RECEIVER</text>
<text x="300.9" y="337.0" font-family="sans-serif" font-size="9" fill="rgb(150,100,10)" text-anchor="middle">cast brass, co-moulded in flax neck</text>
<circle cx="724.2" cy="251.6" r="40.8" fill="none" stroke="black" stroke-width="1.8"/>
<circle cx="724.2" cy="251.6" r="34.0" fill="none" stroke="rgb(120,120,120)" stroke-width="0.5" stroke-dasharray="4,2"/>
<circle cx="724.2" cy="251.6" r="38.2" fill="none" stroke="rgb(60,60,140)" stroke-width="1.2"/>
<circle cx="724.2" cy="251.6" r="10.2" fill="none" stroke="rgb(60,60,140)" stroke-width="0.8"/>
<rect x="751.4" y="166.6" width="98.6" height="170.0" rx="0.0" fill="none" stroke="rgb(40,120,40)" stroke-width="1.6"/>
<circle cx="800.7" cy="190.4" r="0.0" fill="none" stroke="black" stroke-width="0"/>
<polygon points="834.7,213.4 800.7,233.1 766.7,213.4 766.7,174.2 800.7,154.5 834.7,174.2" fill="none" stroke="rgb(40,120,40)" stroke-width="1.0"/>
<text x="800.7" y="162.6" font-family="sans-serif" font-size="8" fill="rgb(40,120,40)" text-anchor="middle">4mm hex</text>
<text x="724.2" y="324.0" font-family="sans-serif" font-size="12" fill="black" text-anchor="middle">TUNER</text>
<text x="724.2" y="337.0" font-family="sans-serif" font-size="9" fill="rgb(60,60,60)" text-anchor="middle">post+wheel+worm  10:1  self-locking</text>
<text x="584.8" y="13.0" font-family="sans-serif" font-size="11" fill="rgb(40,40,40)" text-anchor="middle">worm-drive tuner + receiver  |  neck footprint 11.4 mm  wheel Ø4.8  worm Ø5.8  lead 4.6°</text>
</svg>