<svg xmlns="http://www.w3.org/2000/svg" width="760" height="61" viewBox="0 0 10.095 0.810">
<polygon points="0.000,0.704 0.000,0.106 0.026,0.083 0.219,0.082 0.335,0.098 0.517,0.172 1.164,0.189 1.208,0.175 1.234,0.111 1.285,0.097 2.588,0.093 2.640,0.079 2.665,0.016 2.776,0.002 6.916,0.002 7.096,0.016 7.344,0.078 7.470,0.089 7.596,0.078 7.859,0.016 8.125,0.001 8.164,0.017 8.222,0.143 8.270,0.282 8.285,0.405 8.270,0.528 8.222,0.668 8.164,0.793 8.125,0.810 7.859,0.795 7.596,0.733 7.470,0.721 7.344,0.733 7.096,0.795 6.916,0.808 2.776,0.808 2.665,0.794 2.640,0.731 2.588,0.717 1.285,0.713 1.234,0.699 1.208,0.635 1.028,0.619 0.517,0.638 0.335,0.712 0.095,0.730 0.026,0.727 0.000,0.704" fill="none" stroke="black" stroke-width="0.04"/>
<polygon points="9.285,0.405 9.299,0.300 9.339,0.203 9.403,0.119 9.487,0.054 9.585,0.014 9.690,0.000 9.795,0.014 9.892,0.054 9.976,0.119 10.041,0.203 10.081,0.300 10.095,0.405 10.081,0.510 10.041,0.608 9.976,0.691 9.892,0.756 9.795,0.796 9.690,0.810 9.585,0.796 9.487,0.756 9.403,0.691 9.339,0.608 9.299,0.510 9.285,0.405" fill="none" stroke="black" stroke-width="0.04"/>
</svg>