<svg xmlns="http://www.w3.org/2000/svg" width="760" height="61" viewBox="0 0 10.104 0.810">
<polygon points="0.001,0.161 0.009,0.106 0.035,0.083 0.104,0.080 0.228,0.082 0.345,0.098 0.411,0.135 0.526,0.172 0.776,0.188 1.037,0.191 1.173,0.189 1.217,0.175 1.231,0.143 1.243,0.111 1.294,0.097 1.506,0.095 1.945,0.095 2.385,0.095 2.597,0.093 2.650,0.079 2.662,0.048 2.674,0.016 2.785,0.002 3.420,0.000 4.832,0.000 6.255,0.000 6.925,0.002 7.105,0.016 7.224,0.047 7.353,0.078 7.479,0.089 7.605,0.078 7.737,0.047 7.868,0.016 7.989,0.002 8.082,0.000 8.134,0.001 8.159,0.004 8.173,0.017 8.194,0.059 8.231,0.143 8.239,0.164 8.279,0.282 8.294,0.405 8.279,0.528 8.239,0.646 8.231,0.668 8.194,0.752 8.173,0.793 8.159,0.806 8.134,0.810 8.082,0.810 7.989,0.808 7.868,0.795 7.737,0.764 7.605,0.733 7.479,0.721 7.353,0.733 7.224,0.764 7.105,0.795 6.925,0.808 6.255,0.810 4.832,0.810 3.420,0.810 2.785,0.808 2.674,0.794 2.662,0.762 2.650,0.731 2.597,0.717 2.385,0.715 1.945,0.715 1.506,0.715 1.294,0.713 1.243,0.699 1.231,0.667 1.217,0.635 1.173,0.621 1.037,0.619 0.776,0.622 0.526,0.638 0.411,0.675 0.345,0.712 0.228,0.728 0.104,0.730 0.035,0.727 0.009,0.704 0.001,0.649 0.000,0.573 0.000,0.490 0.000,0.405 0.000,0.320 0.000,0.237 0.001,0.161" fill="none" stroke="black" stroke-width="0.04"/>
<polygon points="2.662,0.405 2.662,0.405 2.662,0.405 2.662,0.405 2.662,0.405" fill="none" stroke="black" stroke-width="0.04"/>
<polygon points="2.666,0.500 2.666,0.500 2.666,0.500 2.666,0.500 2.666,0.500" fill="none" stroke="black" stroke-width="0.04"/>
<polygon points="2.730,0.125 2.730,0.125 2.730,0.125 2.730,0.125 2.730,0.125" fill="none" stroke="black" stroke-width="0.04"/>
<polygon points="7.164,0.502 7.164,0.502 7.164,0.502 7.164,0.502 7.164,0.502" fill="none" stroke="black" stroke-width="0.04"/>
<polygon points="7.289,0.577 7.289,0.577 7.289,0.577 7.289,0.577" fill="none" stroke="black" stroke-width="0.04"/>
<polygon points="7.164,0.218 7.164,0.218 7.164,0.218 7.164,0.218 7.164,0.218" fill="none" stroke="black" stroke-width="0.04"/>
<polygon points="9.294,0.405 9.298,0.374 9.308,0.300 9.348,0.203 9.413,0.119 9.455,0.086 9.497,0.054 9.594,0.014 9.699,0.000 9.699,0.000 9.699,0.000 9.699,0.000 9.804,0.014 9.902,0.054 9.985,0.119 10.020,0.163 10.050,0.203 10.087,0.293 10.090,0.300 10.093,0.325 10.104,0.405 10.104,0.405 10.104,0.405 10.090,0.510 10.050,0.608 9.985,0.691 9.902,0.756 9.805,0.796 9.804,0.796 9.699,0.810 9.699,0.810 9.699,0.810 9.699,0.810 9.699,0.810 9.664,0.806 9.594,0.796 9.497,0.756 9.413,0.691 9.348,0.608 9.308,0.510 9.294,0.405 9.294,0.405 9.294,0.405" fill="none" stroke="black" stroke-width="0.04"/>
</svg>